<svg id="Слой_1" xmlns="http://www.w3.org/2000/svg" viewBox="0 0 43.7 43.7"><style>.st1{fill:#fff}.st2{fill:#fcd116}</style><path d="M21.8 43.7c8.8 0 16.4-5.2 19.9-12.8H2c3.4 7.6 11 12.8 19.8 12.8z"/><path d="M21.8 0C13 0 5.4 5.2 1.9 12.8h39.7C38.3 5.2 30.7 0 21.8 0z" fill="#ce1126"/><path class="st1" d="M0 21.9c0 3.3.7 6.3 2 9.1h39.7c1.3-2.8 2-5.9 2-9.1 0-3.3-.7-6.3-2-9.1H2c-1.3 2.7-2 5.8-2 9.1z"/><g transform="matrix(1.00015 0 0 1 .022 0)"><path class="st2" d="M17.2 30.3c-.3-.1-.4-.2-.4-.4v-.2c-.5-.2 0-.5-.6-.7v-.1c.6 0 .4-.3.7-.3h.1c0-.4.3-.6.7-.6.1 0 .2 0 .3.1.7.2 2.9.3 3.6.3h.2v.1h-.2c-.7 0-2.9 0-3.7-.3h-.3c-.3 0-.6.2-.6.6h-.1c-.2 0 0 .3-.5.3.5.2.1.5.5.6v.2c0 .2 0 .3.3.4 1 .2 4.6.3 4.6.3v.1s-3.5-.1-4.6-.4z" id="_x3C_Path_x3E__380_"/><path class="st2" d="M21.8 30.6s3.6-.1 4.6-.3c.3-.1.3-.2.3-.3v-.3c.4-.1 0-.4.5-.6-.5-.1-.3-.4-.5-.3h-.1c0-.4-.3-.5-.6-.5h-.3c-.7.2-3 .3-3.7.3h-.2v-.2h.2c.7 0 2.9 0 3.6-.3.1 0 .2-.1.3-.1.3 0 .7.2.6.6h.1c.3 0 0 .3.7.3v.1c-.7.2-.1.5-.6.6v.2c0 .2-.1.3-.4.4-.9.4-4.5.5-4.5.4z" id="_x3C_Path_x3E__379_"/></g><path class="st2" d="M18.7 29.2l.1.2h-.4c0-.1 0-.1-.1-.2v.1l.1.1c-.1 0-.3 0-.4-.1-.1-.1-.1-.3-.1-.5 0 0-.1.1 0 .2-.1 0-.1 0-.2.1 0 .1-.1.1 0 .2h.2c0 .2.1.3.3.3s.4.1.6.1v-.3c-.1-.1-.1-.2-.1-.2zm-.8-.1c-.1.1-.1 0 0 0-.1 0 0 0 0 0zm5 .1c.1 0 .1 0 0 0 0-.1 0-.2 0 0 0 0-.1 0 0 0-.1-.1-.1 0-.2 0 0 0 .1.1.2 0-.1 0-.1 0 0 0zm-3 .1v-.2.2c-.2-.1-.1-.1 0 0v.3c-.1 0-.2 0-.3-.1 0 0 .1-.2 0-.2-.1-.1-.2-.1-.3 0 0 .1.1.1.1.2h-.1c0-.1 0-.2-.1-.2V29.6c-.1.1-.2.1-.4 0 0 .1.2.2.2.2.1 0 .2-.1.2-.2h.2c.1.1.4.1.5.1v-.4c0 .1 0 .1 0 0zm-.5.2s0-.1 0 0c0-.1 0-.1 0 0 0-.1.1-.1 0 0 .1 0 0 0 0 0zm-1.6-.8c.1 0 .1.1 0 0 .1 0 .1 0 0 0 .2 0 .1-.1 0 0 .1-.1.1 0 0 0 0 0 0-.1 0 0-.1-.1-.1 0-.2 0 .1 0 .2.1.2 0 0 .1 0 0 0 0zm.7 1c.1.1.1 0 .2 0h-.2zm-.2 0c-.1-.1-.1-.1 0 0-.1 0-.2 0 0 0-.1.1-.1.1 0 .2v-.2c.1.1.1 0 0 0 .1-.1.1-.1 0 0 0-.1 0-.1 0 0zm1.7-.2v.4c0-.1.1-.1.1-.2 0-.2 0-.4-.1-.5-.1.1 0 .1 0 .3zm3.4 0l.1.2c-.1 0-.3.1-.4 0-.1-.1-.1-.3-.1-.5 0 .1 0 .2-.1.2l-.2.2c0 .1-.1.1 0 .1s.1 0 .2-.1c0 .1 0 .1.1.2s.2 0 .3 0 .2 0 .2-.1c-.1 0 0-.1-.1-.2zm-.5.1s-.1 0 0 0c-.1 0 0-.1 0 0zm.9 0c.1 0 .1.1 0 0 .1.2 0 .2 0 .3 0 0-.1.1-.2.1s-.1-.1-.2 0c.1 0 .2.1.3.1s.2-.2.2-.3 0-.3-.1-.4c.1.1 0 .2 0 .2zm2.2-.4c-.1 0-.1-.1-.2-.2-.1 0-.2.1-.2.2h.3c-.1 0-.2.1-.4.1 0 0 0-.2-.1-.2s-.1.1-.2.2-.3.1-.5.2c.1 0 .1-.1.1-.2s0-.2-.1-.1c0 .1-.1.1-.1.2s-.1.1-.2.1c0-.1-.1-.3-.2-.2-.1.1-.1.4.1.3 0 .1-.1.1-.2.2H24c-.1 0-.1-.1-.1 0 .1.1.2.1.3.1s.1-.1.2-.2v-.1c0-.1 0 0 .1-.1 0 .1.1.3.2.2.1-.1.1-.2 0-.3.1 0 .2 0 .3-.1 0 0 .1 0 .1-.1h.2c.1 0 .3-.1.4-.1.1 0 .1 0 .2-.1.2.4.2.3.1.2.1 0 0 0 0 0zm-1.6.4c-.2 0 0-.2 0 0zm.3-.2c.1.1 0 .1 0 0 0 .1 0 .1 0 0zm.1.4c-.1 0-.1 0 0 0-.1-.1-.1-.1 0 0-.1 0 0 0 0 0zm.4-.4c0-.1.1 0 0 0 .1 0 .1 0 0 0zm.4.3c.1 0 .1-.1.2-.1l-.2.1c.1-.1.1-.1 0 0zm-2.3.3c-.1 0-.1.1-.2.1.1 0 .1.1.1 0s0-.1.1-.1c.1.1.1.1 0 0 .1-.1 0-.1 0 0zm-1.3-.3s-.2.1-.2 0v-.2c-.1-.2-.3 0-.4.1 0 0-.1.1-.2.1s0-.1-.1-.2c0 .1 0 .2-.1.2s0 0 0-.1 0-.1-.1-.1v.4c-.1.1-.2.2-.4.1 0 .1.1.1.1.1s.1.1.2 0c.1 0 .2-.1.2-.2.1 0 .1 0 .2-.1 0 .1.2.1.3.1H22.4v-.3c-.2-.2-.3.1-.4.1zm-.4.1c0-.1.1-.1.2-.1s-.2.1-.2.1zm.5-.1c.1-.1.1.1 0 0 .1.1.1 0 0 0z"/><path class="st2" d="M15.5 28s.3-7.7.4-10.4c0-.8.4-1.1.9-1.1s1 .3 1.5.6c.4.2.8.3 1.2.3.7 0 1.5-.2 2.3-.2.8 0 1.6.2 2.3.2.4 0 .8-.1 1.2-.3.5-.3 1-.6 1.5-.6s.9.3.9 1.1c.1 2.6.5 10.4.5 10.4H15.5zm12.7 0c0-.5-.3-7.8-.4-10.4 0-.8-.4-1.1-.8-1.1s-1 .3-1.5.5c-.4.2-.8.3-1.3.3-.7 0-1.5-.2-2.3-.2-.8 0-1.6.2-2.3.2-.4 0-.9-.1-1.3-.3-.5-.3-1-.5-1.5-.5s-.8.3-.8 1.1c-.1 2.6-.4 10.3-.5 10.4h12.7z" id="_x3C_Path_x3E__378_"/><g id="_x3C_Path_x3E__376_" transform="matrix(1.00015 0 0 1 .022 0)"><g id="_x3C_Path_x3E__377_"><path class="st1" d="M22.8 17.6c.4.2.9.2.9.2s-1-1.3-.7-2.4c.3-1.5 0-2-.6-2.2-.5-.1-.7-.1-.9 0s-.5.4-.5.4-.3-.2-.6-.3c-.2 0-.6 0-.6.5l.1-.1s.4.1.6.2c.2.1.4.7.4 1.2.2 1.1-1.1 2.6-1.1 2.6s.6 0 .9-.2c-.1.2-.2.3-.4.4.4-.1 1-.6 1-.6l.4.5.4-.5s.6.5 1 .6l-.3-.3z"/><path class="st2" d="M23.2 18c-.4-.1-1-.5-1-.6l-.4.5-.3-.5s-.6.5-1 .6h-.1l.1-.1.4-.4c-.4.2-1 .2-1 .2h-.1s1.1-1.3 1.1-2.3v-.2c-.1-.5-.3-1.1-.4-1.2-.2-.2-.5-.2-.5-.2l-.1.1v-.1c0-.4.3-.6.5-.6h.1c.3 0 .6.2.6.2s.3-.3.5-.4c.1-.1.3-.1.5-.1.1 0 .3 0 .5.1.5.1.8.5.8 1.3 0 .3 0 .6-.1 1v.4c0 1 .7 2 .7 2h-.1s-.5 0-.9-.2c0 .3.1.3.2.5zm-2.7-.1c.4-.1.9-.5.9-.5l.3.5.4-.5s.5.4.9.5c-.1-.1-.2-.2-.3-.4.3.2.7.2.9.2-.1-.2-.7-1.1-.7-2v-.4c.1-.4.1-.7.1-1 0-.8-.3-1.1-.8-1.2-.2 0-.3-.1-.5-.1s-.3 0-.4.1c-.2.1-.5.4-.5.4s-.3-.2-.6-.2h-.1c-.2 0-.4.1-.4.4h.1s.4.1.6.2c.2.1.4.7.4 1.2v.2c0 1-.9 2.1-1.1 2.3.2 0 .6 0 .9-.2.1.3 0 .4-.1.5z"/></g></g><g id="_x3C_Path_x3E__375_"><path class="st2" d="M23.1 13.6c-.2-.3-.3-.3-.5-.4-.4-.2-.9-.1-1.1 0-.2.1-.4.3-.4.3s.4 0 .5.2.3 0 .5-.1c.1-.1.3-.2.5-.2.1 0 .5.2.5.2z"/><path class="st2" d="M21.6 13.8c-.1-.2-.5-.2-.5-.2s.2-.3.5-.3c.1-.1.4-.1.6-.1.2 0 .3 0 .5.1s.3.1.5.4c0 0-.1 0-.2-.1-.1 0-.2-.1-.3-.1-.2 0-.3.1-.4.2-.1.1-.2.2-.3.2-.3 0-.4-.1-.4-.1zm0-.1c0 .1.1.1 0 0 .2.1.3 0 .4-.1.1-.1.3-.2.5-.2.1 0 .3.1.4.1-.1-.2-.3-.2-.4-.3-.1-.1-.3-.1-.5-.1s-.5.1-.6.1c-.2.1-.4.2-.4.3.2 0 .5 0 .6.2z"/></g><circle class="st1" cx="21.7" cy="13.5" r=".1"/><path d="M19.9 13.7s.4-.1.9.1c.4.2.6.6.6.6s-.2-.2-.3-.1c-.2.2-.2.5-.2.5s0-.5-.3-.7c-.2-.2-.7-.4-.7-.4z" fill="#fc0"/><path class="st2" d="M20.7 17.6s.5-.6.5-1.3v-.2h.1v.3c0 .6-.5 1.3-.6 1.2zM22.4 16.3V16h.1c0 .2 0 .2-.1.3.1.7.5 1.3.5 1.3s-.5-.6-.5-1.3zM21.4 17.4s.2-.5.2-1v-.3h.1v.3c0 .5-.2 1-.3 1zM21.9 16.4v-.3h.1c0 .1 0 .2-.1.3.1.5.3 1 .3 1.1 0-.1-.3-.6-.3-1.1zM19.8 23.6l-.7.8.3-5.2.6-.1zM16.2 27.2l-.7.7.4-10.4.7-.3zM17.2 26.3l-.7.7.4-9.6.7.6zM18.1 25.4l-.6.7.3-7.9.6.5zM19 24.5l-.7.7.4-6.3.5.2zM23.9 23.6l.7.8-.4-5.2-.6-.1zM27.5 27.2l.7.7-.4-10.4-.7-.3zM26.5 26.3l.7.7-.4-9.6-.7.6zM25.5 25.4l.7.7-.4-7.9-.6.5zM24.7 24.5l.7.7-.4-6.3-.6.2z"/><g><path class="st2" d="M22 23.7l.2 3.8-.4.5-.3-.5.2-3.8z"/><path class="st2" d="M22.1 23.7l1.1 3.6-.2.6-.5-.4-.7-3.7zM21.6 23.7l-1.2 3.6.3.6.5-.4.6-3.7z"/></g><g><path class="st1" d="M20.1 28.5l-2.4-.8 2-5.7 2 1.3z"/><path class="st2" d="M17.7 27.7l2-5.7 2 1.3-1.6 5.2-2.4-.8zm0-.1l2.3.8 1.6-5.1-2-1.3-1.9 5.6z"/><path class="st2" d="M19.3 24.3l-.2-.7h.1l.2.6.6-.6v.1l-.7.6z"/><path class="st2" d="M19.8 22.6h.1l.3 2.1.6-.9.1.1-.8.9z"/><path class="st2" d="M20.7 24.2v-.1l.5.9h-.1zM19.9 25l-.5.7v-.1l-.1-.8-.7.4v-.1l.7-.3.2.8.4-.7.3 1.2.7-.4-.7.5zM20.2 26.5l-.7.7-.2-.9-.6.6-.4-.9h.1l.3.8.7-.6.2.9.7-.7.2.9h-.1z"/><g><path class="st2" d="M19.5 28.2l-.1-.7-.6.5-.2-.9-.7.6h-.1l.8-.7.2.9.7-.5.1.8.8-.7-.9.8z"/></g></g><g><path class="st1" d="M23.6 28.5l2.4-.8-2-5.6-2 1.2z"/><path class="st2" d="M23.6 28.5l-1.7-5.2 2-1.3 2 5.7-2.3.8zM22 23.3l1.6 5.1 2.3-.8-2-5.6-1.9 1.3z"/><path class="st2" d="M23.7 23.7v-.1l.6.6.2-.6.1.1-.2.6z"/><path class="st2" d="M22.8 23.9h.1l.6.8.3-2.1v.1l-.2 2.2z"/><path class="st2" d="M22.5 25l.5-.9v.1l-.4.8zM22.8 25.7l.7.5.2-1.3.5.7.2-.8.7.4-.6-.3-.3.8-.4-.7-.3 1.3zM23.2 27.3l.2-.9.7.7.2-.9.7.6.3-.8h.1l-.4.9-.6-.6-.3.9-.6-.7-.2.8z"/><g><path class="st2" d="M23.3 27.5l.8.7.1-.8.7.5.2-.9.8.7-.1.1-.7-.7-.2.9-.6-.5-.2.8z"/></g></g><g><g id="_x3C_Path_x3E__374_" transform="matrix(1.00015 0 0 1 .022 0)"><g id="_x32_1315904_4_"><path class="st1" d="M24.3 28c-.6.1-1.2.1-1.7.1-.3 0-.5.5.1.6.5.1 1.3 0 1.7-.1s1.2-.2 1.7-.4.1-.7-.1-.6c-.6.2-1.1.3-1.7.4z"/><path class="st2" d="M22.6 28.7c-.3 0-.4-.2-.4-.3 0-.2.2-.3.3-.3h.5c.4 0 .9 0 1.3-.1.6-.1 1.2-.2 1.6-.4h.1c.2 0 .4.2.4.3 0 .1-.1.2-.3.3-.5.1-1.3.3-1.7.4-.3.1-.8.1-1.2.1h-.6zm-.3-.3c0 .1.1.2.3.3h.5c.4 0 .9 0 1.2-.1.4-.1 1.2-.2 1.7-.4.2-.1.2-.2.2-.3 0-.1-.2-.3-.3-.3h-.1c-.4.1-1 .3-1.6.4-.4.1-.9.1-1.3.1h-.5s-.1.1-.1.3z"/></g><path class="st2" d="M22.6 28.7c-.3 0-.4-.2-.4-.3 0-.2.1-.3.3-.3h.2c.5 0 1.4-.1 1.5-.1 0 0 1.2-.2 1.6-.4h.1c.2 0 .4.2.4.4 0 .1-.1.2-.3.3-.5.2-1.7.4-1.7.4s-.8.1-1.4.1c-.1-.1-.2-.1-.3-.1zm-.3-.4c0 .1.1.2.3.3h.4c.6 0 1.4-.1 1.4-.1s1.2-.2 1.7-.4c.2-.1.2-.2.2-.3 0-.1-.2-.3-.3-.3h-.1c-.5.1-1.6.4-1.6.4s-.9.1-1.5.1h-.2c-.2.1-.3.2-.3.3z" id="path2035_4_"/></g><path class="st1" d="M24.7 28.5c0 .2-.2.6-.2.6s-.3-.4-.4-.6c0-.2.1-.4.2-.4.2 0 .3.2.4.4z"/><path class="st2" d="M24.5 29.1s-.3-.4-.4-.6c0-.2.1-.4.3-.4.2 0 .3.2.3.4s-.2.6-.2.6zm-.1-.9c-.1 0-.2.1-.2.3 0 .1.2.4.3.5 0-.1.2-.4.2-.5-.1-.2-.2-.3-.3-.3z"/><path class="st1" d="M22.6 28.6c0 .2-.2.1-.3.5-.2-.2-.2-.4-.2-.6 0-.2.2-.3.3-.3.1.1.2.2.2.4z"/><path class="st2" d="M22.2 29.2c-.2-.2-.2-.3-.2-.5v-.1c0-.2.2-.3.3-.3.2 0 .3.2.3.4v.1c0 .1-.2 0-.4.4zm-.1-.6c0 .2 0 .3.2.5.1-.4.3-.3.3-.5v-.1c0-.2-.1-.3-.2-.3-.2.1-.3.2-.3.4z"/><path class="st1" d="M26.1 28.2c.1.2.2 0 .5.3.1-.3.1-.4 0-.6-.1-.2-.3-.2-.4-.2-.2.1-.2.3-.1.5z"/><path class="st2" d="M26.6 28.6c-.3-.3-.4-.1-.5-.3.1 0 .2-.1.5.3v-.3c0-.1 0-.2-.1-.3-.1-.1-.2-.2-.3-.2h-.1c-.1 0-.1.1-.1.2s0 .1.1.2c0-.1-.1-.2-.1-.2 0-.1 0-.2.1-.3h.1c.1 0 .3.1.3.2.1.1.1.2.1.3.1.1.1.2 0 .4zM22.9 28.4v-.1h.4v.1z"/><g><path class="st2" d="M23.5 28.3h.4v.1h-.4z"/></g><g><path class="st2" d="M24.8 28.2l.4-.1v.1h-.4z"/></g><g><path class="st2" d="M25.4 28h.3l-.3.1z"/></g><g><g id="_x3C_Path_x3E__373_" transform="matrix(1.00015 0 0 1 .022 0)"><g id="_x32_1315904_3_"><path class="st1" d="M19.4 28c.6.1 1.2.1 1.7.1.3 0 .5.5-.1.6-.5.1-1.3 0-1.7-.1s-1.2-.2-1.7-.4-.1-.7.1-.6c.5.2 1.1.3 1.7.4z"/><path class="st2" d="M19.3 28.6c-.4-.1-1.2-.2-1.7-.4-.2-.1-.3-.2-.3-.3 0-.2.2-.3.4-.3h.1c.4.1 1 .3 1.6.4.4.1.9.1 1.3.1h.5c.2 0 .3.2.3.3 0 .1-.1.3-.4.3h-.5c-.5 0-1-.1-1.3-.1zm-1.9-.7c0 .1.1.2.2.3.5.1 1.3.3 1.7.4.3.1.8.1 1.2.1h.5c.3 0 .3-.1.3-.3 0-.1-.1-.3-.3-.3h-.5c-.4 0-.9 0-1.3-.1-.6-.1-1.2-.2-1.6-.4h-.1c.1 0-.1.2-.1.3z"/></g><path class="st2" d="M19.3 28.6s-1.2-.2-1.7-.4c-.2-.1-.3-.2-.3-.3 0-.2.2-.3.4-.4h.1c.5.1 1.6.4 1.6.4.1 0 1 .1 1.5.1h.2c.2 0 .3.2.3.3 0 .1-.1.3-.4.3h-.4c-.5.1-1.3 0-1.3 0zm-1.9-.7c0 .1.1.2.2.3.5.2 1.7.4 1.7.4s.8.1 1.4.1h.4c.3 0 .3-.2.3-.3 0-.1-.1-.3-.3-.3h-.2c-.6 0-1.5-.1-1.5-.1s-1.2-.2-1.6-.4h-.1c-.1 0-.3.2-.3.3z" id="path2035_3_"/></g><path class="st1" d="M19.1 28.5c0 .2.2.6.2.6s.3-.4.4-.6c0-.2-.1-.4-.2-.4-.3 0-.4.2-.4.4z"/><path class="st2" d="M19.2 29.1s-.2-.4-.2-.6c0-.2.2-.4.3-.4.2 0 .3.2.3.4v.1c0 .2-.3.5-.4.5zm-.1-.6c0 .2.1.4.2.5.1-.1.3-.4.3-.5 0-.2-.1-.3-.2-.3-.2 0-.3.1-.3.3z"/><path class="st1" d="M21.1 28.6c0 .2.2.1.3.5.2-.2.2-.4.2-.6 0-.2-.2-.3-.3-.3-.1.1-.2.2-.2.4z"/><path class="st2" d="M21.5 29.2c-.1-.4-.3-.3-.3-.5v-.1c0-.2.1-.3.2-.3.2 0 .3.1.3.3v.1c0 .1 0 .3-.2.5zm0-.1c.1-.2.2-.3.2-.4v-.1c0-.2-.1-.3-.3-.3-.1 0-.2.1-.2.3v.1c0 .1.1 0 .3.4z"/><path class="st1" d="M17.6 28.2c-.1.2-.2 0-.5.3-.1-.3-.1-.4 0-.6.1-.2.3-.2.4-.2.2.1.2.3.1.5z"/><path class="st2" d="M17.1 28.6c0-.1-.1-.2-.1-.3 0-.1 0-.2.1-.3.1-.1.2-.2.3-.2h.1c.1.1.1.2.1.3 0 .1 0 .2-.1.2 0 .1-.1-.1-.4.3zm.1-.6c-.1.1-.1.2-.1.3v.2c.3-.3.4-.2.5-.3 0-.1.1-.1.1-.2s0-.2-.1-.2h-.1c-.2 0-.3 0-.3.2zM20.4 28.4v-.1h.4v.1z"/><g><path class="st2" d="M19.8 28.4v-.1h.4v.1z"/></g><g><path class="st2" d="M18.5 28.2l.1-.1.3.1z"/></g><g><path class="st2" d="M18 28h.3v.1z"/></g></g></g><g><g id="_x3C_Path_x3E__159_" transform="matrix(1.00015 0 0 1 .022 0)"><g id="_x3C_Path_x3E__161_"><path class="st1" d="M21.8 18.4c.7.6 1.7.9 2.8.8-.1 2.5-.8 4.3-2.8 5.6-2-1.3-2.7-3.1-2.8-5.6 1.1 0 2.1-.3 2.8-.8z"/><path class="st2" d="M19.1 19.1h.3c1 0 1.8-.3 2.5-.8.7.5 1.5.8 2.5.8h.3c-.1 2.6-.8 4.3-2.8 5.6-2.1-1.2-2.8-3-2.8-5.6zm2.7 5.6c2-1.3 2.7-3 2.8-5.6h-.3c-1 0-1.8-.3-2.5-.8-.7.5-1.5.8-2.5.8H19c.2 2.6.9 4.3 2.8 5.6z"/></g></g><path class="st2" d="M22.7 19.1c-.3-.1-.6-.3-.8-.5-.3.2-.5.4-.9.5-.5.2-1.1.3-1.7.3.1 1.8.7 3.3 1.7 4.4.3.3.5.5.9.8.3-.2.6-.4.8-.7 1-1 1.6-2.5 1.7-4.4-.6-.1-1.2-.2-1.7-.4z"/><path class="st2" d="M21 23.8c-1-1.1-1.6-2.5-1.6-4.4.6 0 1.2-.1 1.7-.3.3-.1.6-.3.9-.5.2.2.5.3.8.4-.3-.1-.6-.3-.8-.4-.3.2-.5.3-.9.5-.6.2-1.1.3-1.7.3.1 1.8.7 3.3 1.6 4.4.3.2.6.5.9.7.3-.2.6-.4.8-.7 1-1 1.6-2.5 1.7-4.4-.6 0-1.2-.1-1.7-.3.5.2 1.1.3 1.7.3-.1 1.9-.7 3.4-1.7 4.5-.2.3-.5.5-.9.7-.3-.3-.5-.6-.8-.8z"/><g><path class="st1" d="M21.9 18.6c-.3.2-.5.4-.9.5v4.6c.3.3.5.5.9.8.3-.2.6-.4.8-.7v-4.7c-.3-.1-.6-.3-.8-.5z"/><path class="st2" d="M19.3 19.4c.1 1.8.7 3.3 1.7 4.4v-4.6c-.5.1-1 .2-1.7.2zM22.7 19.1v4.7c1-1 1.6-2.5 1.7-4.4-.6 0-1.2-.1-1.7-.3z"/></g></g></svg>