<svg id="Слой_1" xmlns="http://www.w3.org/2000/svg" viewBox="0 0 43.6 43.6">
  <style>
    .st0{fill:#fff}.st2{fill:#e8112d}
  </style>
  <path class="st0" d="M43.3 17.9C41.7 8.9 34.6 1.8 25.6.2v17.7h17.7zM18 .3C9 1.9 1.9 9 .3 18H18V.3zM.3 25.6C1.9 34.6 9 41.7 18 43.3V25.6H.3zM25.6 43.3c9-1.6 16.1-8.7 17.7-17.7H25.6v17.7z"/>
  <path d="M25.6 25.6h17.7c.2-1.2.3-2.5.3-3.8s-.1-2.6-.3-3.8H25.6V.3C24.4.1 23.1 0 21.8 0s-2.6.1-3.8.3V18H.3c-.2 1.2-.3 2.5-.3 3.8s.1 2.6.3 3.8H18v17.7c1.2.2 2.5.3 3.8.3s2.6-.1 3.8-.3V25.6z" fill="#ed1c24"/>
  <path class="st2" d="M8.7 28.3c.9.1 1.9.1 2.8 0-.2 1-.3 2-.3 3 1 0 2-.2 3-.4-.1.9-.1 1.9 0 2.8-1-.2-2-.3-3-.4l.3 3c-.9-.1-1.9-.1-2.8 0 .2-1 .3-2 .4-3-1 .1-2 .2-3 .4.1-.9.1-1.9 0-2.8 1 .2 2 .3 3 .4-.1-1-.2-2-.4-3zM32 28.3c.9.1 1.9.1 2.8 0-.2 1-.3 2-.4 3 1 0 2-.2 3-.4-.1.9-.1 1.9 0 2.8-1-.2-2-.3-3-.4.1 1 .2 2 .4 3-.9-.1-1.9-.1-2.8 0 .2-1 .3-2 .3-3-1 .1-2 .2-3 .4.1-.9.1-1.9 0-2.8 1 .2 2 .3 3 .4 0-1-.1-2-.3-3zM8.7 7.1c.9.1 1.9.1 2.8 0-.2 1-.3 2-.3 3 1 0 2-.2 3-.4-.1.9-.1 1.9 0 2.8-1-.2-2-.3-3-.4l.3 3c-.9-.1-1.9-.1-2.8 0 .2-1 .3-2 .4-3-1 .1-2 .2-3 .4.1-.9.1-1.9 0-2.8 1 .2 2 .3 3 .4-.1-1-.2-2-.4-3zM32 7.1c.9.1 1.9.1 2.8 0-.2 1-.3 2-.4 3 1 0 2-.2 3-.4-.1.9-.1 1.9 0 2.8-1-.2-2-.3-3-.4.1 1 .2 2 .4 3-.9-.1-1.9-.1-2.8 0 .2-1 .3-2 .3-3-1 .1-2 .2-3 .4.1-.9.1-1.9 0-2.8 1 .2 2 .3 3 .4 0-1-.1-2-.3-3z"/>
</svg>
