<svg id="Слой_1" xmlns="http://www.w3.org/2000/svg" viewBox="0 0 43.7 44">
  <style>
    .st0{fill:#d21034}
  </style>
  <path class="st0" d="M21.8.2C14 .2 7.2 4.3 3.3 10.4h37C36.4 4.3 29.6.2 21.8.2zM21.8 44c7.8 0 14.6-4.1 18.5-10.2H3.4C7.3 39.9 14.1 44 21.8 44z"/>
  <path d="M40.3 10.4H3.4C1.3 13.8 0 17.8 0 22.1s1.3 8.3 3.4 11.7h36.9c2.1-3.4 3.4-7.4 3.4-11.7s-1.2-8.3-3.4-11.7z" fill="#007e3a"/>
  <path d="M20.3 22.1c0-3.7 2.6-6.9 6-7.7-.4-.1-.8-.1-1.2-.1-4.3 0-7.8 3.5-7.8 7.8s3.5 7.8 7.8 7.8c.4 0 .8 0 1.2-.1-3.4-.8-6-4-6-7.7z" fill="#fff"/>
</svg>
