<svg id="Слой_1" xmlns="http://www.w3.org/2000/svg" viewBox="0 0 43.8 43.8">
  <style>
    .st0{fill:#fff}.st1{fill:#dc241f}.st3{fill:#ffd100}
  </style>
  <path class="st0" d="M10.2 40.4h23.3c1.5-1 2.9-2.1 4.1-3.4H6.1c1.2 1.3 2.6 2.5 4.1 3.4zM.6 27h42.5c.3-1.1.4-2.2.5-3.4H.1c.1 1.1.2 2.3.5 3.4zM3.4 33.7h36.8c.7-1.1 1.3-2.2 1.8-3.4H1.7c.5 1.2 1.1 2.3 1.7 3.4zM33.5 3.4H10.2c-1.5 1-2.9 2.1-4.1 3.4h31.5c-1.2-1.3-2.6-2.4-4.1-3.4z"/>
  <path class="st1" d="M1.7 30.3h40.4c.4-1.1.8-2.2 1.1-3.4H.6c.3 1.2.6 2.3 1.1 3.4zM6.1 37h31.5c1-1 1.9-2.2 2.7-3.4H3.4c.8 1.3 1.7 2.4 2.7 3.4zM21.9 43.8c4.3 0 8.3-1.2 11.6-3.4H10.2c3.4 2.1 7.4 3.4 11.7 3.4zM.6 16.9h42.5c-.3-1.2-.6-2.3-1.1-3.4H1.7c-.5 1.1-.8 2.2-1.1 3.4zM0 21.9c0 .6 0 1.1.1 1.7h43.6c0-.6.1-1.1.1-1.7 0-.6 0-1.1-.1-1.7H.1c-.1.6-.1 1.1-.1 1.7zM6.1 6.8c-1 1-1.9 2.2-2.7 3.4h36.8c-.7-1.3-1.6-2.4-2.6-3.4H6.1zM21.9 0c-4.3 0-8.3 1.2-11.6 3.4h23.2C30.1 1.3 26.1 0 21.9 0z"/>
  <path class="st0" d="M.1 20.2h43.6c-.1-1.1-.3-2.3-.5-3.4H.6C.3 18 .2 19.1.1 20.2zM1.7 13.5h40.4c-.5-1.2-1.1-2.3-1.8-3.4H3.4c-.6 1.1-1.2 2.2-1.7 3.4z"/>
  <path d="M21.8 0C9.7 0 0 9.8 0 21.9c0 .6 0 1.1.1 1.7h21.8V0h-.1z" fill="#0035ad"/>
  <g>
    <path class="st3" d="M11.3 18.7c-2.7 0-4.9-2.2-4.9-4.9s2.2-4.9 4.9-4.9c.8 0 1.6.2 2.2.5-.9-.7-2.1-1.2-3.4-1.2-3.1 0-5.6 2.5-5.6 5.6s2.5 5.6 5.6 5.6c1.3 0 2.5-.4 3.4-1.2-.6.3-1.4.5-2.2.5z"/>
    <path class="st3" d="M15.7 9.1l.4 2.9 1.7-2.5-.9 2.8 2.5-1.5-2.1 2.2 3-.3-2.8 1 2.8 1.1-3-.3 2.1 2.2-2.5-1.6.9 2.8-1.7-2.4-.4 2.9-.4-2.9-1.6 2.4.9-2.8-2.5 1.6 2-2.2-2.9.3 2.8-1.1-2.8-1 2.9.3-2-2.2 2.5 1.5-.9-2.8 1.6 2.5z"/>
  </g>
</svg>
