<?xml version="1.0" standalone="no"?>
<!DOCTYPE svg PUBLIC "-//W3C//DTD SVG 20010904//EN"
 "http://www.w3.org/TR/2001/REC-SVG-20010904/DTD/svg10.dtd">
<svg version="1.0" xmlns="http://www.w3.org/2000/svg"
 width="2500.000000pt" height="2500.000000pt" viewBox="0 0 2500.000000 2500.000000"
 preserveAspectRatio="xMidYMid meet">
<metadata>
Created by potrace 1.11, written by Peter Selinger 2001-2013
</metadata>
<g transform="translate(0.000000,2500.000000) scale(0.100000,-0.100000)"
fill="#000000" stroke="none">
<path d="M5438 24344 c-2 -1 -52 -5 -113 -9 -60 -3 -123 -8 -140 -9 -85 -9
-191 -23 -250 -32 -16 -3 -43 -7 -60 -10 -16 -2 -41 -6 -55 -9 -14 -3 -50 -9
-80 -15 -30 -6 -66 -13 -80 -16 -54 -11 -66 -14 -90 -20 -14 -3 -34 -7 -45 -9
-11 -2 -20 -4 -20 -5 0 -1 -7 -3 -15 -5 -8 -1 -35 -8 -60 -16 -25 -7 -50 -13
-57 -15 -131 -25 -654 -221 -791 -296 -18 -10 -37 -18 -41 -18 -5 0 -95 -47
-200 -104 -172 -95 -254 -143 -333 -197 -15 -11 -31 -19 -37 -19 -5 0 -11 -3
-13 -7 -1 -5 -37 -30 -78 -58 -41 -27 -77 -52 -80 -55 -3 -4 -27 -21 -54 -40
-43 -29 -258 -198 -318 -249 -13 -11 -34 -29 -48 -41 -117 -100 -369 -347
-470 -460 -17 -19 -43 -48 -58 -65 -15 -16 -52 -59 -82 -95 -30 -36 -57 -67
-60 -70 -31 -28 -328 -431 -361 -489 -8 -14 -22 -34 -31 -45 -10 -11 -18 -26
-18 -33 0 -7 -4 -13 -9 -13 -5 0 -16 -15 -25 -32 -9 -18 -39 -68 -66 -110 -27
-43 -46 -78 -42 -78 4 0 2 -4 -4 -8 -5 -4 -28 -38 -49 -77 -21 -38 -47 -86
-58 -105 -38 -67 -166 -326 -212 -430 -46 -102 -165 -394 -165 -404 0 -2 -5
-17 -12 -33 -6 -15 -12 -32 -14 -38 -2 -5 -21 -64 -44 -130 -23 -66 -43 -128
-45 -138 -2 -9 -7 -22 -10 -27 -3 -5 -8 -18 -10 -27 -2 -10 -20 -76 -40 -148
-20 -71 -39 -141 -42 -155 -10 -50 -12 -55 -13 -57 -3 -3 -3 -3 -15 -58 -4
-22 -9 -44 -11 -50 -5 -18 -42 -199 -48 -230 -2 -16 -7 -39 -9 -50 -3 -11 -10
-54 -17 -95 -6 -41 -13 -86 -16 -100 -2 -14 -6 -43 -9 -65 -3 -22 -7 -49 -9
-60 -6 -32 -21 -165 -31 -275 -13 -136 -14 -158 -21 -280 -14 -225 -7 -907 11
-1230 3 -47 7 -132 10 -190 3 -58 7 -141 10 -185 2 -44 7 -116 9 -160 3 -44 8
-111 11 -150 4 -38 8 -99 10 -135 2 -36 6 -85 9 -110 2 -25 7 -81 11 -125 3
-44 8 -98 10 -120 3 -22 7 -67 10 -100 2 -33 7 -82 10 -110 10 -106 16 -161
20 -190 2 -16 7 -57 10 -90 3 -33 8 -71 10 -85 2 -14 6 -56 10 -95 4 -38 8
-72 10 -75 2 -3 6 -37 9 -75 3 -39 8 -81 10 -95 6 -30 24 -160 30 -215 3 -22
8 -58 11 -80 3 -22 7 -58 10 -80 2 -22 6 -51 9 -65 2 -14 7 -50 11 -81 3 -31
7 -66 9 -76 3 -11 7 -44 11 -74 3 -30 8 -65 10 -79 2 -14 7 -50 10 -80 4 -30
8 -67 10 -81 7 -41 14 -99 21 -164 3 -33 8 -63 10 -66 2 -3 6 -33 10 -65 3
-32 12 -101 19 -153 8 -51 14 -96 13 -100 -1 -5 9 -74 18 -126 2 -11 6 -40 9
-65 3 -25 8 -56 10 -70 3 -14 7 -43 10 -65 3 -22 8 -51 10 -65 3 -14 7 -47 11
-75 3 -27 7 -61 10 -75 8 -48 14 -86 29 -205 8 -66 17 -131 20 -145 2 -14 6
-45 9 -70 11 -93 17 -136 23 -170 3 -19 7 -44 8 -55 1 -11 5 -47 10 -80 4 -33
9 -76 11 -95 4 -39 12 -102 18 -140 3 -14 7 -46 10 -72 12 -95 16 -134 21
-178 3 -25 7 -58 9 -73 3 -15 7 -60 11 -100 4 -40 8 -74 10 -77 2 -3 6 -39 10
-80 4 -41 9 -86 10 -100 4 -40 15 -132 20 -170 3 -19 8 -62 10 -95 3 -33 7
-73 9 -90 17 -140 36 -329 41 -391 1 -22 5 -60 8 -85 4 -24 9 -75 13 -114 4
-38 8 -83 10 -100 6 -69 14 -154 19 -215 3 -36 8 -83 10 -105 5 -39 11 -111
20 -245 3 -36 7 -85 11 -110 3 -25 7 -70 10 -100 2 -30 6 -89 10 -130 8 -105
16 -207 29 -390 3 -41 8 -100 11 -130 2 -30 6 -93 9 -140 2 -47 7 -114 10
-149 6 -61 12 -163 20 -301 4 -72 13 -220 19 -320 3 -36 7 -126 11 -200 3 -74
8 -164 11 -200 2 -36 7 -121 9 -190 8 -177 13 -293 20 -465 4 -82 8 -206 11
-275 2 -69 6 -201 9 -295 10 -316 14 -529 20 -1010 9 -700 14 -1024 19 -1075
4 -48 16 -141 22 -175 2 -11 7 -40 10 -65 8 -64 12 -88 18 -108 3 -9 8 -33 10
-53 3 -19 14 -73 26 -120 29 -112 31 -121 34 -139 6 -37 106 -356 131 -415 6
-16 22 -57 35 -90 12 -33 28 -73 35 -90 7 -16 25 -59 40 -95 40 -98 205 -423
266 -525 30 -50 60 -103 68 -118 8 -15 18 -27 23 -27 4 0 8 -5 8 -10 0 -28
217 -328 365 -505 105 -126 344 -371 454 -465 73 -63 275 -220 313 -245 9 -5
69 -44 134 -86 421 -270 877 -438 1369 -505 22 -3 54 -7 70 -9 188 -25 666
-25 807 0 13 3 44 7 69 9 24 3 44 5 44 6 0 1 9 3 20 4 70 10 115 18 150 28 22
5 49 12 60 13 11 2 29 6 40 8 11 3 47 12 80 21 106 26 339 102 390 126 36 17
100 43 111 45 21 5 335 165 365 186 16 11 29 18 29 14 0 -3 6 -1 13 5 6 6 59
41 117 78 98 63 167 110 215 147 11 9 33 26 49 38 236 178 566 507 709 705 17
23 34 42 39 42 4 0 8 6 8 14 0 7 7 20 16 27 9 8 26 28 38 45 72 108 102 151
113 162 7 7 13 19 13 27 0 7 4 15 8 17 10 4 132 201 132 213 0 5 6 16 14 24
15 17 132 244 178 346 48 107 118 278 118 289 0 6 6 23 14 37 12 24 77 209 82
234 1 6 16 60 34 120 18 61 34 119 36 130 2 11 15 69 29 128 15 60 28 123 29
142 2 18 6 37 9 42 3 5 8 29 11 54 3 24 8 55 11 69 3 14 7 45 10 70 11 96 15
126 20 160 3 19 7 64 10 100 3 36 8 90 10 120 3 30 7 251 10 490 6 735 26
1439 50 1855 4 63 7 111 20 365 2 41 7 104 10 140 3 36 7 102 10 146 3 45 8
110 11 145 2 35 7 91 9 124 5 68 14 183 20 235 2 19 6 71 10 115 3 44 8 96 10
115 2 19 6 69 9 110 4 41 8 84 10 95 2 11 7 54 11 95 3 41 8 89 11 105 2 17 6
55 9 85 3 30 7 71 10 90 3 19 7 60 10 90 3 30 7 66 10 80 2 14 6 52 10 85 3
33 8 71 10 85 2 14 6 45 9 70 3 25 8 61 11 80 2 19 7 57 11 84 3 27 7 56 9 65
1 9 6 43 10 76 11 102 15 127 19 134 2 3 7 35 11 71 4 36 9 74 11 85 2 10 6
37 9 60 3 22 10 65 15 95 5 30 12 75 15 100 3 25 8 53 11 63 3 10 7 35 9 55 2
20 7 48 10 62 3 14 7 41 10 60 2 19 8 58 14 85 6 28 13 65 16 83 13 80 16 100
25 147 5 28 12 64 15 80 7 40 13 71 36 188 10 53 21 110 24 125 6 33 12 62 25
127 14 70 19 96 26 130 2 17 9 46 14 66 6 20 12 49 14 65 2 16 8 47 14 69 6
22 13 56 17 75 3 19 7 40 9 45 3 11 16 71 20 95 1 8 5 24 9 35 3 11 8 31 11
45 7 39 75 335 80 351 3 8 8 25 10 39 3 14 12 54 21 90 9 36 18 72 20 80 2 8
24 98 50 200 26 102 48 193 50 203 2 9 6 21 9 25 3 5 7 19 9 33 5 22 43 171
102 389 13 47 37 135 55 195 17 61 33 121 36 134 3 14 7 28 10 33 3 4 7 16 9
25 1 10 24 92 50 183 44 154 72 254 80 290 2 8 13 47 25 85 12 39 23 77 25 85
4 18 54 201 59 215 4 13 5 15 21 72 7 27 26 91 40 143 15 52 29 103 30 113 2
9 6 21 9 25 7 11 170 628 182 686 2 10 8 33 13 50 6 17 12 42 15 56 2 14 16
72 30 130 14 58 28 120 31 139 3 19 8 38 10 41 3 4 7 25 11 46 3 22 12 64 19
94 7 30 16 69 19 85 3 17 7 39 9 50 11 49 49 253 53 285 2 19 6 42 9 50 4 14
10 49 20 125 2 17 7 41 10 55 3 14 7 45 10 70 3 25 7 54 9 65 2 11 7 49 11 85
3 36 8 76 10 90 10 69 15 111 20 175 3 39 8 99 11 135 3 36 6 89 7 117 1 29 4
53 7 53 8 0 13 718 6 840 -10 153 -17 259 -22 300 -2 25 -6 65 -9 90 -17 159
-19 179 -35 285 -5 33 -12 78 -15 100 -14 90 -37 212 -65 345 -11 52 -23 106
-26 120 -2 14 -10 41 -16 60 -6 19 -12 41 -13 50 -1 8 -5 29 -9 45 -50 186
-74 269 -108 375 -21 69 -43 134 -48 145 -4 11 -18 49 -30 85 -21 61 -110 291
-129 335 -5 11 -16 36 -25 56 -8 19 -30 66 -47 105 -18 38 -33 71 -33 74 -4
14 -116 237 -159 315 -28 50 -64 115 -80 145 -78 142 -225 371 -346 540 -41
58 -78 107 -81 110 -3 3 -32 41 -65 84 -33 43 -64 84 -70 90 -5 6 -27 31 -47
56 -20 25 -47 57 -60 71 -13 15 -39 46 -58 69 -100 122 -473 484 -630 612 -96
78 -129 104 -151 120 -13 9 -33 24 -44 33 -50 40 -173 128 -205 148 -19 11
-37 23 -40 26 -9 10 -69 51 -75 51 -3 0 -27 15 -53 33 -61 43 -314 188 -326
186 -5 0 -12 3 -15 8 -6 9 -294 153 -306 153 -4 0 -30 11 -58 24 -51 24 -212
88 -272 108 -16 5 -39 14 -50 19 -25 10 -115 40 -135 44 -8 2 -16 4 -17 5 -2
2 -6 3 -10 4 -5 1 -35 10 -68 20 -142 43 -407 105 -520 122 -16 2 -73 11 -125
19 -52 8 -117 17 -145 20 -27 2 -66 6 -85 9 -91 14 -671 31 -682 20z"/>
<path d="M19647 24344 c-1 -1 -42 -5 -92 -9 -49 -3 -97 -8 -105 -10 -8 -2 -40
-6 -70 -10 -30 -3 -65 -7 -76 -9 -12 -3 -37 -7 -55 -10 -35 -6 -65 -12 -109
-21 -14 -3 -34 -7 -45 -9 -11 -2 -40 -9 -65 -16 -25 -7 -54 -14 -65 -17 -37
-8 -50 -11 -52 -13 -2 -2 -6 -3 -10 -4 -5 -1 -35 -10 -68 -20 -33 -10 -64 -19
-70 -21 -12 -2 -42 -13 -70 -25 -11 -5 -45 -17 -75 -28 -102 -37 -405 -175
-420 -192 -3 -3 -18 -12 -35 -20 -85 -42 -429 -264 -465 -300 -7 -7 -78 -65
-113 -93 -112 -88 -296 -264 -422 -402 -20 -22 -46 -51 -59 -65 -13 -14 -63
-74 -111 -135 -48 -60 -94 -118 -102 -129 -34 -42 -223 -329 -228 -347 -4 -10
-11 -19 -16 -19 -5 0 -9 -5 -9 -11 0 -6 -15 -37 -34 -68 -80 -130 -286 -566
-286 -603 0 -8 -4 -18 -9 -24 -4 -5 -20 -45 -35 -89 -15 -44 -31 -89 -35 -100
-5 -11 -21 -60 -36 -110 -15 -49 -31 -104 -36 -121 -5 -17 -12 -40 -14 -50 -2
-10 -9 -39 -16 -64 -6 -25 -12 -52 -14 -60 -2 -8 -4 -15 -5 -15 -2 0 -5 -14
-13 -55 -20 -102 -24 -119 -27 -122 -2 -4 -7 -31 -14 -87 -3 -24 -8 -53 -12
-65 -4 -11 -8 -32 -9 -46 -2 -14 -6 -45 -9 -70 -4 -25 -9 -65 -12 -90 -3 -25
-7 -56 -9 -70 -2 -14 -7 -61 -11 -105 -3 -44 -8 -100 -10 -125 -2 -25 -6 -238
-8 -475 -9 -827 -30 -1542 -61 -2045 -3 -47 -7 -114 -9 -150 -4 -66 -15 -227
-21 -310 -2 -25 -6 -85 -9 -135 -3 -49 -8 -110 -10 -135 -3 -25 -8 -81 -11
-125 -3 -44 -8 -98 -11 -120 -2 -22 -6 -69 -9 -105 -5 -79 -14 -183 -21 -228
-6 -47 -18 -181 -18 -214 -1 -16 -3 -28 -6 -28 -3 0 -5 -12 -5 -27 -1 -34 -14
-159 -20 -193 -2 -14 -6 -52 -9 -85 -3 -33 -6 -60 -6 -60 -1 0 -3 -13 -5 -30
-5 -50 -14 -125 -20 -167 -4 -22 -8 -54 -9 -71 -4 -34 -15 -125 -21 -167 -2
-14 -11 -79 -20 -145 -22 -168 -25 -188 -30 -205 -2 -8 -6 -37 -10 -65 -5 -43
-27 -185 -40 -265 -2 -14 -7 -43 -10 -65 -3 -22 -10 -62 -15 -90 -5 -27 -12
-66 -14 -85 -3 -19 -7 -44 -10 -55 -2 -11 -7 -40 -10 -65 -3 -25 -8 -56 -11
-70 -3 -14 -14 -72 -25 -130 -11 -58 -21 -115 -24 -126 -2 -12 -7 -37 -10 -55
-3 -19 -8 -45 -11 -59 -6 -32 -44 -227 -50 -260 -4 -25 -8 -41 -39 -190 -13
-61 -51 -239 -72 -335 -3 -11 -7 -32 -9 -48 -2 -15 -6 -31 -9 -36 -3 -4 -8
-23 -11 -42 -3 -19 -11 -54 -16 -79 -6 -25 -12 -52 -14 -60 -24 -103 -38 -166
-51 -219 -9 -36 -17 -72 -19 -80 -2 -9 -40 -160 -85 -336 -44 -176 -83 -328
-85 -338 -2 -9 -6 -21 -9 -25 -3 -5 -7 -20 -10 -35 -2 -14 -30 -120 -61 -234
-31 -114 -59 -215 -61 -223 -2 -8 -15 -55 -30 -105 -44 -155 -69 -126 241
-284 149 -76 324 -165 391 -199 66 -34 126 -62 132 -62 6 0 12 -3 14 -8 2 -4
118 -65 258 -135 455 -228 685 -347 674 -347 -9 0 -398 192 -479 237 -11 6
-42 22 -70 34 -27 13 -52 26 -55 29 -3 3 -207 106 -453 230 -247 124 -508 255
-580 292 l-132 66 -8 -26 c-4 -15 -9 -36 -12 -47 -2 -11 -21 -76 -41 -145 -19
-69 -37 -132 -39 -140 -2 -8 -13 -45 -24 -82 -11 -38 -17 -68 -14 -68 3 0 1
-6 -5 -12 -8 -11 -18 -44 -27 -88 0 -3 -6 -23 -13 -45 -7 -22 -18 -58 -24 -80
-6 -22 -13 -47 -16 -55 -3 -8 -6 -22 -6 -30 -1 -8 -4 -19 -7 -25 -4 -5 -14
-41 -24 -80 -9 -38 -22 -76 -27 -82 -6 -7 -8 -13 -5 -13 3 0 -3 -30 -14 -67
-11 -38 -22 -88 -24 -113 -4 -52 -3 -45 -50 -220 -31 -117 -58 -218 -70 -270
-2 -8 -13 -51 -25 -95 -25 -93 -29 -111 -36 -145 -3 -14 -12 -52 -21 -85 -8
-33 -17 -71 -19 -84 -3 -12 -12 -53 -20 -90 -22 -93 -23 -99 -28 -121 -6 -25
-82 -410 -101 -513 -9 -43 -13 -82 -10 -87 3 -5 1 -11 -5 -15 -6 -4 -8 -10 -6
-14 3 -4 1 -25 -4 -47 -5 -21 -12 -64 -15 -95 -3 -31 -8 -67 -10 -80 -3 -13
-8 -44 -10 -69 -3 -25 -8 -59 -10 -75 -2 -17 -7 -60 -10 -95 -3 -36 -8 -76
-10 -90 -2 -14 -7 -68 -11 -120 -4 -52 -8 -113 -10 -135 -29 -363 -18 -1044
21 -1305 2 -14 6 -52 9 -85 3 -33 8 -71 11 -85 2 -14 6 -43 9 -66 2 -22 7 -56
10 -75 11 -63 16 -94 27 -159 12 -74 52 -273 74 -370 9 -36 18 -78 20 -93 3
-16 7 -33 10 -38 4 -5 8 -17 10 -26 2 -10 13 -52 24 -93 12 -41 24 -86 27
-100 6 -29 32 -111 86 -270 21 -63 41 -122 43 -130 2 -8 18 -51 35 -95 17 -44
35 -91 39 -105 46 -140 321 -709 414 -857 15 -24 27 -45 27 -48 0 -4 11 -21
25 -39 14 -18 25 -37 25 -43 0 -5 13 -27 30 -49 16 -21 30 -42 30 -46 0 -4 20
-36 45 -72 25 -37 45 -71 45 -76 0 -6 4 -10 8 -10 4 0 16 -15 27 -32 10 -18
27 -42 37 -52 10 -11 18 -25 18 -32 0 -7 3 -14 8 -16 4 -1 40 -48 81 -103 41
-55 77 -102 80 -105 3 -3 18 -21 32 -40 15 -19 35 -45 45 -57 11 -12 26 -30
34 -40 118 -144 189 -222 375 -408 197 -196 284 -273 515 -458 165 -132 472
-334 690 -455 52 -29 339 -174 350 -177 8 -3 43 -17 87 -37 203 -89 606 -226
743 -252 14 -2 32 -7 40 -10 8 -3 26 -8 40 -10 14 -3 70 -15 125 -26 55 -12
118 -23 140 -26 22 -3 47 -7 55 -10 8 -3 35 -8 60 -10 25 -3 56 -7 70 -10 14
-2 50 -7 80 -9 30 -3 65 -7 77 -9 126 -25 798 -26 933 -1 14 2 52 6 85 9 59 5
115 12 165 22 14 3 41 7 60 9 88 9 423 84 545 122 243 74 478 159 624 225 78
35 343 167 396 196 181 102 202 114 365 224 183 122 370 257 400 288 3 3 46
39 95 80 132 110 119 98 316 286 130 123 346 362 474 524 32 41 62 77 65 80 8
7 183 249 206 285 10 17 27 39 36 49 10 11 18 26 18 33 0 7 3 13 8 13 4 0 18
20 32 45 14 25 28 45 32 45 5 0 8 4 8 9 0 5 22 45 49 88 189 306 410 759 527
1083 19 52 38 104 43 115 8 16 41 113 46 135 1 3 4 12 8 20 8 21 58 182 62
200 2 8 17 62 33 120 44 157 94 365 107 440 3 19 11 55 16 80 6 25 12 54 14
65 9 69 17 112 20 125 2 8 7 38 10 65 3 28 8 61 11 75 3 14 7 39 8 55 4 32 13
113 21 180 16 131 16 132 31 370 17 278 7 955 -21 1440 -3 50 -7 124 -10 165
-8 166 -16 277 -20 320 -3 25 -8 83 -11 130 -3 47 -7 101 -8 120 -11 132 -18
210 -21 240 -2 19 -7 67 -10 105 -3 39 -8 81 -10 95 -2 14 -6 57 -10 95 -7 87
-14 147 -22 205 -3 25 -7 56 -8 70 -4 48 -15 145 -20 170 -2 14 -7 52 -10 85
-3 33 -8 72 -10 86 -6 34 -13 91 -21 157 -3 29 -7 63 -10 75 -6 29 -15 94 -19
137 -2 19 -6 55 -10 80 -4 25 -8 59 -10 75 -1 17 -6 53 -9 80 -4 28 -9 64 -11
80 -11 88 -25 196 -31 240 -7 50 -8 64 -18 140 -14 108 -17 132 -21 155 -2 14
-6 52 -10 85 -3 33 -8 74 -10 90 -3 17 -7 46 -9 65 -7 55 -37 262 -42 290 -2
14 -6 45 -10 70 -3 25 -7 56 -10 70 -2 14 -7 45 -10 70 -3 25 -7 56 -9 70 -3
14 -10 63 -15 110 -6 47 -13 92 -15 100 -4 17 -16 99 -20 150 -4 44 -13 107
-19 140 -2 14 -7 48 -10 75 -4 28 -8 66 -11 85 -3 19 -7 53 -10 75 -2 22 -7
63 -11 90 -12 92 -13 100 -18 150 -6 51 -11 88 -21 161 -3 23 -7 59 -10 80 -2
21 -6 57 -9 79 -3 22 -10 87 -16 145 -6 58 -13 119 -16 135 -3 17 -7 46 -9 65
-1 19 -6 62 -10 95 -3 33 -8 78 -10 100 -2 22 -7 65 -11 95 -4 30 -7 72 -8 92
0 21 -3 38 -6 38 -3 0 -5 15 -6 33 0 17 -3 61 -7 97 -4 36 -9 83 -11 105 -2
22 -7 63 -10 90 -3 28 -8 79 -11 115 -3 36 -8 81 -11 100 -2 19 -6 64 -9 100
-3 36 -7 83 -9 105 -2 22 -8 76 -11 120 -4 44 -9 94 -10 110 -2 17 -6 66 -9
110 -3 44 -8 96 -11 115 -2 19 -7 71 -10 115 -3 44 -8 103 -10 130 -9 92 -16
179 -20 240 -3 33 -7 92 -9 130 -3 39 -8 99 -11 135 -3 36 -7 101 -10 145 -3
44 -7 105 -9 135 -3 30 -8 98 -11 150 -3 52 -8 127 -10 165 -13 192 -15 237
-20 325 -3 52 -7 129 -10 170 -3 41 -7 127 -10 190 -3 63 -8 160 -11 215 -3
55 -7 136 -8 180 -2 44 -7 152 -10 240 -16 382 -25 633 -31 875 -13 539 -16
705 -21 1220 -3 311 -6 585 -8 610 -5 70 -17 182 -22 210 -2 14 -7 45 -10 70
-12 84 -17 114 -35 192 -6 25 -12 57 -14 70 -4 22 -16 74 -30 128 -3 14 -8 36
-11 50 -2 14 -9 36 -14 50 -4 14 -18 59 -30 100 -12 41 -38 120 -57 175 -19
55 -36 105 -37 110 -4 15 -16 46 -31 80 -8 17 -17 42 -20 58 -4 15 -11 30 -16
33 -5 3 -9 14 -9 25 0 10 -4 19 -10 19 -5 0 -10 7 -10 15 0 25 -134 306 -210
440 -22 39 -43 77 -47 85 -24 51 -178 295 -200 318 -7 7 -13 17 -13 22 0 4
-18 31 -40 59 -22 28 -40 55 -40 60 0 5 -3 11 -7 13 -5 2 -40 44 -79 94 -102
130 -100 127 -199 238 -141 157 -323 332 -450 431 -21 17 -43 35 -49 40 -6 6
-38 30 -71 54 -33 25 -61 48 -63 53 -2 4 -7 8 -12 8 -5 0 -44 24 -87 54 -231
158 -594 338 -818 405 -22 7 -47 15 -55 18 -19 7 -27 10 -70 22 -19 5 -60 17
-90 25 -54 15 -185 45 -225 51 -11 2 -33 6 -50 9 -59 12 -81 15 -125 20 -25 3
-61 7 -80 10 -103 14 -206 19 -393 21 -114 1 -208 0 -210 -1z"/>
</g>
</svg>
