<?xml version="1.0" encoding="utf-8"?>
<svg xmlns="http://www.w3.org/2000/svg"
	xmlns:xlink="http://www.w3.org/1999/xlink"
	width="65px" height="85px" viewBox="0 0 13 17">
<filter filterUnits="objectBoundingBox" x="0.00" y="0.00" width="100.00" height="100.00" id="filter0">
<feFlood flood-color="rgb(255,255,255)" result="coFloodOut1"/>
<feComposite in="coFloodOut1" in2="SourceAlpha" operator="in" result="coOverlay1"/>
<feBlend in="coOverlay1" in2="SourceGraphic" mode="normal" result="colorOverlay1"/>
</filter>
<clipPath id="clip0"><path fillRule="evenodd" d="M 0.46 16.89C 0.61 16.96 0.77 17 0.93 17 1.09 17 1.25 16.96 1.4 16.89 1.4 16.89 12.53 9.26 12.53 9.26 12.82 9.1 13 8.81 13 8.5 13 8.18 12.82 7.89 12.53 7.73 12.53 7.73 1.4 0.11 1.4 0.11 1.11-0.05 0.75-0.05 0.46 0.11 0.18 0.26-0 0.55-0 0.87-0 0.87-0 16.12-0 16.12-0 16.44 0.18 16.73 0.46 16.89Z"/></clipPath><defs>
<symbol id="symbol0"><path fillRule="evenodd" d="M 0.46 16.89C 0.61 16.96 0.77 17 0.93 17 1.09 17 1.25 16.96 1.4 16.89 1.4 16.89 12.53 9.26 12.53 9.26 12.82 9.1 13 8.81 13 8.5 13 8.18 12.82 7.89 12.53 7.73 12.53 7.73 1.4 0.11 1.4 0.11 1.11-0.05 0.75-0.05 0.46 0.11 0.18 0.26-0 0.55-0 0.87-0 0.87-0 16.12-0 16.12-0 16.44 0.18 16.73 0.46 16.89Z"/></symbol></defs>
<g><path fillRule="evenodd" d="M 0.46 16.89C 0.61 16.96 0.77 17 0.93 17 1.09 17 1.25 16.96 1.4 16.89 1.4 16.89 12.53 9.26 12.53 9.26 12.82 9.1 13 8.81 13 8.5 13 8.18 12.82 7.89 12.53 7.73 12.53 7.73 1.4 0.11 1.4 0.11 1.11-0.05 0.75-0.05 0.46 0.11 0.18 0.26-0 0.55-0 0.87-0 0.87-0 16.12-0 16.12-0 16.44 0.18 16.73 0.46 16.89Z" fill="rgb(0,0,0)" filter="url(#filter0)"/><use xlink:href="#symbol0" x="0" y="0" width="13" height="17" fill="none" stroke="rgb(69,141,239)" stroke-width="4.00px" clip-path="url(#clip0)"/></g></svg>