<?xml version="1.0" encoding="utf-8"?>
<svg xmlns="http://www.w3.org/2000/svg"
	xmlns:xlink="http://www.w3.org/1999/xlink"
	width="110px" height="110px" viewBox="0 0 22 22">
<path fillRule="evenodd" d="M 11-0C 4.95-0 0 4.95 0 11 0 17.05 4.95 22 11 22 17.05 22 22 17.05 22 11 22 4.95 17.05-0 11-0ZM 16.5 14.96C 16.5 14.96 14.96 16.5 14.96 16.5 14.96 16.5 11 12.54 11 12.54 11 12.54 7.04 16.5 7.04 16.5 7.04 16.5 5.5 14.96 5.5 14.96 5.5 14.96 9.46 11 9.46 11 9.46 11 5.5 7.04 5.5 7.04 5.5 7.04 7.04 5.5 7.04 5.5 7.04 5.5 11 9.46 11 9.46 11 9.46 14.96 5.5 14.96 5.5 14.96 5.5 16.5 7.04 16.5 7.04 16.5 7.04 12.54 11 12.54 11 12.54 11 16.5 14.96 16.5 14.96Z" fill="rgb(208,208,208)"/></svg>