<svg width="38" height="39" viewBox="0 0 38 39" fill="none" xmlns="http://www.w3.org/2000/svg">
<path d="M23.1714 20.5383L23.1654 20.5883C21.6994 19.8577 21.5461 19.7603 21.3567 20.0443C21.2254 20.241 20.8427 20.687 20.7274 20.819C20.6107 20.949 20.4947 20.959 20.2967 20.869C20.0967 20.769 19.4547 20.559 18.6948 19.879C18.1028 19.349 17.7054 18.699 17.5881 18.499C17.3928 18.1617 17.8014 18.1137 18.1734 17.4097C18.2401 17.2697 18.2061 17.1597 18.1568 17.0603C18.1068 16.9603 17.7088 15.9803 17.5421 15.5897C17.3821 15.2003 17.2174 15.2497 17.0941 15.2497C16.7101 15.2163 16.4294 15.2217 16.1821 15.479C15.1061 16.6617 15.3774 17.8817 16.2981 19.179C18.1074 21.547 19.0714 21.983 20.8341 22.5883C21.3101 22.7397 21.7441 22.7183 22.0874 22.669C22.4701 22.6083 23.2654 22.1883 23.4314 21.7183C23.6014 21.2483 23.6014 20.8583 23.5514 20.7683C23.5021 20.6783 23.3714 20.6283 23.1714 20.5383Z" fill="white"/>
<path d="M25.18 13.2996C20.054 8.34429 11.5707 11.9383 11.5673 18.9289C11.5673 20.3263 11.9333 21.6889 12.6307 22.8923L11.5 27.0003L15.7233 25.8989C20.9933 28.7456 27.4973 24.9656 27.5 18.9329C27.5 16.8156 26.6733 14.8229 25.17 13.3256L25.18 13.2996ZM26.168 18.9109C26.164 23.9996 20.578 27.1776 16.16 24.5803L15.92 24.4376L13.42 25.0876L14.09 22.6576L13.9307 22.4076C11.1813 18.0309 14.34 12.311 19.548 12.311C21.3173 12.311 22.978 13.001 24.2286 14.2509C25.4786 15.4903 26.168 17.1509 26.168 18.9109Z" fill="white"/>
<path fill-rule="evenodd" clip-rule="evenodd" d="M0 19.5C0 9.00659 8.50659 0.5 19 0.5C29.4934 0.5 38 9.00659 38 19.5C38 23.4408 36.7986 27.1055 34.742 30.1422C34.2774 30.8281 33.3448 31.0076 32.6589 30.5431C31.9729 30.0785 31.7935 29.1459 32.258 28.46C33.989 25.9041 35 22.8224 35 19.5C35 10.6634 27.8366 3.5 19 3.5C10.1634 3.5 3 10.6634 3 19.5C3 28.3366 10.1634 35.5 19 35.5C22.0116 35.5 24.8245 34.6694 27.2275 33.2256C27.9376 32.799 28.8591 33.0288 29.2858 33.7389C29.7124 34.449 29.4826 35.3705 28.7725 35.7972C25.9161 37.5134 22.5709 38.5 19 38.5C8.50659 38.5 0 29.9934 0 19.5Z" fill="#6FBDFC"/>
</svg>
