<svg xmlns="http://www.w3.org/2000/svg" width="100" height="100" viewBox="0 0 13.59 14">
    <defs>
        <style>
            .cls-1 {
            fill: #ccc;
            fill-rule: evenodd;
            }
        </style>
    </defs>
    <path id="Forma_1_копия_17" data-name="Forma 1 копия 17" class="cls-1"
          d="M1482.4,570.853l-6-5.845a1.164,1.164,0,0,0-.84-0.341,1.141,1.141,0,0,0-.83.341l-0.69.673a1.109,1.109,0,0,0,0,1.617l2.7,2.639h-6.49a1,1,0,0,0-.78.337,1.181,1.181,0,0,0-.3.813v1.149a1.181,1.181,0,0,0,.3.813,1,1,0,0,0,.78.336h6.49l-2.7,2.631a1.129,1.129,0,0,0,0,1.634l0.69,0.674a1.216,1.216,0,0,0,1.67,0l6-5.845a1.087,1.087,0,0,0,.34-0.818A1.04,1.04,0,0,0,1482.4,570.853Z"
          transform="translate(-1469.16 -564.656)"/>
</svg>
