<svg viewBox="0 0 256 256" xmlns="http://www.w3.org/2000/svg"><path d="M159.9 234.9c-4.9 0-8.9 4-8.9 8.9s4 8.9 8.9 8.9 8.9-4 8.9-8.9c0-5-4-8.9-8.9-8.9zM43.9 234.9c-4.9 0-8.9 4-8.9 8.9s4 8.9 8.9 8.9 8.9-4 8.9-8.9c0-5-3.9-8.9-8.9-8.9zM44.4 164.5h132.7l3.4-.3L242.7 18c1.1-2.6-.1-5.5-2.7-6.6-2.6-1.1-5.5.1-6.6 2.7l-59.6 140.4H43.5c-10.7 1.3-20.4 7.8-25.9 17.2-3.5 6-5.1 12.9-4.6 19.8 1.2 18.3 17 32.6 35.9 32.6h137.7c2.8 0 5.1-2.3 5.1-5.1s-2.3-5.1-5.1-5.1H48.9c-13.6 0-25-10.2-25.8-23.2-.3-5 .8-9.8 3.3-14.1 3.8-6.5 10.5-11 18-12.1z"/><path d="M39.4 63.8h4.8c4.2 21.8 6.5 44.4 6.7 67.2.1 5.7 4.7 10.3 10.4 10.3h92c5.7 0 10.3-4.6 10.4-10.3.2-22.8 2.5-45.4 6.7-67.2h4.8c2.8 0 5.1-2.3 5.1-5.1s-2.3-5.1-5.1-5.1h-26.7l-16.4-47c-.9-2.6-3.8-4-6.4-3.1-2.6.9-4 3.8-3.1 6.4l15.2 43.7H76.7l18-43.4c1.1-2.6-.1-5.5-2.7-6.6-2.6-1.1-5.5.1-6.6 2.7L66.1 53c-.1.3-.1.5-.2.8H39.4c-2.8 0-5.1 2.3-5.1 5.1.1 2.7 2.3 4.9 5.1 4.9zm120.8 0c-4.1 21.9-6.4 44.4-6.8 67.4l-92.3-.2c-.2-22.7-2.5-45.3-6.6-67.1h105.7z"/><path d="M80.4 119.6c2.8 0 5.1-2.3 5.1-5.1v-34c0-2.8-2.3-5.1-5.1-5.1s-5.1 2.3-5.1 5.1v34.1c.1 2.8 2.4 5 5.1 5zM107.3 119.6c2.8 0 5.1-2.3 5.1-5.1v-34c0-2.8-2.3-5.1-5.1-5.1s-5.1 2.3-5.1 5.1v34.1c.1 2.8 2.4 5 5.1 5zM134.2 119.6c2.8 0 5.1-2.3 5.1-5.1v-34c0-2.8-2.3-5.1-5.1-5.1s-5.1 2.3-5.1 5.1v34.1c.1 2.8 2.3 5 5.1 5z"/></svg>