<svg xmlns="http://www.w3.org/2000/svg" width="30" height="16"><path d="M29.48 8.64c-.06.08-1.51 1.87-4 3.68C22.15 14.73 18.52 16 15 16c-3.52 0-7.15-1.27-10.48-3.68-2.49-1.81-3.94-3.6-4-3.68L0 8l.52-.64c.06-.08 1.51-1.87 4-3.68C7.85 1.27 11.47 0 15 0c3.52 0 7.15 1.27 10.48 3.68 2.49 1.81 3.94 3.6 4 3.68L30 8l-.52.64zM15 2.4c-1.5 0-2.87.57-3.89 1.51l-.87-.97c-1.77.65-3.29 1.56-4.43 2.38A21.31 21.31 0 0 0 2.74 8c.6.64 1.66 1.67 3.07 2.68 1.14.82 2.66 1.73 4.43 2.38A6.828 6.828 0 0 1 8 8c0-.56.06-1.1.19-1.62l1.3.22c-.12.45-.18.92-.18 1.4 0 3.09 2.55 5.6 5.69 5.6 3.14 0 5.69-2.51 5.69-5.6S18.14 2.4 15 2.4zm9.19 2.92c-1.14-.82-2.66-1.73-4.43-2.38A6.828 6.828 0 0 1 22 8c0 2-.86 3.8-2.24 5.06 1.77-.65 3.29-1.56 4.43-2.38A21.31 21.31 0 0 0 27.26 8c-.6-.64-1.66-1.67-3.07-2.68zM15 11.73c-2.09 0-3.79-1.67-3.79-3.73 0-.38.06-.74.17-1.09l2.86.48-1.86-2.08A3.81 3.81 0 0 1 15 4.27c2.09 0 3.79 1.67 3.79 3.73s-1.7 3.73-3.79 3.73z" fill="#474747" opacity=".8"/></svg>