<svg xmlns="http://www.w3.org/2000/svg" width="100" height="100" viewBox="0 0 17.813 18">
    <defs>
        <style>
            .cls-1 {
            fill: #fff;
            fill-rule: evenodd;
            }
        </style>
    </defs>
    <path id="logo" class="cls-1"
          d="M651.4,2749.36h-7.987a4.942,4.942,0,0,0-4.919,4.96v8.07a4.942,4.942,0,0,0,4.919,4.96H651.4a4.942,4.942,0,0,0,4.919-4.96v-8.07A4.942,4.942,0,0,0,651.4,2749.36Zm3.338,13.03a3.364,3.364,0,0,1-3.338,3.37h-7.987a3.364,3.364,0,0,1-3.338-3.37v-8.07a3.357,3.357,0,0,1,3.338-3.37H651.4a3.356,3.356,0,0,1,3.337,3.37v8.07h0Zm-7.332-8.67a4.635,4.635,0,1,0,4.594,4.63A4.619,4.619,0,0,0,647.4,2753.72Zm0,7.68a3.045,3.045,0,1,1,3.012-3.05A3.035,3.035,0,0,1,647.4,2761.4Zm4.786-9.04a1.18,1.18,0,0,0-1.16,1.17,1.191,1.191,0,0,0,.341.83,1.136,1.136,0,0,0,1.64,0,1.189,1.189,0,0,0,.339-0.83A1.176,1.176,0,0,0,652.19,2752.36Z"
          transform="translate(-638.5 -2749.34)"/>
</svg>
