<svg xmlns="http://www.w3.org/2000/svg" width="100" height="100" viewBox="0 0 21.5 10.5">
    <defs>
        <style>
            .cls-1 {
            fill: #fff;
            fill-rule: evenodd;
            }
        </style>
    </defs>
    <path id="Forma_1_копия_2" data-name="Forma 1 копия 2" class="cls-1"
          d="M951,932.854a0.553,0.553,0,0,0-.29-0.427l-0.022-.01a10.4,10.4,0,0,0-1.939-.615,0.7,0.7,0,0,0-.411.074l-2.411.864c-0.47-.245-2.254-1.171-4.355-2.255l4.967-2.645a0.377,0.377,0,0,0-.019-0.7l-1.674-.781a1.059,1.059,0,0,0-.592-0.066l-7.63,1.657c-1.57-.8-2.866-1.442-3.406-1.683a3.5,3.5,0,0,0-1.433-.267,3.169,3.169,0,0,0-2.241.658c-0.008.015-.554,1.652,2.6,3.484L943.9,936.2a2.318,2.318,0,0,0,.564.2,8.547,8.547,0,0,0,1.476.106h0.406v-0.017a1.177,1.177,0,0,0,.616-0.173l3.846-2.962,0.009-.011A0.553,0.553,0,0,0,951,932.854Zm-4.653,3.331h0Z"
          transform="translate(-929.5 -926)"/>
</svg>
