<?xml version="1.0" encoding="utf-8"?>
<svg xmlns="http://www.w3.org/2000/svg"
	xmlns:xlink="http://www.w3.org/1999/xlink"
	width="120px" height="120px" viewBox="0 0 24 24">
<circle cx="11.50" cy="12.50" r="11.50" fill="#4780f0"/><path fillRule="evenodd" d="M 16.65 13.45C 16.65 13.45 12.87 13.45 12.87 13.45 12.87 13.45 12.87 17.21 12.87 17.21 12.87 17.63 12.53 17.97 12.11 17.97 11.7 17.97 11.36 17.63 11.36 17.21 11.36 17.21 11.36 13.45 11.36 13.45 11.36 13.45 7.58 13.45 7.58 13.45 7.17 13.45 6.84 13.12 6.84 12.71 6.84 12.29 7.17 11.96 7.58 11.96 7.58 11.96 11.36 11.96 11.36 11.96 11.36 11.96 11.36 8.2 11.36 8.2 11.36 7.78 11.7 7.44 12.11 7.44 12.53 7.44 12.87 7.78 12.87 8.2 12.87 8.2 12.87 11.96 12.87 11.96 12.87 11.96 16.65 11.96 16.65 11.96 17.06 11.96 17.39 12.29 17.39 12.71 17.39 13.12 17.06 13.45 16.65 13.45Z" fill="rgb(255,255,255)"/></svg>