<svg xmlns="http://www.w3.org/2000/svg" width="43" height="43" fill="none" viewBox="0 0 43 43">
  <path fill="#fff" d="M21.5 43C33.374 43 43 33.374 43 21.5S33.374 0 21.5 0 0 9.626 0 21.5 9.626 43 21.5 43z"/>
  <path fill="#0081F1" d="M9.838 21.035l20.73-7.993c.962-.347 1.802.235 1.49 1.69l.002-.002-3.53 16.628c-.26 1.18-.961 1.466-1.941.91l-5.375-3.96-2.593 2.497c-.287.286-.528.528-1.084.528l.382-5.47 9.962-9c.433-.38-.097-.596-.669-.216l-12.31 7.75-5.307-1.655c-1.152-.365-1.177-1.152.243-1.707z"/>
</svg>
