<svg id="Слой_1" xmlns="http://www.w3.org/2000/svg" viewBox="0 0 43.8 43.8"><style></style><circle cx="21.9" cy="21.9" r="21.9" fill="#de2910"/><path fill="#ffde00" d="M9.8 8.6l1.4 4.4h4.6l-3.7 2.7 1.4 4.3-3.7-2.7L6.1 20l1.4-4.3L3.8 13h4.6zM21.7 6.4l-.1 1.5 1.4.5-1.4.4-.1 1.5-.8-1.3-1.5.4 1-1.2-.8-1.2 1.4.5zM26.9 11.2l-.7 1.4 1 1-1.4-.2-.7 1.4-.3-1.5-1.5-.3 1.4-.7-.2-1.4 1 1zM25.3 17.3l.5 1.5h1.5l-1.2.9.4 1.4-1.2-.9-1.2.9.5-1.4-1.3-.9h1.6zM21.7 21.9l-.1 1.6 1.4.5-1.5.4v1.5l-.9-1.3-1.4.4.9-1.2-.8-1.2 1.4.5z"/></svg>