<svg id="Слой_1" xmlns="http://www.w3.org/2000/svg" viewBox="0 0 43.6 43.8"><style>.st0{fill:#fff}.st1{fill:#002a8f}</style><path class="st0" d="M9.8 35h29.4c1.9-2.5 3.3-5.5 3.9-8.7H21.3L9.8 35z"/><path class="st1" d="M39.2 35H9.8l-3.3 2.6c3.9 3.8 9.3 6.2 15.2 6.2 7.2-.1 13.5-3.5 17.5-8.8zM27 21.9l-5.7 4.4h21.9c.3-1.4.4-2.9.4-4.4s-.2-3-.4-4.4H21.3l5.7 4.4zM39.2 8.7C35.2 3.4 28.9 0 21.7 0 15.8 0 10.4 2.4 6.5 6.2l3.3 2.6 29.4-.1z"/><path class="st0" d="M21.3 17.5h21.9c-.7-3.2-2-6.2-3.9-8.7H9.8l11.5 8.7z"/><path d="M21.3 26.2l5.7-4.4-5.7-4.4L9.9 8.7 6.6 6.1C2.5 10.1 0 15.6 0 21.8c0 6.1 2.5 11.7 6.6 15.7l3.3-2.6 11.4-8.7zM3.1 20.8h3.7l1.1-3.5L9 20.8h3.7l-3 2.2 1.1 3.5-3-2.1-3 2.1L5.9 23l-2.8-2.2z" fill="#cf142b"/><path class="st0" d="M4.9 26.4l3-2.1 3 2.1-1.2-3.5 3-2.1H9l-1.1-3.5-1.1 3.5H3.1l3 2.1z"/></svg>