<svg id="Слой_1" xmlns="http://www.w3.org/2000/svg" viewBox="0 0 43.7 43.7">
  <style>
    .st3{fill:#006}
  </style>
  <path d="M21.9 43.7c8.8 0 16.4-5.2 19.9-12.8H2c3.4 7.6 11 12.8 19.9 12.8z" fill="#138808"/>
  <path d="M21.9 0C13 0 5.4 5.2 2 12.8h39.7C38.3 5.2 30.7 0 21.9 0z" fill="#f93"/>
  <path d="M0 21.9c0 3.3.7 6.3 2 9.1h39.7c1.3-2.8 2-5.9 2-9.1 0-3.3-.7-6.3-2-9.1H2c-1.3 2.7-2 5.8-2 9.1z" fill="#fff"/>
  <path class="st3" d="M28.2 19.5c-.2 0-.4-.1-.4-.2 0-.2.1-.3.2-.4.2 0 .3.1.4.2.1.2 0 .4-.2.4z"/>
  <circle class="st3" cx="28.6" cy="20.9" r=".3"/>
  <path class="st3" d="M28.5 23c-.2 0-.3-.2-.2-.4 0-.2.2-.3.4-.2.2 0 .3.2.2.4 0 .1-.2.2-.4.2z"/>
  <ellipse transform="rotate(-59.914 28.15 24.408)" class="st3" cx="28.2" cy="24.4" rx=".3" ry=".3"/>
  <path class="st3" d="M28.2 19.5c-.2 0-.4-.1-.4-.2 0-.2.1-.3.2-.4.2 0 .3.1.4.2.1.2 0 .4-.2.4z"/>
  <circle class="st3" cx="28.6" cy="20.9" r=".3"/>
  <path class="st3" d="M28.5 23c-.2 0-.3-.2-.2-.4 0-.2.2-.3.4-.2.2 0 .3.2.2.4 0 .1-.2.2-.4.2z"/>
  <ellipse transform="rotate(-59.914 28.15 24.408)" class="st3" cx="28.2" cy="24.4" rx=".3" ry=".3"/>
  <circle class="st3" cx="20.9" cy="15.1" r=".3"/>
  <path class="st3" d="M23 15.2c0 .2-.2.3-.4.2-.2 0-.3-.2-.2-.4 0-.2.2-.3.4-.2.1.1.3.2.2.4z"/>
  <ellipse transform="rotate(-60.079 24.41 15.567)" class="st3" cx="24.4" cy="15.6" rx=".3" ry=".3"/>
  <ellipse transform="rotate(-44.903 25.952 16.442)" class="st3" cx="26" cy="16.4" rx=".3" ry=".3"/>
  <ellipse transform="rotate(-30.021 27.215 17.686)" class="st3" cx="27.2" cy="17.7" rx=".3" ry=".3"/>
  <path class="st3" d="M27.1 26.2c-.1-.1-.1-.3 0-.5.1-.1.3-.1.5 0 .1.1.1.3 0 .5-.2.1-.4.1-.5 0z"/>
  <ellipse transform="rotate(-30.129 26.034 27.216)" class="st3" cx="26" cy="27.2" rx=".3" ry=".3"/>
  <ellipse transform="rotate(-14.798 24.512 28.118)" class="st3" cx="24.5" cy="28.1" rx=".3" ry=".3"/>
  <ellipse class="st3" cx="22.8" cy="28.6" rx=".3" ry=".3"/>
  <path class="st3" d="M20.7 28.5c0-.2.2-.3.4-.2.2 0 .3.2.2.4 0 .2-.2.3-.4.2-.1 0-.2-.2-.2-.4z"/>
  <ellipse transform="rotate(-59.861 19.311 28.154)" class="st3" cx="19.3" cy="28.2" rx=".3" ry=".3"/>
  <path class="st3" d="M17.5 27.1c.1-.1.3-.1.5 0 .1.1.1.3 0 .5-.1.1-.3.1-.5 0-.1-.2-.1-.4 0-.5z"/>
  <ellipse transform="rotate(-29.969 16.506 26.036)" class="st3" cx="16.5" cy="26" rx=".3" ry=".3"/>
  <ellipse transform="rotate(-14.928 15.608 24.508)" class="st3" cx="15.6" cy="24.5" rx=".3" ry=".3"/>
  <circle class="st3" cx="15.1" cy="22.8" r=".3"/>
  <ellipse transform="rotate(-75.155 15.121 21.026)" class="st3" cx="15.1" cy="21" rx=".3" ry=".3"/>
  <path class="st3" d="M15.7 19c.2.1.2.3.1.4-.1.2-.3.2-.4.1-.2-.1-.2-.3-.1-.4.1-.1.3-.2.4-.1z"/>
  <ellipse transform="rotate(-45.114 16.44 17.77)" class="st3" cx="16.4" cy="17.8" rx=".3" ry=".3"/>
  <ellipse transform="rotate(-30.088 17.687 16.508)" class="st3" cx="17.7" cy="16.5" rx=".3" ry=".3"/>
  <path class="st3" d="M19.5 15.5c0 .2-.1.3-.2.4-.2 0-.4-.1-.4-.2 0-.2.1-.3.2-.4.2 0 .4.1.4.2zM21.7 21.8l.2-2.6-.2-4.1-.2 4.1zM21.7 21.8l.9-2.5.8-4-1.2 3.9zM21.7 21.8l1.5-2.2 1.9-3.6-2.2 3.4zM21.7 21.8l2.1-1.7 2.7-3-3 2.7zM21.7 21.8l2.4-1.1 3.4-2.2-3.6 1.8zM21.7 21.8l2.7-.5 3.8-1.2-3.9.8zM21.7 21.8l2.7.2 4.1-.2-4.1-.2zM21.7 21.8l2.6.9 3.9.9-3.8-1.3zM21.7 21.8l2.3 1.6 3.6 1.8-3.5-2.2zM21.7 21.8l1.8 2.1 3 2.7-2.7-3zM21.7 21.8l1.2 2.5 2.2 3.4-1.9-3.6zM21.7 21.8l.5 2.7 1.3 3.8-.9-3.9zM21.7 21.8l-.2 2.7.2 4.1.2-4.1zM21.7 21.8l-.9 2.6-.8 4 1.2-3.9zM21.7 21.8l-1.5 2.3-1.8 3.6 2.2-3.4zM21.7 21.8l-2 1.8-2.7 3 3-2.7zM21.7 21.8L19.3 23l-3.4 2.2 3.6-1.8zM21.7 21.8l-2.6.6-3.9 1.2 4-.9zM21.7 21.8l-2.7-.2-4 .3 4 .1zM21.7 21.8l-2.5-.8-4-.9 3.9 1.2zM21.7 21.8l-2.2-1.5-3.6-1.8 3.4 2.2zM21.7 21.8l-1.7-2-3.1-2.7 2.8 3zM21.7 21.8l-1.2-2.4-2.2-3.4 1.9 3.6zM21.7 21.8l-.5-2.6-1.2-3.9.8 4z"/>
  <g>
    <path class="st3" d="M23.8 14.5c-4.1-1.1-8.3 1.3-9.4 5.4-1.1 4.1 1.3 8.3 5.4 9.4 4.1 1.1 8.3-1.3 9.4-5.4 1.1-4.1-1.3-8.3-5.4-9.4zm-3.7 13.9c-3.6-1-5.8-4.7-4.8-8.3 1-3.6 4.7-5.8 8.3-4.8 3.6 1 5.8 4.7 4.8 8.3-1 3.6-4.7 5.8-8.3 4.8z"/>
    <ellipse transform="rotate(-74.984 21.86 21.86)" class="st3" cx="21.9" cy="21.9" rx="1.4" ry="1.4"/>
  </g>
  <ellipse transform="rotate(-60.079 24.41 15.567)" class="st3" cx="24.4" cy="15.6" rx=".3" ry=".3"/>
  <ellipse transform="rotate(-44.903 25.952 16.442)" class="st3" cx="26" cy="16.4" rx=".3" ry=".3"/>
  <ellipse transform="rotate(-30.021 27.215 17.686)" class="st3" cx="27.2" cy="17.7" rx=".3" ry=".3"/>
  <path class="st3" d="M27.1 26.2c-.1-.1-.1-.3 0-.5.1-.1.3-.1.5 0 .1.1.1.3 0 .5-.2.1-.4.1-.5 0z"/>
  <ellipse transform="rotate(-30.129 26.034 27.216)" class="st3" cx="26" cy="27.2" rx=".3" ry=".3"/>
  <ellipse transform="rotate(-14.798 24.512 28.118)" class="st3" cx="24.5" cy="28.1" rx=".3" ry=".3"/>
  <ellipse class="st3" cx="22.8" cy="28.6" rx=".3" ry=".3"/>
  <path class="st3" d="M20.7 28.5c0-.2.2-.3.4-.2.2 0 .3.2.2.4 0 .2-.2.3-.4.2-.1 0-.2-.2-.2-.4z"/>
  <ellipse transform="rotate(-59.861 19.311 28.154)" class="st3" cx="19.3" cy="28.2" rx=".3" ry=".3"/>
  <path class="st3" d="M17.5 27.1c.1-.1.3-.1.5 0 .1.1.1.3 0 .5-.1.1-.3.1-.5 0-.1-.2-.1-.4 0-.5z"/>
  <ellipse transform="rotate(-29.969 16.506 26.036)" class="st3" cx="16.5" cy="26" rx=".3" ry=".3"/>
  <ellipse transform="rotate(-14.928 15.608 24.508)" class="st3" cx="15.6" cy="24.5" rx=".3" ry=".3"/>
  <circle class="st3" cx="15.1" cy="22.8" r=".3"/>
  <ellipse transform="rotate(-75.155 15.121 21.026)" class="st3" cx="15.1" cy="21" rx=".3" ry=".3"/>
  <path class="st3" d="M15.7 19c.2.1.2.3.1.4-.1.2-.3.2-.4.1-.2-.1-.2-.3-.1-.4.1-.1.3-.2.4-.1z"/>
  <ellipse transform="rotate(-45.114 16.44 17.77)" class="st3" cx="16.4" cy="17.8" rx=".3" ry=".3"/>
  <ellipse transform="rotate(-30.088 17.687 16.508)" class="st3" cx="17.7" cy="16.5" rx=".3" ry=".3"/>
  <path class="st3" d="M19.5 15.5c0 .2-.1.3-.2.4-.2 0-.4-.1-.4-.2 0-.2.1-.3.2-.4.2 0 .4.1.4.2z"/>
  <circle class="st3" cx="20.9" cy="15.1" r=".3"/>
</svg>
