<svg id="Слой_1" xmlns="http://www.w3.org/2000/svg" viewBox="0 0 43.7 43.8">
  <style>
    .st4{fill:#fece00}
  </style>
  <path d="M16.6 2.5h15.3C28.9.9 25.5 0 21.8 0c-3.6 0-7.1.9-10.1 2.5h2.1v38.8h-2.1c3 1.6 6.4 2.5 10.1 2.5 3.6 0 7.1-.9 10.1-2.5H16.6V2.5z" fill="#ffce00"/>
  <path d="M43.7 21.8c0-8.4-4.8-15.7-11.8-19.4H16.6v38.8h15.3c7-3.6 11.8-10.9 11.8-19.4z" fill="#9c1e3d"/>
  <path d="M4.2 34.7V9C1.6 12.6 0 17 0 21.9c0 4.8 1.5 9.2 4.2 12.8z" fill="#007229"/>
  <path d="M13.8 2.5h-2.1C8.7 4.1 6.1 6.3 4.1 9v25.7c2 2.7 4.6 5 7.6 6.5h2.1V2.5z" fill="#ff7300"/>
  <g>
    <path class="st4" d="M21.9 14.1c.1-.2.2-.5.4-.7v.2c-.1.7-.2 1.5-.2 2.3v6.2c-.4.2-.9.2-1.4.1v-.1-.5c0-.3 0-.5.1-.8 0-.2 0-.4.1-.7v-.5c0-.2 0-.4.1-.6.1-.5.1-1 .2-1.5v-.4c0-.1 0-.3.1-.4 0-.1 0-.2.1-.3v-.3c0-.1 0-.2.1-.3 0-.2.1-.3.1-.5s.1-.4.2-.6c0-.1.1-.2.1-.3v-.1-.2zM23.8 18.2c.5.2 1 .2 1.5.2h.8c.1 0 .3-.1.4-.1.2.1.4.2.5.4.1.1.1.3.1.4v.1c-.1-.1-.3-.1-.4-.1-.3-.1-.7 0-1 .1v-.4h-.1c-.3.1-.7.2-1.1.1-.3-.1-.6-.4-.7-.7z"/>
    <path class="st4" d="M19.6 21.8c.1-.2.4-.3.6-.3.1 0 .2.1.2.1v.2l-.1.1c0 .1 0 .1.1.1.2.2.6.3.9.3.3 0 .7-.1 1-.3-.1-.1-.1-.2-.1-.4.2-.2.6 0 .7.2v.2c-.2.3-.5.4-.8.5-.6.1-1.2.1-1.7-.1-.3-.1-.5-.2-.7-.4-.1.1-.1-.1-.1-.2zM22.6 22.9c.2 0 .5 0 .7.1.3.2.5.5.6.8.1.2.1.4.2.5 0 .1.1.2.1.3.1.2.2.4.4.6.3.3.6.6.8 1 .1.2.1.3.1.5v.1c-.1.2-.3.3-.5.3-.4 0-.7-.3-.9-.5s-.4-.4-.5-.6l-.1-.1v.2s0 .1-.1.1c-.1.1-.2.1-.3 0-.2-.1-.3-.1-.5-.3.1-.1.2-.2.2-.3s.1-.1.1-.2v-.2c0-.1 0-.1-.1-.2l-.3-.6c.1-.1.2-.1.2-.2s-.1-.2-.2-.3c0 0 .1-.1.2-.1v-.2c0-.1-.1-.1-.1-.1.1 0 .1-.1.2-.1 0-.1 0-.3-.1-.4h.1c-.2 0-.2-.1-.2-.1zM20.1 23c.2-.1.3-.1.5 0 .2 0 .5.1.7.1s.5-.1.7-.1c.1 0 .2 0 .2.1v.1c-.2.1-.4.2-.6.2h-1c-.2 0-.4-.1-.5-.2V23zM20.1 23.6c.1 0 .1-.1.2-.1.3 0 .5.1.7.1.3 0 .6-.1.8-.1.1 0 .2.1.2.1-.1.1-.2.1-.2.2-.4.1-.7.1-1.1.1-.2 0-.5 0-.6-.3 0 .1 0 0 0 0zM20.9 24.1c.4 0 .7-.1 1-.1H22.1v.1c-.2.2-.4.2-.6.3-.3.1-.6 0-1 0-.1 0-.2-.1-.3-.2v-.1h.7zM21.9 24.5h.3v.1c-.1.1-.2.1-.3.2-.3.1-.7.1-1.1.1-.2 0-.4 0-.5-.1-.1 0 0-.1 0-.1.3-.1.6 0 .9 0 .2-.1.4-.1.7-.2zM34.3 24.8c.4-.2.9-.3 1.3-.2.3 0 .5.2.6.4.1.1.1.2.1.3v.7c-.1.4-.2.7-.3 1v.1c0 .1 0 .1-.1.2.2 0 .3-.1.4-.2.2-.1.5-.1.7-.1-.2.4-.6.7-1 .9v.2c0 .1 0 .2-.1.3 0 .1-.1.3-.1.4 0 .1 0 .1-.1.2-.1.3-.2.6-.3 1h-1.8l.3-.6c-.2.2-.3.4-.5.6h-.6c.2-.2.4-.5.6-.7h-.1c-.2.3-.5.5-.9.7-.1 0-.2.1-.3.1v-.2c.1-.2.2-.5.4-.7s.5-.2.8-.2c.2 0 .4.1.6.2v-.1c0-.1.1-.2.1-.3v-.1c0-.1.1-.2.1-.3v-.2c0-.2 0-.5-.1-.7s-.2-.3-.3-.5c-.2-.3-.5-.5-.7-.8v-.1c0-.2-.1-.4.1-.6.4-.3.8-.6 1.2-.7z"/>
    <path class="st4" d="M20.1 25.1c.1 0 .1-.1.2-.1s.2 0 .3.1c.1 0 .1.2.2.2l.1.1c.2-.1.3-.3.5-.3s.3.1.4.3l.3-.3c.1-.1.2-.1.3-.1h.1s0 .1.1.1c0 .1.1.2 0 .3s-.2.2-.4.2h-.6c.2.1.2.3.2.5s-.1.3-.1.4c0 .2.3.3.5.3 0-.1-.1-.2-.1-.3v-.2c0-.1.1-.2.2-.2.3 0 .5.2.6.4v.2c-.1.2-.3.3-.5.3-.3.1-.6 0-.8 0v.2c.2 0 .4.1.5.3v.1c-.1.2-.3.1-.5.1v.4s-.1.1-.2.1c-.1-.1-.2-.2-.2-.3v-.1h-.1c-.1 0-.3-.1-.4-.1.1-.2.4-.3.5-.4v-.2h-.9c-.1 0-.3-.1-.3-.3v-.2-.1c0-.1.1-.2.2-.3.1-.1.3-.1.5 0 .1.1.1.3.1.4 0 .1-.1.2-.1.2h-.1c.3.1.6-.2.6-.4 0-.1-.1-.2-.1-.2v-.4c.1-.1.1-.2.2-.3-.3.1-.7.1-1-.1-.1-.1-.2-.2-.2-.3v-.2c-.1.3-.1.3 0 .2zM26.7 16.8c0-.1-.1-.1 0 0-.1-.1-.2-.1-.2 0v.4c0 .1.1.2.1.2l.1.1s.1 0 .1-.1v-.2-.2s0-.1-.1-.2zm13.1 10c-.2-.1-.3-.4-.4-.6v-.6c0-.2.1-.4.1-.6 0 0 0-.1.1-.1 0 0 0-.1.1-.1.1-.2.2-.5.3-.7.1-.3.3-.6.4-1 .1-.2.1-.4.2-.6.1-.3.1-.6.1-.9 0-.3-.2-.5-.4-.7-.1-.2-.3-.2-.5-.3.2-.2.4-.4.5-.7.2-.4.3-.8.2-1.2v-.1c-.1-.2-.1-.3-.3-.4-.3-.4-.7-.5-1.2-.7-.7-.2-1.5-.2-2.3-.2-.1 0-.2 0-.3.1-.4.1-.7.2-1.1.2-.2 0-.4-.1-.6-.2-.3-.2-.5-.4-.7-.6h-.1v.3c0 .1 0 .2-.1.4l-.3-.3c0-.1 0-.1-.1-.2v-.3c0-.1.1-.2.2-.3h.1c-.2-.1-.5-.2-.8-.1-.2.1-.3.3-.5.4v-.2c.1-.1.1-.3.2-.4.1-.2.2-.4.4-.5.2 0 .4.1.5.1.2.1.4.2.6.4h.1v-.9c.2.3.4.6.6.8l.1.1c0-.3.1-.5.1-.8h.1c.1.1.1.2.2.3v.3c-.1.1-.1.3-.2.4.2 0 .4 0 .6-.1s.2-.4.2-.5c.1 0 .2.1.2.2.2.2.4.4.6.5s.5.2.7.2l-.3-.6c.6.3 1.1.6 1.7.8.3.1.5.1.8-.1.1-.1.2-.3.2-.4 0-.3-.4-.5-.6-.4-.1.1-.2.2-.2.3v.3c-.2-.1-.3-.2-.5-.3-1-.6-2-1.1-3.1-1.5-.6-.2-1.1-.3-1.7-.2-.5.1-.9.2-1.3.5-.3.2-.6.5-.8.8-.1.3-.2.6-.1 1 0 .1 0 .2.1.3-.2.1-.3.3-.4.6v.4c0 .1.1.2.1.3l.1.1c0-.1.1-.2.1-.3.1-.2.2-.4.5-.6.1 0 .2-.1.3 0 .2.1.3.2.5.3s.3.2.5.2c.4.1.7.2 1.1.2h.6c.5 0 1 0 1.5-.1.4-.1.7-.3 1.1-.4.2-.1.4-.1.7 0 .4.1.8.5.9.9v1.1c-.3 0-.6 0-.8-.1-.2-.1-.3-.1-.5-.2-.3-.1-.6-.1-.8-.1-1 0-1.9.3-2.8.5-.2 0-.4.1-.7.1-.7.2-1.4.2-2.1.3-.2 0-.4.1-.7.1h.1c.1-.1.1-.2.2-.3-.1-.1-.1-.3-.2-.4 0 0-.1.1-.2.1h-.1c-.1 0-.2-.1-.2-.3-.1-.1-.2-.3-.2-.5-.1-.3-.2-.5-.2-.6l-.1 1-.7-1c0 .2.1.6.1.8v.1s-.1 0-.2-.1c-.1 0-.2-.1-.2-.1-.1-.1-.2-.1-.3-.2V19.8l-.1-.1c-.1-.1-.1-.2-.2-.2-.1-.2-.3-.3-.3-.3s.3.4.5.6c0 .1.1.1.1.1v-.1-.3-.5s.3.2.5.3c.1 0 .1.1.1.1 0-.1 0-.3-.1-.5 0-.2-.1-.4-.1-.4l.7 1 .1-1s.1.2.2.5.2.6.4.8c.1.1.2.2.2.3h.1c.1 0 .1 0 .1-.1l.2-1.8c-.1 0-.2-.1-.3-.2-.1-.1-.2-.2-.4-.3l-.5-.5v1.1l-.4-.3V18.3s0 .1-.1.1c0 0-.1 0-.2-.1-.1 0-.2-.1-.2-.2-.1-.1-.2-.2-.3-.2v.5s0 .1-.1.1c0 0-.1 0-.2-.1-.1 0-.2-.1-.2-.2-.1-.1-.2-.1-.2-.2 0 .1.1.1.1.2.1.2.2.4.2.5v.1c-.1 0-.1-.1-.3-.1l-.3-.3-.4-.4s.1.1.3.2c.2.1.3.3.5.4.1.1.2.1.2.1 0-.1-.1-.3-.2-.5s-.2-.3-.2-.3l.2.2c.1.1.2.2.4.3.1 0 .1.1.2.1v-.1-.2-.5l.2.2c.1.1.2.2.3.2s.1.1.1.1v-.1-.4l.4.4V17l.3.3c.2.2.4.4.6.5.1.1.2.1.3.2l.1-.6c-.1-.3-.2-.5-.3-.7.2-.1.4-.2.5-.4.1-.1.1-.3.1-.5v-.1c-.4.2-.9.4-1.3.3 0-.1-.1-.2-.1-.3-.2-.2-.4-.4-.6-.5v.5c0 .2-.1.4-.3.4-.1-.2-.2-.3-.3-.4-.2-.2-.4-.3-.7-.3v.6c-.1.2-.3.4-.5.4-.1-.2-.2-.3-.3-.4-.1-.1-.4-.2-.5-.1-.2 0-.4.2-.5.3.3 0 .7.2.8.5-.3 0-.6.1-.9.2l-1.2.3h-.2.1c.1-.1.2-.2.2-.4-.1-.1-.1-.1-.2-.1-.2 0-.5 0-.7.2v.4c.1.2.2.3.3.5.1.1.3.3.4.3.2-.1.3-.2.4-.2.1.2.2.4.4.6.2.1.4.2.6.2v-.5l.5.5c.2.1.3.3.4.4.1.1.1.2.2.3v.5c-.3-.1-.5-.2-.8-.2s-.5.1-.7.1v-.4c-.2 0-.3.1-.5.1h-.6c-.3 0-.6-.1-.8-.2.1.2.1.4.2.6 0 .2.1.4 0 .6l-.3.3c.2.1.3.1.5 0 .3-.1.5-.4.7-.6 0 .3-.1.7-.2 1h.1c.2-.1.3-.3.3-.5 0-.1 0-.2.1-.2v-.3h.3v.4c0 .1 0 .1.1.2l.3.3v-.4c0-.1.1-.2.1-.3.1-.1.2-.2.3-.2v.1c0 .1 0 .2-.1.3v.4h.2c.2-.1.3-.3.3-.4h.1c.1 0 .3.1.3.2v.6c-.3.1-.7.3-1 .5-.2.2-.5.3-.7.5-.4.3-.7.7-.9 1.1-.2.4-.2.9-.1 1.4V25.2c.1.2.2.3.3.5.2.2.4.4.6.7.3.3.7.5 1.1.8v-.5-.7-.8-.4c0 .2.1.5.1.7v.9c0 .1 0 .2.1.3 0 .2.1.4.1.5s.1.2.1.3c0 .2.1.4.1.6 0 .3.1.6 0 .9-.1.2-.2.5-.4.6s-.5 0-.8.1c-.2 0-.3 0-.5.1-.1.1-.2.3-.3.4v.2c0 .1 0 .2-.1.2h-.1c.2 0 .3 0 .5-.1s.4-.3.6-.5c0 .1-.1.2-.2.3v.2c.2 0 .3 0 .5-.1.3-.1.5-.4.7-.6v.1c-.1.2-.2.4-.3.5h2.2c.1 0 .3-.1.3-.2.1-.2-.1-.5-.1-.7 0-.1 0-.1-.1-.2v-.2c.2-.2.5-.3.7-.4.2-.1.3-.2.4-.4 0-.1.1-.2.1-.3-.1 0-.3 0-.4.1-.4.1-.7.2-1.1.4 0-.1.1-.1.1-.2.1-.1.1-.3.2-.4 0-.1 0-.1.1-.2 0-.1 0-.3.1-.4.3-.4.6-.7.8-1.1.3-.4.5-.8.7-1.3v-.1-.2c0-.1 0-.2.1-.2v.4c0 .1-.1.2-.1.3s-.1.2-.1.3v.1c-.1.3-.3.5-.4.7-.3.4-.6.7-.9 1v.2H29c.2 0 .3 0 .5-.1 1.3-.3 2.5-.8 3.6-1.5.3-.2.6-.3.9-.5.3-.2.6-.3.9-.4.4-.1.8-.2 1.2 0 .2.1.4.2.5.4.2.2.4.4.7.6.2.1.3.3.4.4.2.2.5.4.5.7V28.6c0 .2 0 .3-.1.5v.1c-.1.1-.4.1-.5 0-.3-.1-.6-.2-.8-.1-.3.1-.5.4-.6.7 0 .1-.1.2-.1.3v.3c.1 0 .2 0 .3-.1.1-.1.2-.2.3-.2 0 .1-.1.2-.1.3.2 0 .5 0 .7-.1.1-.1.2-.2.4-.3 0 .1-.1.3-.2.4.1 0 .2 0 .3.1.3 0 .5.1.8.1v-.4c.2 0 .3.1.4.2.3.1.6.1 1 0 .1 0 .1-.2.1-.3V30c0-.1 0-.2-.1-.3v-.2c0-.2-.1-.3-.1-.5s.1-.3.2-.5c-.4-.4-.6-.6-.6-.8.2 0 .5 0 .7-.1.3-.1.5-.3.6-.6-.4 0-.7 0-1-.2zm-12.9-9.3c0 .1-.1.1 0 0-.2.1-.2.1-.3 0-.1-.1-.1-.2-.1-.3V17v-.2c0-.1.1-.1.1-.1.1 0 .1.1.2.1.1.1.1.2.1.3v.2c.1 0 0 .1 0 .2zm-.2-1s.1 0 .2.1l.3.3c.3.2.6.4 1 .4-.1-.1-.3-.4-.3-.6l.4.2c.2.1.5.2.8.2h.2l-.2-.2c-.1-.1-.2-.2-.2-.3h.7c.3 0 .5 0 .6-.1-.1.1-.4.1-.6.1-.3 0-.6 0-.7-.1 0 .1.1.2.2.3l.2.2h-.2c-.4 0-1-.4-1.2-.5 0 .1.1.3.2.4l.2.2h-.1c-.7.3-1.5-.6-1.5-.6zm1.3 4.6c-.1 0-.3-.3-.4-.5-.1-.1-.1-.3-.2-.4v.5-.6l.2.4c.2.3.3.5.4.6 0-.2-.1-.7-.1-1v-.2.7c.1.4.2.5.1.5zm2.6 0c-.2 0-.4-.3-.6-.6-.1-.1-.1-.2-.2-.3.1.4.2 1 .2 1-.5-.1-.9-.8-1-1 0 .4.3.8.4.9l.1.1h-.1c-.1 0-.2-.1-.4-.2-.1-.1-.2-.3-.4-.4l-.4-.6.2.4c.1.2.3.5.5.6.1.1.2.2.3.2-.1-.1-.5-.5-.5-1V20v.1s0 .1.1.2.1.2.2.3c.2.2.4.5.7.6v-.5c0-.3-.1-.6-.2-.8 0 0 .2.3.3.5.4.4.6.7.8.7 0-.1 0-.1 0 0 .1-.2.2-.3.2-.4v-.1.1c0 .3-.2.4-.2.4z"/>
  </g>
  <path class="st4" d="M17.5 3.5c.1 0 .1-.1.2-.1.3.2.5.5.8.7.2-.3.6-.3 1-.3.2 0 .4.1.6.3.4.6.6 1.2.9 1.8.1.2.2.4.3.5v.1c-.3-.1-.6-.1-.9-.1-.5 0-1-.1-1.5-.2-.4-.1-.7-.3-.9-.7v-.7c0-.1 0-.1.1-.2v-.1c0-.1.1-.1.1-.2-.1-.4-.4-.6-.7-.8zM17.5 40.2c.1 0 .1.1.2.1.3-.2.5-.5.8-.7.2.3.6.3 1 .3.2 0 .4-.1.6-.3.4-.6.6-1.2.9-1.8.1-.2.2-.4.3-.5v-.1c-.3.1-.6.1-.9.1-.5 0-1 .1-1.5.2-.4.1-.7.3-.9.7v.7c0 .1 0 .1.1.2v.1c0 .1.1.1.1.2-.1.3-.4.6-.7.8z"/>
</svg>
