<svg id="Слой_1" xmlns="http://www.w3.org/2000/svg" viewBox="0 0 43.8 43.6">
  <style>
    .st0{fill:#fff}.st1{fill:#de1018}
  </style>
  <path class="st0" d="M42.6 29H1.2c.9 2.7 2.4 5.2 4.2 7.3h32.8c2-2.2 3.4-4.6 4.4-7.3z"/>
  <path class="st1" d="M38.3 36.3H5.5c3.5 4 8.4 6.7 13.9 7.3h5c5.5-.7 10.4-3.4 13.9-7.3zM21.9 0C15.5 0 9.7 2.8 5.7 7.1h32.4C34.1 2.7 28.3 0 21.9 0z"/>
  <path class="st0" d="M38.1 7.1H5.7c-1.9 2.1-3.4 4.6-4.4 7.3h41.1c-.9-2.7-2.4-5.2-4.3-7.3z"/>
  <path d="M43.8 21.8c0-2.6-.5-5.1-1.3-7.4H1.3C.5 16.7 0 19.2 0 21.8c0 2.5.4 4.9 1.2 7.1h41.3c.8-2.2 1.3-4.6 1.3-7.1z" fill="#00247d"/>
</svg>
