<svg xmlns="http://www.w3.org/2000/svg" width="100" height="100" viewBox="0 0 20 27.5">
    <defs>
        <style>
            .cls-1 {
            fill: #fff;
            fill-rule: evenodd;
            }
        </style>
    </defs>
    <path id="Forma_1_копия_18" data-name="Forma 1 копия 18" class="cls-1"
          d="M782.757,1720.9a2.612,2.612,0,0,0-2.391-1.5h-3.711l4.4-7.28a1.063,1.063,0,0,0,.011-1.08,1.1,1.1,0,0,0-.944-0.54H769.8a1.09,1.09,0,0,0-.968.59l-5.4,10.52a3.679,3.679,0,0,0,.147,3.66,3.788,3.788,0,0,0,3.24,1.79h3.8l-3.78,7.66a2.216,2.216,0,0,0,.717,2.84,2.288,2.288,0,0,0,2.957-.22q0.03-.03.057-0.06l8.415-9.57a1.059,1.059,0,0,0-.107-1.51,1.092,1.092,0,0,0-1.532.11l-8.382,9.52c-0.032.03-.069,0.04-0.137-0.01a0.1,0.1,0,0,1-.037-0.16l4.542-9.2a1.067,1.067,0,0,0-.055-1.04,1.094,1.094,0,0,0-.921-0.5h-5.538a1.6,1.6,0,0,1-1.389-.77,1.562,1.562,0,0,1-.062-1.57l5.1-9.94h7.737l-4.4,7.28a1.063,1.063,0,0,0-.011,1.08,1.076,1.076,0,0,0,.944.54h5.623a0.447,0.447,0,0,1,.34.75,1.06,1.06,0,0,0,.116,1.51,1.091,1.091,0,0,0,1.532-.11A2.564,2.564,0,0,0,782.757,1720.9Z"
          transform="translate(-763 -1710.5)"/>
</svg>
