<svg xmlns="http://www.w3.org/2000/svg" width="100" height="100" viewBox="0 0 21.625 21.594">
<defs>
    <style>
      .location-white {
        fill: #ffffff;
        fill-rule: evenodd;
      }
    </style>
  </defs>
  <path id="location-white" data-name="location-white" class="location-white" d="M741.519,44.834a0.845,0.845,0,0,0-.933-0.175l-9.366,4.092a0.843,0.843,0,0,0,.035,1.56l3.489,1.342,1.325,3.446a0.851,0.851,0,0,0,.805.583h0a0.844,0.844,0,0,0,.772-0.51l4.05-9.407A0.845,0.845,0,0,0,741.519,44.834Zm-4.6,7.77c-0.257-.669-0.531-1.383-0.733-1.906a0.84,0.84,0,0,0-.484-0.485l-1.921-.739L739.3,47.06Zm7.721-10.842a10.8,10.8,0,1,0-2.049,16.879,0.844,0.844,0,0,0-.875-1.443,9.191,9.191,0,1,1,2.854-2.742,0.844,0.844,0,0,0,1.4.938A10.772,10.772,0,0,0,744.638,41.761Z" transform="translate(-726.188 -38.594)"/>
</svg>
