<svg height="128" width="128" xmlns="http://www.w3.org/2000/svg"><path d="M41.789 113.963c-6.363 0-12.727-2.422-17.57-7.266-9.688-9.689-9.688-25.453.001-35.14l52.091-52.089c3.407-3.408 7.934-5.284 12.746-5.284s9.34 1.876 12.747 5.284l.082.085c3.361 3.359 5.238 7.886 5.238 12.699s-1.877 9.34-5.285 12.747L53.8 93.036l-.646.579c-3.891 3.84-10.179 3.824-14.048-.042l-.077-.077a9.896 9.896 0 0 1-2.916-7.042 9.9 9.9 0 0 1 2.921-7.044l24.965-24.964a2 2 0 1 1 2.828 2.828L41.862 82.238a5.926 5.926 0 0 0-1.749 4.217c0 1.591.621 3.088 1.749 4.217l.077.078c2.319 2.318 6.103 2.316 8.428-.006l48.644-48.573c2.652-2.652 4.113-6.175 4.113-9.919s-1.461-7.267-4.113-9.918l-.082-.086c-2.605-2.604-6.128-4.064-9.872-4.064s-7.267 1.46-9.918 4.112l-52.091 52.09c-8.129 8.128-8.129 21.354-.001 29.483 8.127 8.126 21.354 8.129 29.484 0l52.088-52.091a2 2 0 1 1 2.828 2.828l-52.088 52.091c-4.844 4.844-11.208 7.266-17.57 7.266z"/></svg>