<svg xmlns="http://www.w3.org/2000/svg" width="100" height="100" viewBox="0 0 18.44 18.438">
    <defs>
        <style>
            .cls-1 {
            fill: #f7f7f7;
            fill-rule: evenodd;
            }
        </style>
    </defs>
    <path id="Forma_1" data-name="Forma 1" class="cls-1"
          d="M1289.96,65.571a2.723,2.723,0,0,0-.84-1.874,6.676,6.676,0,0,0-2.65-1.762,2.972,2.972,0,0,0-3.05.865v0l-0.98.967a14.867,14.867,0,0,1-3.07-2.375l-0.09-.095a14.882,14.882,0,0,1-2.38-3.07l0.97-.974v0a2.959,2.959,0,0,0,.87-3.048,6.667,6.667,0,0,0-1.76-2.652,2.749,2.749,0,0,0-3.81-.137l-0.02.018-0.03.027a5.865,5.865,0,0,0-1.6,4.28c0.02,2.961,1.64,6.347,4.36,9.057a17.838,17.838,0,0,0,1.72,1.5,0.721,0.721,0,0,0,.88-1.143,15.977,15.977,0,0,1-1.59-1.379c-2.44-2.448-3.91-5.457-3.93-8.046a4.483,4.483,0,0,1,1.17-3.242l0.01,0a1.29,1.29,0,0,1,1.8.065c1.87,1.934,1.73,2.847.91,3.692l-1.34,1.345a0.722,0.722,0,0,0-.15.8,14.856,14.856,0,0,0,2.9,3.93l0.1,0.095a14.457,14.457,0,0,0,3.93,2.9,0.72,0.72,0,0,0,.8-0.147l1.34-1.335c0.85-.824,1.76-0.959,3.69.906a1.292,1.292,0,0,1,.07,1.8l-0.01.006a4.431,4.431,0,0,1-3.21,1.168h-0.03a9.315,9.315,0,0,1-3.55-.841,0.724,0.724,0,0,0-.95.376,0.716,0.716,0,0,0,.38.947,10.594,10.594,0,0,0,4.11.959h0.05a5.841,5.841,0,0,0,4.24-1.6,0.051,0.051,0,0,1,.02-0.028l0.02-.021A2.694,2.694,0,0,0,1289.96,65.571Z"
          transform="translate(-1271.53 -50.719)"/>
</svg>
