<svg xmlns="http://www.w3.org/2000/svg" width="100" height="100" viewBox="0 0 25 25">
<defs>
    <style>
      .cls-1 {
        fill: #fff;
        fill-rule: evenodd;
      }
    </style>
  </defs>
  <path id="Forma_1_копия_10" data-name="Forma 1 копия 10" class="cls-1" d="M878.44,541.229c0.733-1.742.742-2.988,0.026-3.7s-1.961-.714-3.713,0a10.312,10.312,0,0,0-3.024,1.826l-0.009.01-2.056,2.112-2.459-.47,0.332-.333a0.977,0.977,0,0,0-1.381-1.381l-1.27,1.27-1.781-.34,0.038-.037a0.977,0.977,0,0,0-1.381-1.382l-0.976.976-1.23-.235a2.933,2.933,0,0,0-2.559.747l-2.692,2.539a0.977,0.977,0,1,0,1.34,1.422l0.5-.475,7.319,3.635-4.242,4.274-1.814-.081h-0.047a4.291,4.291,0,0,0-3.1,1.328,0.976,0.976,0,0,0,.294,1.559l4.723,2.2,2.384,4.773a0.975,0.975,0,0,0,.729.53,1.011,1.011,0,0,0,.145.011,0.978,0.978,0,0,0,.707-0.3l0.066-.07a4.258,4.258,0,0,0,1.18-2.95V556.4l4.183-4.209,1.948,4.172a0.976,0.976,0,1,0,1.769-.827l-2.539-5.439a0.977,0.977,0,0,0-1.578-.275l-5.452,5.486a0.977,0.977,0,0,0-.284.689v2.687c0,0.051,0,.1,0,0.151l-1.658-3.32a0.984,0.984,0,0,0-.461-0.449l-3.222-1.5q0.075-.006.15-0.006l2.223,0.1a0.979,0.979,0,0,0,.737-0.288l5.485-5.527a0.99,0.99,0,0,0,.108-0.124l0.006-.007v0a0.968,0.968,0,0,0,.151-0.318,0.979,0.979,0,0,0,.022-0.395v0a0.017,0.017,0,0,0,0-.007,0.975,0.975,0,0,0-.4-0.643l0,0a0,0,0,0,1,0,0,0.993,0.993,0,0,0-.148-0.085l-7.865-3.907,0.673-.636a0.98,0.98,0,0,1,.853-0.248l10.49,2a0.978,0.978,0,0,0,1.011-.245l2.424-2.491a8.148,8.148,0,0,1,2.118-1.285,1.072,1.072,0,1,1,1.294,1.29,8.391,8.391,0,0,1-1.312,2.105l-0.006.007-2.361,2.41a0.977,0.977,0,0,0-.342.941l2.025,10.614a0.981,0.981,0,0,1-.248.854l-2.538,2.693a0.977,0.977,0,0,0,1.421,1.341L875.7,559a2.945,2.945,0,0,0,.746-2.561l-0.236-1.232,0.976-.976a0.977,0.977,0,0,0-1.381-1.382l-0.037.038-0.34-1.782,1.27-1.271a0.977,0.977,0,1,0-1.381-1.382l-0.332.333-0.468-2.45,2.079-2.123A10.589,10.589,0,0,0,878.44,541.229Z" transform="translate(-854 -537)"/>
</svg>
