<svg xmlns="http://www.w3.org/2000/svg" width="100" height="100" viewBox="0 0 26.5 26.5">
    <defs>
        <style>
            .cls-1 {
            fill: #fff;
            fill-rule: evenodd;
            }
        </style>
    </defs>
    <path id="Forma_1_копия_18" data-name="Forma 1 копия 18" class="cls-1"
          d="M944.119,1713.38a13.249,13.249,0,1,0-2.513,20.71,1.035,1.035,0,0,0-1.073-1.77,11.3,11.3,0,1,1,3.5-3.37,1.038,1.038,0,0,0,1.721,1.16A13.224,13.224,0,0,0,944.119,1713.38Zm-13.924,6.01a0.515,0.515,0,0,1,.518.51,1.035,1.035,0,1,0,2.07,0,2.588,2.588,0,0,0-5.176,0,1.036,1.036,0,1,0,2.071,0A0.515,0.515,0,0,1,930.2,1719.39Zm8.954,4.7a1.055,1.055,0,0,0-.809.39,5.226,5.226,0,0,1-7.184,0,1.021,1.021,0,0,0-.806-0.39,1.038,1.038,0,0,0-.8,1.7h0a5.373,5.373,0,0,0,2.069,1.56l0.027,1.76a3.107,3.107,0,0,0,3.1,3.06H934.8a3.113,3.113,0,0,0,3.059-3.15l-0.027-1.66a5.578,5.578,0,0,0,2.114-1.57h0a1.029,1.029,0,0,0,.241-0.66A1.041,1.041,0,0,0,939.149,1724.09Zm-3.654,5.7a1.037,1.037,0,0,1-1.777-.71l-0.018-1.17a6.993,6.993,0,0,0,1.05.07,8.2,8.2,0,0,0,1.019-.06l0.019,1.13A1.033,1.033,0,0,1,935.5,1729.79Zm6.449-9.89a1.032,1.032,0,0,0-1.035-1.03H937.8a1.035,1.035,0,1,0,0,2.07h3.105A1.04,1.04,0,0,0,941.944,1719.9Z"
          transform="translate(-921.5 -1709.5)"/>
</svg>
