<svg xmlns="http://www.w3.org/2000/svg" width="100" height="100" viewBox="0 0 20.812 15">
    <defs>
        <style>
            .cls-1 {
            fill: #fff;
            fill-rule: evenodd;
            }
        </style>
    </defs>
    <path id="logo" class="cls-1"
          d="M710.963,2751.98c-0.751-.92-2.137-1.29-4.784-1.29h-9.608c-2.707,0-4.117.4-4.865,1.37-0.729.95-.729,2.35-0.729,4.28v3.69c0,3.75.865,5.66,5.594,5.66h9.608c2.3,0,3.568-.33,4.39-1.14,0.844-.83,1.2-2.18,1.2-4.52v-3.69C711.773,2754.3,711.717,2752.89,710.963,2751.98Zm-6.635,6.72-4.362,2.33a0.583,0.583,0,0,1-.311.08,0.628,0.628,0,0,1-.348-0.1,0.678,0.678,0,0,1-.323-0.59v-4.65a0.69,0.69,0,0,1,.322-0.59,0.647,0.647,0,0,1,.658-0.02l4.363,2.32a0.69,0.69,0,0,1,.362.61A0.7,0.7,0,0,1,704.328,2758.7Z"
          transform="translate(-690.969 -2750.69)"/>
</svg>
