<svg xmlns="http://www.w3.org/2000/svg" xmlns:xlink="http://www.w3.org/1999/xlink" width="35" height="41"><defs><path id="a" d="M573 779.59v12.345c0 3.44-.95 6.904-2.748 10.018a1.494 1.494 0 0 1-2.08.545c-.721-.44-.958-1.4-.53-2.141 1.52-2.632 2.322-5.544 2.322-8.422v-11.324l-14.037-6.345-13.891 6.34v11.33c0 8.341 6.656 15.938 13.964 15.938 2.583 0 5.109-.869 7.303-2.513a1.49 1.49 0 0 1 2.12.344 1.593 1.593 0 0 1-.333 2.183c-2.717 2.036-5.86 3.112-9.09 3.112-2.306 0-4.562-.56-6.705-1.662-2-1.029-3.811-2.482-5.382-4.318-3.122-3.65-4.913-8.42-4.913-13.085V779.59c0-.618.354-1.178.903-1.428l15.406-7.033a1.48 1.48 0 0 1 1.225-.002l15.558 7.032c.552.25.908.811.908 1.431zm-7.627 3.468c.654.54.76 1.523.236 2.197l-9.518 12.244a2.897 2.897 0 0 1-4.288.242l-.006-.007-5.35-5.297a1.596 1.596 0 0 1-.04-2.21 1.487 1.487 0 0 1 2.145-.043l5.276 5.225 9.411-12.107a1.489 1.489 0 0 1 2.134-.244z"/></defs><g transform="translate(-538 -771)"><use fill="#4780f0" xlink:href="#a"/><use fill="#fff" fill-opacity="0" stroke="#5187f0" stroke-linecap="round" stroke-linejoin="round" stroke-miterlimit="50" xlink:href="#a"/></g></svg>