<svg xmlns="http://www.w3.org/2000/svg" viewBox="0 0 8.919 6.443"><defs><style>.cls-1{fill:#282828;}.cls-2{fill:#e5e5e5;}.cls-3{fill:#ce1126;}.cls-4{fill:none;}.cls-5{fill:#c09300;}</style></defs><title>Египет</title><g id="Слой_2" data-name="Слой 2"><g id="flags"><rect class="cls-1" y="4.295" width="8.919" height="2.148"/><rect class="cls-2" y="2.148" width="8.919" height="2.148"/><rect class="cls-3" width="8.919" height="2.148"/><polygon class="cls-4" points="4.679 3.821 4.66 3.866 4.686 3.865 4.72 3.857 4.679 3.821"/><polygon class="cls-4" points="4.538 3.937 4.708 3.935 4.721 3.872 4.687 3.88 4.515 3.886 4.469 3.93 4.495 3.972 4.538 3.937"/><path class="cls-4" d="M4.546,3.438l-.027.025.016.074A.958.958,0,0,1,4.546,3.438Z"/><polygon class="cls-4" points="4.601 3.673 4.551 3.608 4.583 3.755 4.601 3.673"/><path class="cls-4" d="M4.566,3.418a.32.32,0,0,1,.068.067c0-.083-.005-.122,0-.142A.836.836,0,0,1,4.566,3.418Z"/><path class="cls-4" d="M4.373,3.438a.919.919,0,0,1,.01.1L4.4,3.463Z"/><path class="cls-4" d="M4.717,3.476l-.009-.016c-.023-.041-.049-.085-.064-.108,0,.034,0,.106.006.154v.022l-.014-.017a.629.629,0,0,0-.075-.078,1.363,1.363,0,0,0-.014.148l.057.074.025-.116.06.065.027-.085L4.8,3.6,4.736,3.4Z"/><polygon class="cls-4" points="4.725 3.547 4.698 3.632 4.639 3.569 4.617 3.669 4.674 3.742 4.701 3.677 4.758 3.748 4.8 3.627 4.725 3.547"/><polygon class="cls-4" points="4.81 3.836 4.764 3.778 4.738 3.853 4.806 3.837 4.81 3.836"/><polygon class="cls-4" points="4.77 3.917 4.772 3.917 4.735 3.878 4.722 3.94 4.746 3.964 4.77 3.917"/><polygon class="cls-4" points="4.753 3.765 4.705 3.706 4.678 3.771 4.613 3.688 4.591 3.79 4.607 3.865 4.644 3.865 4.673 3.797 4.726 3.843 4.753 3.765"/><polygon class="cls-4" points="4.274 3.865 4.311 3.865 4.328 3.79 4.306 3.688 4.241 3.771 4.214 3.706 4.166 3.765 4.193 3.843 4.246 3.797 4.274 3.865"/><polygon class="cls-4" points="4.147 3.917 4.148 3.917 4.172 3.964 4.196 3.94 4.183 3.878 4.147 3.917"/><polygon class="cls-4" points="4.149 3.762 4.109 3.642 4.055 3.819 4.093 3.831 4.149 3.762"/><polygon class="cls-4" points="4.108 3.836 4.112 3.837 4.18 3.853 4.155 3.778 4.108 3.836"/><path class="cls-4" d="M4.341,2.693a.221.221,0,0,0,.053-.1l.013-.116.015,0L4.409,2.6a.227.227,0,0,1-.055.1l0,.048L4.416,2.7a.525.525,0,0,1,.017-.079.566.566,0,0,0,.009-.143h.015a.575.575,0,0,1-.01.148.512.512,0,0,0-.016.077l.019.024L4.473,2.7a.475.475,0,0,0,0-.081.5.5,0,0,1,.016-.136l.014,0a.5.5,0,0,0-.016.131.531.531,0,0,1,0,.08l.068.045L4.55,2.7a.212.212,0,0,1-.034-.1l0-.116h.015l0,.116a.207.207,0,0,0,.034.1.122.122,0,0,0,.087.038c-.014-.022-.044-.07-.061-.1a1,1,0,0,1-.018-.255.114.114,0,0,0-.017-.038l-.032-.014a.046.046,0,0,0-.037,0c-.018.011-.021.031-.044.028a.335.335,0,0,1-.086-.059l-.024,0c-.023,0-.042.025-.053.047a.108.108,0,0,1,.081,0,.129.129,0,0,1,.052.071H4.378a.223.223,0,0,1,0,.1.367.367,0,0,1-.043.124.479.479,0,0,1-.059.082v0h0l-.019.022a.159.159,0,0,0,.038-.008A.171.171,0,0,0,4.341,2.693Z"/><polygon class="cls-4" points="4.509 3.871 4.593 3.868 4.584 3.83 4.558 3.855 4.525 3.829 4.495 3.592 4.485 3.585 4.477 3.594 4.494 3.829 4.459 3.872 4.459 3.872 4.459 3.872 4.459 3.872 4.459 3.872 4.425 3.829 4.441 3.594 4.434 3.585 4.424 3.592 4.394 3.829 4.36 3.855 4.334 3.83 4.326 3.868 4.41 3.871 4.459 3.919 4.509 3.871"/><polygon class="cls-4" points="4.45 3.93 4.41 3.891 4.387 3.942 4.424 3.972 4.45 3.93"/><path class="cls-4" d="M4.373,3.937,4.4,3.885,4.23,3.88,4.2,3.872l.013.063ZM4.3,3.9l.051,0v.015l-.051,0Zm-.069,0,.05,0v.015l-.05,0Z"/><polygon class="cls-4" points="4.367 3.608 4.317 3.673 4.335 3.755 4.367 3.608"/><polygon class="cls-4" points="4.199 3.857 4.233 3.865 4.258 3.866 4.24 3.821 4.199 3.857"/><path class="cls-4" d="M4.129,3.914l.044-.047-.065-.015-.1-.025a.122.122,0,0,0-.062.028.134.134,0,0,0-.02.055l.038-.023Zm-.042-.042.05.01,0,.015-.05-.01ZM4,3.85l.05.01,0,.015L4,3.864Z"/><path class="cls-4" d="M4.78,3.931l-.03.059L4.711,3.95l-.168,0-.052.043-.032-.051-.032.051-.052-.043-.168,0-.039.039-.03-.059L3.972,3.9l-.047.029A.331.331,0,0,0,3.849,4s.019.017.028.022.031.019.035.031a.035.035,0,0,1,0,.025.017.017,0,0,0,0,.016.1.1,0,0,0,.049.027.42.42,0,0,0,.1.025c.054.006.39.017.4.017s.344-.011.4-.017a.421.421,0,0,0,.1-.025.1.1,0,0,0,.05-.027.017.017,0,0,0,0-.016.036.036,0,0,1,0-.025c0-.011.019-.021.035-.031S5.07,4,5.069,4a.333.333,0,0,0-.077-.069L4.946,3.9Z"/><path class="cls-4" d="M4.745,3.867l.044.047.16-.028.038.023a.134.134,0,0,0-.02-.055.12.12,0,0,0-.061-.028l-.1.025Zm.172-.017,0,.015-.05.01,0-.015Zm-.083.036-.05.01,0-.015.05-.01Z"/><polygon class="cls-4" points="4.16 3.748 4.218 3.677 4.245 3.742 4.301 3.669 4.279 3.569 4.221 3.632 4.194 3.547 4.119 3.627 4.16 3.748"/><polygon class="cls-4" points="4.825 3.831 4.864 3.819 4.81 3.642 4.769 3.762 4.825 3.831"/><path class="cls-4" d="M5.1,2.715a.167.167,0,0,0-.022-.092C5.054,2.6,5.034,2.6,5.033,2.6h0a.228.228,0,0,0-.1.011.315.315,0,0,1-.164.092.527.527,0,0,1-.1.01l.014.021.008.012H4.666a.207.207,0,0,1-.061-.01.151.151,0,0,1-.038-.022l.006.063-.091-.061-.023.028v0l-.012.009-.027-.035-.091.061.006-.063a.151.151,0,0,1-.038.022.207.207,0,0,1-.061.01H4.221l.012-.013.022-.025a.555.555,0,0,1-.1-.01.315.315,0,0,1-.164-.092.228.228,0,0,0-.1-.011h0s-.02,0-.044.025a.167.167,0,0,0-.022.092l.058-.029-.041,1.12.031-.028L3.91,2.709l.048.064-.014.933.038-.035.026-.886.061.052-.032.782.041-.038L4.1,2.859l.039.028h0V2.881h.005a1.648,1.648,0,0,0,.194-.044.439.439,0,0,0,.12-.058l0,0,0,0a.439.439,0,0,0,.12.058,1.648,1.648,0,0,0,.194.044h.005v.005h0l.039-.028.022.723.041.038L4.85,2.837l.061-.052.026.886.038.035-.014-.933.048-.064.043,1.068.031.028-.041-1.12Z"/><path class="cls-4" d="M4.2,3.518l.027.085.06-.065.026.116.057-.074a1.313,1.313,0,0,0-.014-.148.644.644,0,0,0-.075.078l-.014.017V3.506c0-.048.005-.12.005-.154-.014.023-.04.067-.064.108L4.2,3.476,4.183,3.4,4.12,3.6Z"/><path class="cls-4" d="M4.134,3.508l.045-.148v-.3c-.016-.063-.029-.12-.036-.15Z"/><path class="cls-4" d="M4.353,3.418a.87.87,0,0,1-.063-.075c0,.019,0,.059,0,.142A.319.319,0,0,1,4.353,3.418Z"/><path class="cls-4" d="M4.459,2.833a.419.419,0,0,1-.084.035l-.02.006v.485a.337.337,0,0,0,.1.092.338.338,0,0,0,.1-.092V2.874l-.02-.006A.42.42,0,0,1,4.459,2.833Z"/><path class="cls-4" d="M4.459,2.789a.478.478,0,0,1-.12.057,1.554,1.554,0,0,1-.19.043,3.241,3.241,0,0,0,.088.327h0a.434.434,0,0,0,.043.095.81.81,0,0,0,.179.186.813.813,0,0,0,.179-.186.44.44,0,0,0,.043-.095v0h0a3.3,3.3,0,0,0,.088-.327,1.551,1.551,0,0,1-.19-.043A.474.474,0,0,1,4.459,2.789Zm.286.114v.005a1.867,1.867,0,0,1-.133.4.393.393,0,0,1-.151.148l0,0,0,0a.393.393,0,0,1-.151-.148,1.863,1.863,0,0,1-.133-.4V2.9h.005a1.634,1.634,0,0,0,.194-.044.31.31,0,0,0,.083-.035l0,0h0l0,0a.313.313,0,0,0,.083.035,1.634,1.634,0,0,0,.194.044Z"/><path class="cls-4" d="M4.739,3.062v.3l.045.148-.009-.6C4.769,2.939,4.756,3,4.739,3.062Z"/><path class="cls-4" d="M4.191,3.371l.016.065a.716.716,0,0,1,.069-.111l0-.005a.4.4,0,0,1-.04-.084Z"/><path class="cls-4" d="M4.712,3.436l.016-.065-.041-.135a.4.4,0,0,1-.04.084l0,.005A.716.716,0,0,1,4.712,3.436Z"/><path class="cls-5" d="M4.464,2.823l0,0h0l0,0a.31.31,0,0,1-.083.035,1.634,1.634,0,0,1-.194.044H4.173v.005a1.863,1.863,0,0,0,.133.4.393.393,0,0,0,.151.148l0,0,0,0a.393.393,0,0,0,.151-.148,1.867,1.867,0,0,0,.133-.4V2.9H4.741a1.634,1.634,0,0,1-.194-.044A.313.313,0,0,1,4.464,2.823Zm.1.536a.338.338,0,0,1-.1.092.337.337,0,0,1-.1-.092V2.874l.02-.006a.419.419,0,0,0,.084-.035.42.42,0,0,0,.084.035l.02.006Z"/><rect class="cls-5" x="4.018" y="3.837" width="0.015" height="0.051" transform="translate(-0.569 7.027) rotate(-78.379)"/><rect class="cls-5" x="4.103" y="3.859" width="0.015" height="0.051" transform="translate(-0.522 7.128) rotate(-78.379)"/><path class="cls-5" d="M5.084,3.827l.01.008.083.076L5.114,2.726a.2.2,0,0,0-.026-.114.072.072,0,0,0-.056-.03c-.017,0-.1,0-.115.015a.3.3,0,0,1-.156.088.453.453,0,0,1-.112.01c-.015-.024-.033-.054-.045-.078a1.039,1.039,0,0,1-.016-.249.141.141,0,0,0-.06-.087.083.083,0,0,0-.106.017.305.305,0,0,0-.087-.029c-.047-.006-.075.073-.076.076l-.006.017.016-.008a.068.068,0,0,1,.052,0,.1.1,0,0,1,.043.048.216.216,0,0,1,0,.1.35.35,0,0,1-.042.12.468.468,0,0,1-.055.077.474.474,0,0,1-.109-.01A.3.3,0,0,1,4,2.6c-.02-.02-.1-.016-.115-.015a.072.072,0,0,0-.056.03.2.2,0,0,0-.026.113L3.743,3.911l.082-.076.01-.008h0l.28-.259-.076.251-.025-.007h0a.138.138,0,0,0-.072.033.173.173,0,0,0-.026.075c-.021.016-.077.059-.08.077s.015.025.035.037.027.017.029.023a.021.021,0,0,1,0,.016.031.031,0,0,0,0,.028c.011.02.053.033.057.034a.423.423,0,0,0,.1.026c.055.006.385.017.4.017v0c.014,0,.344-.011.4-.017a.421.421,0,0,0,.1-.026S5.01,4.12,5.02,4.1a.031.031,0,0,0,0-.028.022.022,0,0,1,0-.016c0-.006.017-.016.029-.023s.037-.023.035-.037S5.026,3.936,5,3.92a.173.173,0,0,0-.026-.075.138.138,0,0,0-.072-.033h0l-.025.007L4.8,3.567l.28.259ZM4.462,2.3c.008,0,.015,0,.015.01s-.006.01-.015.01-.015,0-.015-.01S4.454,2.3,4.462,2.3Zm-.187.409h0v0a.479.479,0,0,0,.059-.082A.367.367,0,0,0,4.379,2.5a.223.223,0,0,0,0-.1h.036a.129.129,0,0,0-.052-.071.108.108,0,0,0-.081,0c.011-.022.03-.05.053-.047l.024,0a.335.335,0,0,0,.086.059c.023,0,.027-.017.044-.028a.046.046,0,0,1,.037,0l.032.014a.113.113,0,0,1,.017.038,1,1,0,0,0,.018.255c.017.034.047.082.061.1a.122.122,0,0,1-.087-.038.207.207,0,0,1-.034-.1l0-.116H4.521l0,.116a.212.212,0,0,0,.034.1l.005.05L4.488,2.7a.531.531,0,0,0,0-.08.5.5,0,0,1,.015-.13l-.014,0a.5.5,0,0,0-.016.136.475.475,0,0,1,0,.081l-.023.028-.019-.024a.512.512,0,0,1,.016-.077.575.575,0,0,0,.01-.148H4.442a.566.566,0,0,1-.009.143.525.525,0,0,0-.017.079l-.068.045,0-.048a.227.227,0,0,0,.055-.1l.013-.116-.015,0L4.394,2.6a.221.221,0,0,1-.053.1.171.171,0,0,1-.047.031.159.159,0,0,1-.038.008Zm-.167.932.041.12-.056.069-.039-.012Zm.084.2-.027-.078.048-.059.027.065.064-.083.022.1-.016.075H4.274L4.246,3.8Zm0,.1-.024.024-.024-.047h0l.037-.039ZM4.18,3.853l-.068-.016h0l.047-.058Zm.137-.18.05-.064-.032.146Zm-.059.193H4.233L4.2,3.857l.041-.036ZM4.23,3.88l.165.006-.022.051-.163,0L4.2,3.872Zm.179.011.04.039-.026.042-.037-.03Zm0-.02-.084,0,.008-.038.026.025.034-.026.03-.237.01-.007.007.009-.016.235.034.043h0l.035-.043-.016-.235.007-.009.01.007.03.237.034.026.026-.025.008.038-.084,0-.049.048Zm-.037-.433.027.025-.016.074A.919.919,0,0,0,4.373,3.438Zm.147.025.027-.025a.958.958,0,0,0-.01.1Zm.032.145.05.064-.018.082Zm-.036.277.172-.006.035-.008-.013.063-.171,0-.043.035L4.469,3.93Zm.145-.02.018-.044.041.036-.034.008ZM4.673,3.8l-.028.068H4.607L4.591,3.79l.022-.1.064.083L4.7,3.706l.048.059-.027.078Zm.063.081.036.039h0l-.024.047L4.723,3.94Zm.028-.1.047.058h0l-.068.016Zm-.005-.03L4.7,3.677l-.027.065-.056-.073.022-.1.058.063.027-.086.075.08Zm-.04-.23L4.691,3.6l-.06-.065-.025.116L4.548,3.58a1.363,1.363,0,0,1,.014-.148.629.629,0,0,1,.075.078l.014.017V3.506c0-.048-.005-.12-.006-.154.014.023.04.067.064.108l.009.016L4.736,3.4,4.8,3.6Zm-.084-.034a.32.32,0,0,0-.068-.067.836.836,0,0,0,.064-.075C4.629,3.362,4.63,3.4,4.634,3.485Zm.009-.16,0-.005a.4.4,0,0,0,.04-.084l.041.135-.016.065A.716.716,0,0,0,4.643,3.325Zm.1.035v-.3c.017-.065.03-.123.037-.154l.009.6Zm-.058-.143h0v0a.44.44,0,0,1-.043.095.813.813,0,0,1-.179.186.81.81,0,0,1-.179-.186.434.434,0,0,1-.043-.095h0a3.241,3.241,0,0,1-.088-.327,1.554,1.554,0,0,0,.19-.043.478.478,0,0,0,.12-.057.474.474,0,0,0,.12.057,1.551,1.551,0,0,0,.19.043A3.3,3.3,0,0,1,4.682,3.217Zm-.393.126a.87.87,0,0,0,.063.075.319.319,0,0,0-.068.067C4.289,3.4,4.29,3.362,4.289,3.343Zm-.013-.018a.716.716,0,0,0-.069.111l-.016-.065.041-.135a.4.4,0,0,0,.04.084Zm-.1-.266v.3l-.045.148.009-.6C4.15,2.938,4.163,3,4.179,3.058Zm0,.34.019.077.009-.016c.023-.041.049-.085.064-.108,0,.034,0,.106-.005.154v.022l.014-.017a.644.644,0,0,1,.075-.078,1.313,1.313,0,0,1,.014.148l-.057.074-.026-.116-.06.065L4.2,3.518,4.12,3.6Zm.012.148.027.086.058-.063.022.1-.056.073-.027-.065-.058.071-.041-.122Zm-.242.307a.122.122,0,0,1,.062-.028l.1.025.065.015-.044.047-.16-.028-.038.023A.134.134,0,0,1,3.952,3.854ZM5.069,4s-.019.017-.028.022-.031.019-.035.031a.036.036,0,0,0,0,.025.017.017,0,0,1,0,.016.1.1,0,0,1-.05.027.424.424,0,0,1-.1.025c-.054.006-.39.017-.4.017s-.344-.011-.4-.017a.42.42,0,0,1-.1-.025.1.1,0,0,1-.049-.027.017.017,0,0,1,0-.016.035.035,0,0,0,0-.025c0-.011-.019-.021-.035-.031S3.849,4,3.849,4a.331.331,0,0,1,.077-.069L3.972,3.9l.166.029.03.059.039-.039.168,0,.052.043.032-.051.032.051.052-.043.168,0,.039.039.03-.059L4.946,3.9l.046.029A.333.333,0,0,1,5.069,4Zm-.164-.172a.12.12,0,0,1,.061.028.134.134,0,0,1,.02.055l-.038-.023-.16.028-.044-.047.065-.015Zm-.1-.185.054.177-.039.012-.056-.069Zm.242.135L5.009,2.709l-.048.064.014.933-.038-.035-.026-.886-.061.052.032.782-.041-.038-.022-.723-.039.028h0V2.881H4.776a1.648,1.648,0,0,1-.194-.044.439.439,0,0,1-.12-.058l0,0,0,0a.439.439,0,0,1-.12.058,1.648,1.648,0,0,1-.194.044H4.137v.005h0L4.1,2.859l-.022.723-.041.038.032-.782-.061-.052-.026.886-.038.035.014-.933L3.91,2.709,3.867,3.777l-.031.028.041-1.12-.058.029a.167.167,0,0,1,.022-.092c.024-.027.043-.025.044-.025h0a.228.228,0,0,1,.1.011.315.315,0,0,0,.164.092.555.555,0,0,0,.1.01l-.022.025-.012.013h.017a.207.207,0,0,0,.061-.01.151.151,0,0,0,.038-.022l-.006.063.091-.061.027.035.012-.009v0l.023-.028.091.061-.006-.063a.151.151,0,0,0,.038.022.207.207,0,0,0,.061.01H4.68l-.008-.011-.014-.022a.527.527,0,0,0,.1-.01.315.315,0,0,0,.164-.092.228.228,0,0,1,.1-.011h0s.021,0,.044.025a.167.167,0,0,1,.022.092l-.058-.029.041,1.12Z"/><rect class="cls-5" x="4.868" y="3.855" width="0.051" height="0.015" transform="translate(-0.677 1.064) rotate(-11.611)"/><rect class="cls-5" x="4.783" y="3.877" width="0.051" height="0.015" transform="translate(-0.684 1.048) rotate(-11.621)"/><rect class="cls-5" x="4.251" y="3.882" width="0.015" height="0.051" transform="translate(0.154 7.976) rotate(-87.279)"/><polygon class="cls-5" points="4.354 3.902 4.303 3.9 4.302 3.915 4.353 3.917 4.354 3.902"/></g></g></svg>