<svg xmlns="http://www.w3.org/2000/svg" viewBox="0 0 8.919 6.443"><defs><style>.cls-1{fill:#f2a906;}.cls-2{fill:#014936;}.cls-3{fill:#ed5103;}.cls-4{fill:#841e2a;}.cls-5{fill:#f4a903;}.cls-6{fill:#282828;}</style></defs><title>Шри ланка</title><g id="Слой_2" data-name="Слой 2"><g id="flags"><rect class="cls-1" width="8.919" height="6.443"/><rect class="cls-2" x="0.559" y="0.792" width="0.991" height="4.863"/><rect class="cls-3" x="1.55" y="0.792" width="0.991" height="4.863"/><rect class="cls-4" x="3.078" y="0.79" width="5.285" height="4.863"/><path class="cls-5" d="M7.632,3.488a.583.583,0,0,0-.157-.5.347.347,0,0,0,.157-.263c.035-.431-.5-.32-.576-.312s-.38.081-.481,0c-.045-.036-.036-.122-.036-.122a.242.242,0,0,0-.073.038.352.352,0,0,0-.055.07s-.075-.083-.033-.145A.2.2,0,0,1,6.5,2.179s-.03-.048-.124-.042a.2.2,0,0,0-.145.1s-.131-.115-.054-.2a.112.112,0,0,1,.16-.026c.016.012.011.058.011.058s.083-.026.078-.1a.411.411,0,0,0-.015-.08s.19.047.2.16a.223.223,0,0,1-.065.181s.192-.015.211-.124a.323.323,0,0,0-.03-.2s.149.085.154.172a.215.215,0,0,1-.062.151s.121.006.151-.039l.059-.089a.258.258,0,0,0,.119.115l.1.033a.666.666,0,0,1-.068-.092.247.247,0,0,1-.021-.089l.312.23s.225.133.285-.046a.125.125,0,0,0-.065-.169c-.147-.031-.1.076-.116.121s-.105-.082-.359-.242A1.086,1.086,0,0,0,6.8,1.742c-.647-.113-.786.3-.786.3a.29.29,0,0,0,.018.177c.039.12.095.13.095.13a.254.254,0,0,0-.042.142c.009.065.05.125.071.125s0-.034.024-.08a.085.085,0,0,1,.08-.042s.231.083.323.1c.182.038.446-.068.681-.054a.3.3,0,0,1,.174.07c.1.087-.055.244-.055.244s-.141.063-.234.093a2.229,2.229,0,0,1-.315-.01c-.11,0-.324.03-.324.03l-.54-.006s-.013-.014-.028-.034A.4.4,0,0,1,5.9,2.837a.141.141,0,0,1,0-.083l.077.074A.493.493,0,0,0,5.958,2.7l-.041-.113.049.017.007-.192.006-.2a.314.314,0,0,0-.03-.062A.165.165,0,0,0,5.884,2.1a.211.211,0,0,0,.083-.083.765.765,0,0,0,.069-.205.845.845,0,0,1-.108.1.082.082,0,0,1-.107,0,.284.284,0,0,1-.059-.063c-.015-.028-.113-.039-.113-.039a.106.106,0,0,0-.036.071.044.044,0,0,1-.03.048.7.7,0,0,0-.089-.1A.4.4,0,0,0,5.379,1.8a.459.459,0,0,1,0,.113.049.049,0,0,1-.039.038.27.27,0,0,0-.095-.092.37.37,0,0,0-.2,0,.12.12,0,0,1-.021.132c-.057.055-.1.036-.151.032a.411.411,0,0,0-.181.044c-.062.027-.08.009-.08.009s.031-.11-.033-.128c-.028-.008-.159-.042-.175.057a.43.43,0,0,0,.1.291s.175.187.2.172.009-.083.009-.083.06.075.089.071.036-.086.036-.086a.5.5,0,0,0,.051.113,1.011,1.011,0,0,0,.085.093s-.147-.023-.231-.034-.273-.131-.3-.125-.039.013-.026.062a.11.11,0,0,0,.05.068l-.087.225s.073,0,.117-.011a.291.291,0,0,0,.092-.035l-.059.106a.744.744,0,0,1,.146-.048c.028,0,.049.076.078.07s.037-.081.037-.081.023.121.071.128.05-.117.116-.071-.095.175-.095.175a.494.494,0,0,0-.309.3.87.87,0,0,0-.059.424L4.18,3.389a.145.145,0,0,0,.08-.116c.016-.092-.134-.122-.134-.122s0-.532.007-.867a5.55,5.55,0,0,1,.117-.774.588.588,0,0,0-.335.4,2.485,2.485,0,0,0-.064.666l-.018.574s-.151-.017-.154.106.169.161.169.161a.035.035,0,0,0-.021.029.072.072,0,0,0,.021.04s-.041-.005-.039.035a.071.071,0,0,0,.042.059.165.165,0,0,0-.021.071.059.059,0,0,0,.03.039.071.071,0,0,0-.007.05.039.039,0,0,0,.027.024L3.9,3.82s-.123-.009-.122.049.106.036.116.061-.053.047-.055.076.05.048.05.111a.14.14,0,0,1-.039.1.1.1,0,0,0-.09-.03c-.049.013-.027.065,0,.092a.3.3,0,0,0,.113.047L3.782,4.4l.094.018.081.113.062-.1L4.138,4.4,4.05,4.333,4.13,4.3s.092-.049.056-.1-.116.015-.116.015-.042-.009-.047-.074.049-.1.05-.128S4,3.938,4.011,3.918s.115.02.122-.019-.069-.075-.068-.079.059-.023.068-.036.071.047.071.047l-.012.2s.015.073.053.065.039-.068.039-.068.167.194.255.2a.217.217,0,0,0,.24-.156,1.525,1.525,0,0,1,.2.129c.011.009.028,0,.036,0s.017.051.026.067a.889.889,0,0,1,.068.253c.027.136-.134.187-.134.187a1.056,1.056,0,0,0-.208.013c-.046.016-.095.093-.095.093s-.064.089-.021.113.1-.062.1-.062a.078.078,0,0,0,.074.062c.062,0,.095-.071.095-.071s.062.073.119.071a.172.172,0,0,0,.1-.053.168.168,0,0,0,.111.043c.068,0,.087-.111.087-.111l-.012-.166A.437.437,0,0,0,5.477,4.6c.036-.028.133-.093.116-.143s-.134.025-.169-.062.1-.273.1-.273a1.739,1.739,0,0,0,.46-.175.641.641,0,0,1,.371-.079.415.415,0,0,0,.125.325A.278.278,0,0,1,6.62,4.4l.006.274s0,.047-.077.058c-.1.015-.082-.015-.166.006a.223.223,0,0,0-.128.113s-.035.069.018.08.128-.065.128-.065a.075.075,0,0,0,.071.065c.063,0,.089-.071.089-.071s.034.07.092.071a.11.11,0,0,0,.089-.059.127.127,0,0,0,.107.059c.071,0,.062-.163.062-.163a.322.322,0,0,1-.024-.137c.008-.062.181-.19.169-.239s-.148-.025-.148-.025a.118.118,0,0,1-.024-.106.218.218,0,0,1,.071-.093,1.08,1.08,0,0,1,.248.188.65.65,0,0,1,.043.281s-.017.074-.178.107a.15.15,0,0,0-.139.166l.1-.038a.071.071,0,0,0,.068.044.107.107,0,0,0,.083-.056s.033.071.095.071a.162.162,0,0,0,.11-.062s.116.093.16.042-.056-.091-.074-.224.166-.185.169-.27-.064.029-.154-.155.027-.363.042-.44A1.505,1.505,0,0,0,7.632,3.488Z"/><path class="cls-6" d="M7.752,2.136a.107.107,0,0,0-.062-.052.235.235,0,0,0-.047-.006c-.071,0-.072.053-.072.091a.133.133,0,0,1,0,.039l-.005.005a.275.275,0,0,1-.083-.058,2.413,2.413,0,0,0-.262-.193c-.026-.016-.053-.036-.081-.057A.8.8,0,0,0,6.8,1.736a1.259,1.259,0,0,0-.215-.02A.571.571,0,0,0,6,2.036a.294.294,0,0,0,.018.181c.032.1.074.124.092.131a.245.245,0,0,0-.038.14c.009.066.052.13.077.13s.016-.015.017-.028a.126.126,0,0,1,.012-.055A.075.075,0,0,1,6.25,2.5h0c.015.005.235.084.323.1a.439.439,0,0,0,.09.008,1.588,1.588,0,0,0,.255-.03,1.786,1.786,0,0,1,.294-.034h.043a.3.3,0,0,1,.171.069.086.086,0,0,1,.033.064.3.3,0,0,1-.088.171c-.013.006-.145.064-.233.093a.173.173,0,0,1-.05.005c-.032,0-.072,0-.115-.007s-.1-.009-.14-.009H6.828c-.109,0-.322.03-.323.03l-.538-.006L5.94,2.921a.19.19,0,0,1-.024-.053L5.9,2.835a.126.126,0,0,1,0-.07l.08.077V2.828A.49.49,0,0,0,5.964,2.7l-.037-.1.045.015.007-.2.006-.2h0a.314.314,0,0,0-.03-.063A.159.159,0,0,0,5.9,2.095a.25.25,0,0,0,.075-.08.758.758,0,0,0,.07-.207l0-.022L6.032,1.8a.848.848,0,0,1-.107.1.08.08,0,0,1-.05.019.081.081,0,0,1-.05-.019.283.283,0,0,1-.058-.061c-.016-.03-.107-.041-.117-.042h0l0,0a.111.111,0,0,0-.038.076.04.04,0,0,1-.022.04.636.636,0,0,0-.088-.1.4.4,0,0,0-.118-.028H5.373V1.8a.456.456,0,0,1,0,.111.043.043,0,0,1-.03.032.278.278,0,0,0-.095-.09.164.164,0,0,0-.079-.016.57.57,0,0,0-.13.018l-.007,0,0,.006a.115.115,0,0,1-.019.125.111.111,0,0,1-.082.037.29.29,0,0,1-.038,0l-.026,0a.4.4,0,0,0-.184.044.149.149,0,0,1-.055.014.039.039,0,0,1-.016,0c.005-.022.024-.113-.038-.131a.308.308,0,0,0-.08-.012c-.059,0-.095.026-.1.074a.431.431,0,0,0,.1.3c.017.018.165.175.205.175h.007c.022-.011.021-.043.017-.066.021.023.056.058.079.055s.033-.04.037-.066a.432.432,0,0,0,.044.09.617.617,0,0,0,.072.08l0,0-.065-.01c-.048-.007-.107-.017-.15-.022a.805.805,0,0,1-.192-.079.411.411,0,0,0-.105-.046h0a.045.045,0,0,0-.031.017.069.069,0,0,0,0,.052.119.119,0,0,0,.049.069l-.089.229h.009s.074,0,.117-.011a.265.265,0,0,0,.076-.026l-.058.1.016-.007a.731.731,0,0,1,.142-.048h0c.01,0,.022.018.032.033s.026.038.043.038h0c.02,0,.031-.034.036-.057.01.037.033.1.07.1s.038-.02.051-.043.022-.039.039-.039a.042.042,0,0,1,.023.009.028.028,0,0,1,.013.023c0,.05-.1.133-.107.142a.5.5,0,0,0-.311.3.92.92,0,0,0-.062.41l-.317-.32a.156.156,0,0,0,.076-.117c.015-.088-.107-.121-.134-.127,0-.054,0-.548.007-.862a3.083,3.083,0,0,1,.1-.667c.02-.08.025-.1.016-.112l-.009,0a.625.625,0,0,0-.336.406,2.506,2.506,0,0,0-.065.668l-.018.568c-.03,0-.152,0-.155.113s.12.151.161.163a.035.035,0,0,0-.013.026.062.062,0,0,0,.014.035.039.039,0,0,0-.023.011.038.038,0,0,0-.009.03.076.076,0,0,0,.039.062.15.15,0,0,0-.019.069.061.061,0,0,0,.028.04.069.069,0,0,0,0,.05.045.045,0,0,0,.029.026l.016.042H3.884a.155.155,0,0,0-.1.026.039.039,0,0,0-.012.029c0,.04.043.046.077.051.017,0,.037.005.039.012s-.01.02-.024.032-.031.026-.032.042a.059.059,0,0,0,.019.04.105.105,0,0,1,.03.071.138.138,0,0,1-.033.09.113.113,0,0,0-.071-.03l-.02,0a.042.042,0,0,0-.032.027.09.09,0,0,0,.024.075.256.256,0,0,0,.1.047L3.769,4.4l.1.02.085.118.066-.109L4.153,4.4l-.092-.07L4.132,4.3s.057-.031.066-.07a.048.048,0,0,0-.008-.039.049.049,0,0,0-.043-.022.152.152,0,0,0-.079.034c-.009,0-.036-.017-.04-.068a.124.124,0,0,1,.03-.085.083.083,0,0,0,.02-.042c0-.019-.019-.037-.037-.055s-.029-.028-.026-.034,0,0,.014,0l.029,0,.037,0c.009,0,.038,0,.042-.022s-.038-.063-.06-.077l0,0,.014-.006.01,0A.1.1,0,0,0,4.123,3.8l.012-.008,0,0a.22.22,0,0,1,.06.046l-.012.194h0s.017.078.06.07.04-.04.042-.06c.037.041.172.186.25.2l.033,0a.222.222,0,0,0,.211-.156,1.473,1.473,0,0,1,.195.126.021.021,0,0,0,.014,0h.022a.1.1,0,0,1,.014.037.144.144,0,0,0,.01.03.7.7,0,0,1,.059.208l.008.044c.025.126-.115.175-.129.18H4.949a.808.808,0,0,0-.181.014c-.047.017-.1.093-.1.1s-.044.062-.036.1a.033.033,0,0,0,.017.022.039.039,0,0,0,.019,0c.034,0,.07-.041.085-.06a.082.082,0,0,0,.076.056h0a.117.117,0,0,0,.094-.067.194.194,0,0,0,.116.067h0a.17.17,0,0,0,.1-.051.174.174,0,0,0,.111.041c.072,0,.093-.112.093-.116h0L5.344,4.65A.407.407,0,0,0,5.481,4.6l.013-.01c.046-.034.122-.091.1-.139-.007-.02-.028-.022-.045-.022H5.5a.07.07,0,0,1-.074-.042c-.032-.079.088-.247.1-.265a1.729,1.729,0,0,0,.46-.176.573.573,0,0,1,.313-.08l.048,0A.407.407,0,0,0,6.48,4.2a.276.276,0,0,1,.134.2l.006.274s0,.043-.072.053a.343.343,0,0,1-.049,0,.208.208,0,0,1-.036,0,.172.172,0,0,0-.028,0,.2.2,0,0,0-.185.124.092.092,0,0,0-.008.068.039.039,0,0,0,.029.021h.012A.208.208,0,0,0,6.4,4.879a.078.078,0,0,0,.074.06h0a.1.1,0,0,0,.087-.064.119.119,0,0,0,.091.064h0a.11.11,0,0,0,.088-.054.13.13,0,0,0,.1.054h0a.049.049,0,0,0,.035-.017.265.265,0,0,0,.033-.153v0a.319.319,0,0,1-.023-.134.331.331,0,0,1,.086-.117c.048-.052.089-.1.083-.125s-.034-.035-.085-.035a.457.457,0,0,0-.067.005.11.11,0,0,1-.021-.1.211.211,0,0,1,.066-.088,1.037,1.037,0,0,1,.243.185.649.649,0,0,1,.042.276s-.019.071-.173.1a.157.157,0,0,0-.144.173V4.92l.1-.039a.077.077,0,0,0,.071.043.1.1,0,0,0,.083-.05.119.119,0,0,0,.1.065.16.16,0,0,0,.111-.06.251.251,0,0,0,.122.055.052.052,0,0,0,.042-.018c.026-.03.008-.057-.015-.091a.307.307,0,0,1-.058-.138c-.01-.074.046-.122.095-.166s.073-.065.075-.1-.012-.042-.034-.045-.069-.008-.121-.113a.443.443,0,0,1,.019-.367.484.484,0,0,0,.023-.07.184.184,0,0,1,.021-.057.949.949,0,0,0,.083-.278.59.59,0,0,0-.154-.5.357.357,0,0,0,.154-.264.3.3,0,0,0-.066-.236.407.407,0,0,0-.309-.1,1.286,1.286,0,0,0-.185.016l-.023,0L7,2.419a1.632,1.632,0,0,1-.259.029.261.261,0,0,1-.159-.037c-.042-.034-.033-.116-.033-.117V2.285l-.009,0a.245.245,0,0,0-.075.039.328.328,0,0,0-.052.064c-.016-.02-.06-.084-.027-.132A.2.2,0,0,1,6.5,2.185l.009,0,0-.007s-.033-.05-.129-.045a.2.2,0,0,0-.146.095A.22.22,0,0,1,6.154,2.1a.079.079,0,0,1,.022-.06A.126.126,0,0,1,6.267,2a.1.1,0,0,1,.062.021c.009.007.01.036.008.053v.009l.009,0s.088-.028.082-.106A.4.4,0,0,0,6.415,1.9c.039.012.178.06.187.152a.219.219,0,0,1-.063.176l-.013.012h.018c.008,0,.2-.017.216-.129a.329.329,0,0,0-.022-.181c.039.025.131.091.134.156a.21.21,0,0,1-.06.146l-.01.01h.029c.042,0,.117-.005.141-.042l.054-.081a.247.247,0,0,0,.117.11l.122.039-.014-.016a.666.666,0,0,1-.067-.091.216.216,0,0,1-.019-.074l.3.222a.364.364,0,0,0,.161.049.13.13,0,0,0,.133-.1A.148.148,0,0,0,7.752,2.136Zm-3.328.344a.062.062,0,0,1,0-.043c0-.006.011-.009.025-.012a.492.492,0,0,1,.1.044.805.805,0,0,0,.2.081c.042.005.1.015.149.022l.079.012a.273.273,0,0,1,.056.106c-.007.009-.029.007-.049,0l-.031,0-.125,0,.059-.076L4.651,2.6a.8.8,0,0,1-.18-.061A.105.105,0,0,1,4.423,2.479Zm-.5-.566a.629.629,0,0,1,.324-.4h0a.389.389,0,0,1-.019.1,3.1,3.1,0,0,0-.1.669c-.011.318-.007.82-.007.864-.015.01-.061.044-.064.063a.066.066,0,0,0,.017.04c.008.011.016.024.015.031s-.054.02-.107.024c-.073,0-.129-.015-.131-.03s.008-.015.018-.023.025-.02.024-.036-.043-.059-.055-.069l.018-.571A2.5,2.5,0,0,1,3.921,1.913ZM3.684,3.258c0-.109.13-.1.146-.1s.05.045.051.061-.009.017-.019.026-.024.019-.022.034.063.042.122.042h.021c.079-.005.115-.011.118-.034a.07.07,0,0,0-.017-.039c-.008-.011-.016-.024-.015-.032s.035-.038.059-.055c.019,0,.14.035.126.114a.138.138,0,0,1-.076.111S4.071,3.41,4,3.421a.471.471,0,0,1-.151-.008h0S3.682,3.375,3.684,3.258Zm.148.189a.028.028,0,0,1,.016-.022.517.517,0,0,0,.1.011h0c.038.014.1.042.106.059v.01l-.006.012a.116.116,0,0,1-.026.024.171.171,0,0,0-.059-.034,1.043,1.043,0,0,0-.12-.025A.063.063,0,0,1,3.833,3.448Zm.24.064A.088.088,0,0,1,4.1,3.487l.013-.008a.191.191,0,0,1,.054-.028h0a.161.161,0,0,1-.06.093.1.1,0,0,1-.033.013s-.005,0-.01-.007a.024.024,0,0,1,0-.018l0-.008Zm.064.262,0,0,0,0h0l-.011.007-.022.01H4.087l-.008,0V3.79a.133.133,0,0,1,.052-.069A.092.092,0,0,1,4.166,3.7l0,0A.087.087,0,0,1,4.137,3.774Zm-.076.041a.131.131,0,0,1-.045.009c-.01,0-.022-.013-.029-.022h0a.132.132,0,0,0,.076-.017v0a.021.021,0,0,0,0,.016l0,0Zm-.009-.276a.031.031,0,0,0,.005.018.024.024,0,0,0,.019.012h.007l-.014.02a.149.149,0,0,0-.03-.038Zm.007.113a.023.023,0,0,0,.019.009h.005l-.011.016A.143.143,0,0,0,4,3.622l.028,0a.109.109,0,0,0,.029,0v.007A.035.035,0,0,0,4.059,3.653Zm0,.084a.023.023,0,0,0,.019.009l.011,0a.15.15,0,0,0-.015.023c0-.022-.028-.043-.069-.058A.177.177,0,0,0,4.06,3.7l0,.014A.025.025,0,0,0,4.059,3.737Zm.061-.025a.073.073,0,0,1-.041.022.012.012,0,0,1-.01,0,.015.015,0,0,1,0-.01.132.132,0,0,1,.049-.074.18.18,0,0,1,.06-.035h0A.229.229,0,0,1,4.119,3.712Zm0-.084a.073.073,0,0,1-.041.022.011.011,0,0,1-.01,0,.024.024,0,0,1,0-.016l0-.018,0-.006a.115.115,0,0,1,.036-.048.125.125,0,0,1,.064-.032l.006,0A.229.229,0,0,1,4.119,3.628Zm-.3-.106A.027.027,0,0,1,3.821,3.5a.035.035,0,0,1,.026-.008,1.027,1.027,0,0,1,.121.025.159.159,0,0,1,.095.084v0h0a.166.166,0,0,1-.1,0l-.114-.029A.065.065,0,0,1,3.815,3.522Zm.021.13a.143.143,0,0,1,.018-.064l.117.036c.053.016.091.048.091.062v0a.2.2,0,0,1-.086.009H3.956a.874.874,0,0,0-.094-.011A.052.052,0,0,1,3.836,3.653Zm.045.108a.033.033,0,0,1-.023-.02.058.058,0,0,1,0-.041c.017,0,.058.008.091.01l.034.008c.051.015.074.038.074.053l0,.006a.123.123,0,0,1-.073.014.557.557,0,0,1-.1-.014l-.006-.015Zm.245.137c0,.005-.005.013-.03.013l-.036,0-.031,0c-.009,0-.021,0-.025.01s.01.03.028.048.034.033.034.046a.077.077,0,0,1-.018.036.135.135,0,0,0-.032.093c.005.069.05.079.052.08h0l0,0a.149.149,0,0,1,.074-.033.037.037,0,0,1,.033.017.035.035,0,0,1,.006.03c-.008.034-.06.062-.06.062l-.089.04.086.066-.108.019-.059.1L3.88,4.408,3.8,4.392l.086-.071-.012,0a.282.282,0,0,1-.109-.045.081.081,0,0,1-.022-.064.03.03,0,0,1,.024-.019l.017,0a.105.105,0,0,1,.067.03l0,0,0,0a.145.145,0,0,0,.04-.1.116.116,0,0,0-.033-.079c-.01-.012-.017-.021-.017-.031s.015-.023.028-.034.034-.028.027-.045-.025-.016-.049-.02c-.039-.006-.066-.012-.067-.039a.028.028,0,0,1,.008-.021.15.15,0,0,1,.091-.022H3.91L3.9,3.79a.611.611,0,0,0,.076.011c.005.008.024.033.043.035h0a.152.152,0,0,0,.044-.01l.009.006C4.091,3.846,4.131,3.872,4.127,3.9Zm.445.327-.032,0c-.084-.01-.25-.2-.252-.2l-.01-.012v.016s0,.056-.034.062S4.2,4.045,4.2,4.027l.012-.2,0,0a.32.32,0,0,0-.06-.048c.028-.026.042-.069.032-.083a.016.016,0,0,0-.014-.007l-.015,0c.024-.032.047-.077.039-.089A.015.015,0,0,0,4.176,3.6a.053.053,0,0,0-.023.008c.023-.032.044-.074.036-.085a.018.018,0,0,0-.016-.007.064.064,0,0,0-.024.006.2.2,0,0,0,.03-.06.02.02,0,0,0,0-.016.013.013,0,0,0-.011-.005.168.168,0,0,0-.06.03l-.013.008a.108.108,0,0,0-.02.015h0c-.007-.02-.057-.044-.089-.057l.018,0c.064-.01.157-.033.175-.037l.331.334a1.055,1.055,0,0,0,.111.2.511.511,0,0,0,.152.14A.207.207,0,0,1,4.572,4.224Zm2.307.037a.123.123,0,0,0,.025.112l0,0h0a.449.449,0,0,1,.068-.006c.03,0,.068,0,.073.026s-.04.071-.08.114a.323.323,0,0,0-.089.124.321.321,0,0,0,.024.139.255.255,0,0,1-.03.143.037.037,0,0,1-.027.013h0a.123.123,0,0,1-.1-.056l-.006-.009,0,.01a.105.105,0,0,1-.082.056h0c-.054,0-.086-.067-.087-.068L6.56,4.846l0,.013s-.024.067-.081.067h0a.068.068,0,0,1-.066-.06l0-.012L6.4,4.863s-.064.065-.113.065h-.01a.028.028,0,0,1-.021-.014c-.01-.021.007-.057.008-.057a.218.218,0,0,1,.124-.11.21.21,0,0,1,.05-.008.153.153,0,0,1,.026,0,.222.222,0,0,0,.038,0,.352.352,0,0,0,.051,0c.079-.012.082-.062.082-.064L6.626,4.4a.281.281,0,0,0-.139-.213.4.4,0,0,1-.122-.315.472.472,0,0,1,.282.048c.016.014.037.035.061.06a1.226,1.226,0,0,0,.095.092,1,1,0,0,0,.142.1A.216.216,0,0,0,6.879,4.261Zm.87-2a.119.119,0,0,1-.121.089A.36.36,0,0,1,7.472,2.3l-.321-.237v.012a.251.251,0,0,0,.021.092.538.538,0,0,0,.055.077l-.081-.026A.254.254,0,0,1,7.032,2.1l0-.009-.065.1c-.023.034-.106.036-.131.036h0a.214.214,0,0,0,.055-.146c-.005-.089-.151-.173-.157-.176L6.708,1.9l.01.019a.321.321,0,0,1,.029.192c-.015.085-.143.111-.189.117a.227.227,0,0,0,.055-.174c-.012-.116-.2-.163-.206-.165l-.01,0,0,.01a.414.414,0,0,1,.015.079.1.1,0,0,1-.066.091c0-.015,0-.044-.014-.054a.116.116,0,0,0-.069-.024.137.137,0,0,0-.1.05.09.09,0,0,0-.026.068.24.24,0,0,0,.08.137l.005,0,0-.006a.194.194,0,0,1,.141-.095.141.141,0,0,1,.113.033.2.2,0,0,0-.11.077c-.044.065.03.149.033.153l.005.006,0-.007a.349.349,0,0,1,.054-.068A.218.218,0,0,1,6.533,2.3a.151.151,0,0,0,.038.119.271.271,0,0,0,.166.039A1.638,1.638,0,0,0,7,2.431l.058-.009.023,0A1.269,1.269,0,0,1,7.263,2.4a.4.4,0,0,1,.3.1.287.287,0,0,1,.062.227.344.344,0,0,1-.154.259l-.007,0L7.471,3a.581.581,0,0,1,.156.491.937.937,0,0,1-.082.275.2.2,0,0,0-.022.06.462.462,0,0,1-.023.068.453.453,0,0,0-.018.376c.055.111.1.116.13.12s.024,0,.023.032-.035.063-.071.095c-.051.045-.109.1-.1.176a.321.321,0,0,0,.06.143c.024.036.035.055.016.077a.04.04,0,0,1-.033.014.26.26,0,0,1-.119-.055l-.005,0,0,0a.158.158,0,0,1-.105.06c-.058,0-.089-.067-.09-.068l-.005-.011-.006.011a.1.1,0,0,1-.078.053.064.064,0,0,1-.063-.04l0-.006-.1.038c0-.028,0-.125.136-.152.163-.033.182-.108.183-.112a.642.642,0,0,0-.044-.284,1.062,1.062,0,0,0-.25-.19l0,0h0a.977.977,0,0,1-.145-.1,1.2,1.2,0,0,1-.094-.091.84.84,0,0,0-.062-.061.49.49,0,0,0-.3-.05c-.005,0-.025,0-.053,0a.585.585,0,0,0-.32.082,1.652,1.652,0,0,1-.444.171A1.258,1.258,0,0,0,5.646,3.9,1.363,1.363,0,0,0,5.7,3.618H5.688a1.355,1.355,0,0,1-.053.275,1.267,1.267,0,0,1-.112.227c-.007.009-.141.189-.1.279a.081.081,0,0,0,.085.05h.05c.02,0,.03,0,.034.015.014.04-.06.1-.1.126l-.013.01a.433.433,0,0,1-.137.043H5.331l.012.171c0,.009-.022.106-.082.106a.163.163,0,0,1-.107-.041l0,0,0,0a.166.166,0,0,1-.1.051h0c-.053,0-.112-.069-.112-.069L4.927,4.85l0,.009s-.031.068-.088.068h0a.072.072,0,0,1-.068-.058l0-.014-.008.011s-.046.064-.083.064l-.013,0a.021.021,0,0,1-.011-.015c-.007-.032.033-.089.034-.09s.048-.076.092-.091a.839.839,0,0,1,.177-.013H4.98s.165-.054.138-.194L5.11,4.481a.705.705,0,0,0-.061-.211.14.14,0,0,1-.009-.027A.1.1,0,0,0,5.022,4.2l0,0A.533.533,0,0,1,4.991,4a1.05,1.05,0,0,1,.043-.238l-.011,0A1.066,1.066,0,0,0,4.98,4a.549.549,0,0,0,.026.2H5a.019.019,0,0,1-.015,0,1.551,1.551,0,0,0-.2-.13h0a.5.5,0,0,1-.152-.139,1.033,1.033,0,0,1-.108-.2h0a.874.874,0,0,1,.059-.421.492.492,0,0,1,.3-.293h0S5,2.918,5,2.859a.04.04,0,0,0-.018-.033.053.053,0,0,0-.03-.011c-.023,0-.036.023-.049.045s-.022.039-.039.037c-.036-.005-.06-.09-.066-.123H4.786c0,.027-.014.072-.032.076s-.024-.016-.035-.033-.025-.037-.041-.038a.566.566,0,0,0-.133.042l.062-.111-.019.011a.292.292,0,0,1-.09.034c-.034,0-.086.009-.107.01l.081-.211a.745.745,0,0,0,.179.059l.207.013-.06.078h.012s.11,0,.138,0l.029,0,.026,0A.04.04,0,0,0,5.035,2.7c.014-.018-.035-.091-.057-.123l-.015-.016a.622.622,0,0,1-.071-.078.493.493,0,0,1-.05-.11H4.83c0,.032-.014.078-.03.08h0c-.022,0-.067-.05-.082-.069l-.01.006c.005.018.015.066-.006.076h0a.824.824,0,0,1-.2-.171.427.427,0,0,1-.1-.286c.007-.042.037-.064.091-.064a.292.292,0,0,1,.077.012c.057.016.029.12.029.121v0l0,0a.038.038,0,0,0,.027.008.159.159,0,0,0,.06-.015.435.435,0,0,1,.163-.044h.015l.026,0a.291.291,0,0,0,.04,0A.125.125,0,0,0,5.024,2a.123.123,0,0,0,.025-.133.557.557,0,0,1,.12-.016.153.153,0,0,1,.073.014.269.269,0,0,1,.093.089l0,0h0a.054.054,0,0,0,.044-.042.417.417,0,0,0,0-.108.356.356,0,0,1,.106.025.7.7,0,0,1,.087.1l0,0h0a.051.051,0,0,0,.034-.053.1.1,0,0,1,.032-.065c.037,0,.1.018.106.035a.281.281,0,0,0,.061.065.087.087,0,0,0,.114,0,.813.813,0,0,0,.094-.088.672.672,0,0,1-.064.181.21.21,0,0,1-.08.08l-.013.006.013.006a.161.161,0,0,1,.063.051.317.317,0,0,1,.029.06l-.006.2L5.96,2.6l-.04-.014a.753.753,0,0,0-.095-.107.12.12,0,0,1-.024-.06.218.218,0,0,0-.016-.053.291.291,0,0,0-.051-.076l-.011-.01,0,.015s.01.1.013.122a.329.329,0,0,1-.005.068c-.012-.013-.034-.036-.043-.047S5.6,2.354,5.6,2.351L5.586,2.34l0,.017a.224.224,0,0,1,0,.071.082.082,0,0,1-.029.039l-.073-.1v.019a.5.5,0,0,1,0,.069.09.09,0,0,1-.017.038L5.4,2.394l-.01.005a.352.352,0,0,1,.021.148l0,0h0a.35.35,0,0,1-.081-.1l-.005-.008-.054.1A.134.134,0,0,1,5.2,2.5a.108.108,0,0,1-.037-.078H5.153a.117.117,0,0,0,.04.088c.044.044.073.045.074.045h0l.048-.087c.027.041.07.1.088.094a.018.018,0,0,0,.011-.009.251.251,0,0,0-.011-.126l.059.081,0-.005a.1.1,0,0,0,.024-.05.443.443,0,0,0,0-.052l.058.083,0,0A.1.1,0,0,0,5.6,2.431a.185.185,0,0,0,0-.06c.022.02.067.062.077.074s.051.055.052.057l.008.008,0-.011a.4.4,0,0,0,.008-.083c0-.018-.008-.074-.011-.1a.384.384,0,0,1,.037.059.2.2,0,0,1,.015.05.129.129,0,0,0,.027.066.756.756,0,0,1,.094.106l.041.112a.428.428,0,0,1,.017.108L5.9,2.743h0l-.183-.162-.058.079-.087-.1,0,.021a.223.223,0,0,1,0,.075A.253.253,0,0,1,5.55,2.7l-.082-.1-.009.007.092.114,0-.007a.285.285,0,0,0,.027-.055.172.172,0,0,0,0-.061l.07.082L5.715,2.6l.177.157a.142.142,0,0,0,0,.083l.012.032a.2.2,0,0,0,.026.057l.018.022a1.225,1.225,0,0,1-.136-.029c-.053-.016-.125-.137-.126-.138L5.68,2.772l-.027.092a.674.674,0,0,1-.085-.05.17.17,0,0,1-.047-.075l0-.016-.006.016c-.013.032-.032.067-.041.068h0l-.009-.02a.283.283,0,0,0-.026-.053.477.477,0,0,0-.068-.077l-.006-.005-.046.1-.1-.1L5.2,2.653l.116.113.046-.1a.469.469,0,0,1,.06.069.277.277,0,0,1,.025.05l.011.022a.013.013,0,0,0,.013.006c.016,0,.034-.038.044-.061a.161.161,0,0,0,.046.066l.006,0-.014.131-.159-.116-.026.112-.094-.134-.089.1L5.167,2.8l-.08.109-.024-.1-.011,0,.03.128.078-.107.018.117.1-.109.1.143L5.4,2.863l.161.118.015-.145a.842.842,0,0,0,.076.043l.006,0,.024-.08c.02.032.077.117.125.132a1.347,1.347,0,0,0,.152.031h0l.069.076H5.878V3.18a.592.592,0,0,1-.171-.065L5.7,3.109h0c-.026,0-.1.077-.136.111l-.083-.244-.046.1-.042.085L5.374,3.13c-.008-.014-.052-.071-.054-.073l0-.007-.091.137-.013-.123H5.2a.953.953,0,0,1-.047.112c-.017.03-.08.051-.1.057V3.064l-.009.006a.374.374,0,0,1-.074.036c-.018,0-.042.009-.057.012.015-.015.039-.04.051-.054A.436.436,0,0,0,5,2.979l-.011,0a.435.435,0,0,1-.039.081c-.016.02-.062.066-.063.066l-.013.013.018,0s.046-.007.077-.015a.346.346,0,0,0,.068-.032v.162l.007,0s.094-.024.117-.065A.758.758,0,0,0,5.2,3.091l.014.13.1-.151c.012.016.042.055.048.065l.026.047.052-.105.034-.07.08.235.007-.007A.548.548,0,0,1,5.7,3.12c.012.025.157.065.186.073l.007,0V3.054l.168,0-.08-.087.527.006s.215-.028.323-.03h.008c.043,0,.092,0,.139.009s.083.007.116.007a.183.183,0,0,0,.054-.006c.093-.03.234-.093.235-.094h0a.305.305,0,0,0,.092-.18A.1.1,0,0,0,7.436,2.6a.312.312,0,0,0-.178-.072H7.215a1.793,1.793,0,0,0-.3.034,1.571,1.571,0,0,1-.253.03.43.43,0,0,1-.087-.008c-.09-.018-.319-.1-.322-.1H6.25a.089.089,0,0,0-.081.045.14.14,0,0,0-.013.06c0,.016,0,.017-.005.017s-.056-.056-.065-.12a.249.249,0,0,1,.04-.138l.005-.008-.009,0s-.053-.012-.09-.126a.289.289,0,0,1-.018-.173.558.558,0,0,1,.567-.312,1.246,1.246,0,0,1,.213.02.775.775,0,0,1,.334.167c.029.021.056.041.082.058a2.42,2.42,0,0,1,.261.192c.047.039.073.061.09.061a.017.017,0,0,0,.017-.013.136.136,0,0,0,0-.043c0-.041,0-.079.06-.079a.226.226,0,0,1,.045.005.1.1,0,0,1,.054.046A.136.136,0,0,1,7.748,2.256Z"/><path class="cls-6" d="M5.075,2.258a.069.069,0,0,0,.038-.011.037.037,0,0,0,.019-.031c0-.028-.039-.051-.04-.052l-.006.01c.009.006.034.025.035.042a.025.025,0,0,1-.014.021.063.063,0,0,1-.058,0,.057.057,0,0,1-.032-.049.046.046,0,0,1,.014-.041A.089.089,0,0,1,5.1,2.134a.141.141,0,0,1,.029.015.63.63,0,0,0,.151.068.471.471,0,0,0,.148.014h.018l-.015-.01a.263.263,0,0,1-.053-.044.094.094,0,0,1-.013-.041.266.266,0,0,0,.143.054.731.731,0,0,0,.144-.007l.015,0L5.65,2.17a.486.486,0,0,1-.062-.048.07.07,0,0,1-.018-.036.712.712,0,0,0,.145,0A1.037,1.037,0,0,0,5.9,2l-.006-.01a1.054,1.054,0,0,1-.179.085.762.762,0,0,1-.149,0H5.556v.007a.08.08,0,0,0,.022.051.4.4,0,0,0,.051.041.79.79,0,0,1-.126,0,.262.262,0,0,1-.147-.059l-.01-.009v.013a.128.128,0,0,0,.016.061.2.2,0,0,0,.041.037.441.441,0,0,1-.126-.014.623.623,0,0,1-.148-.067A.128.128,0,0,0,5.1,2.122a.1.1,0,0,0-.076.02A.057.057,0,0,0,5,2.193a.069.069,0,0,0,.039.059A.076.076,0,0,0,5.075,2.258Z"/><path class="cls-5" d="M3.268,1.239s.071.141.367.166c.082.007.121.128.134.178a.274.274,0,0,0-.039-.241.189.189,0,0,1-.024-.121.355.355,0,0,0-.038-.188A.192.192,0,0,0,3.516.949a.1.1,0,0,0-.077.028.078.078,0,0,1-.026.017.124.124,0,0,1-.057,0,.165.165,0,0,0-.031,0,.019.019,0,0,0-.014,0c-.008.008,0,.028,0,.043s.008.026,0,.029C3.228,1.1,3.268,1.238,3.268,1.239Z"/><path class="cls-6" d="M3.739,1.335a.184.184,0,0,1-.022-.113.363.363,0,0,0-.039-.193.2.2,0,0,0-.162-.09.112.112,0,0,0-.084.031.068.068,0,0,1-.023.015.116.116,0,0,1-.051,0,.182.182,0,0,0-.033,0A.029.029,0,0,0,3.3.983c-.013.013,0,.036,0,.054l0,.016c-.093.039-.053.183-.05.19s.073.147.376.173c.093.008.129.188.129.19l0,.02.007-.019A.3.3,0,0,0,3.739,1.335Zm-.424-.272c.009,0,.005-.014,0-.029S3.3,1,3.31.991a.019.019,0,0,1,.014,0,.165.165,0,0,1,.031,0,.124.124,0,0,0,.057,0A.078.078,0,0,0,3.439.977.1.1,0,0,1,3.516.949a.192.192,0,0,1,.152.085.355.355,0,0,1,.038.188.189.189,0,0,0,.024.121.274.274,0,0,1,.039.241c-.013-.05-.052-.171-.134-.178-.3-.025-.367-.165-.367-.166S3.228,1.1,3.314,1.063Z"/><path class="cls-5" d="M8.174,1.239s-.071.141-.367.166c-.082.007-.121.128-.134.178a.274.274,0,0,1,.039-.241.189.189,0,0,0,.024-.121.355.355,0,0,1,.038-.188A.192.192,0,0,1,7.926.949.1.1,0,0,1,8,.977.078.078,0,0,0,8.03.994a.124.124,0,0,0,.057,0,.166.166,0,0,1,.031,0,.019.019,0,0,1,.014,0c.008.008,0,.028,0,.043s-.009.026,0,.029C8.214,1.1,8.174,1.238,8.174,1.239Z"/><path class="cls-6" d="M7.668,1.607l.007.019,0-.02s.036-.182.129-.19c.3-.026.373-.167.376-.173s.043-.151-.051-.19l0-.016c.006-.019.014-.042,0-.054A.029.029,0,0,0,8.118.976a.181.181,0,0,0-.033,0,.116.116,0,0,1-.051,0A.067.067,0,0,1,8.01.968.112.112,0,0,0,7.926.938a.2.2,0,0,0-.162.09.364.364,0,0,0-.039.193.184.184,0,0,1-.021.113A.3.3,0,0,0,7.668,1.607Zm.506-.367s-.071.141-.367.166c-.082.007-.121.128-.134.178a.274.274,0,0,1,.039-.241.189.189,0,0,0,.024-.121.355.355,0,0,1,.038-.188A.192.192,0,0,1,7.926.949.1.1,0,0,1,8,.977.078.078,0,0,0,8.03.994a.124.124,0,0,0,.057,0,.166.166,0,0,1,.031,0,.019.019,0,0,1,.014,0c.008.008,0,.028,0,.043s-.009.026,0,.029C8.214,1.1,8.174,1.238,8.174,1.239Z"/><path class="cls-5" d="M3.268,5.212s.071-.14.367-.166c.082-.007.121-.128.134-.178a.274.274,0,0,1-.039.241.189.189,0,0,0-.024.121.355.355,0,0,1-.038.188.192.192,0,0,1-.152.085.1.1,0,0,1-.077-.028.078.078,0,0,0-.026-.017.124.124,0,0,0-.057,0,.174.174,0,0,1-.031,0,.019.019,0,0,1-.014,0c-.008-.008,0-.028,0-.043s.008-.026,0-.029C3.228,5.354,3.268,5.213,3.268,5.212Z"/><path class="cls-6" d="M3.774,4.844l-.007-.019,0,.02s-.036.182-.129.19c-.3.026-.373.167-.376.173s-.043.151.05.19l0,.016c-.006.019-.014.042,0,.054a.029.029,0,0,0,.021.007.182.182,0,0,0,.033,0,.116.116,0,0,1,.051,0,.067.067,0,0,1,.023.015.111.111,0,0,0,.084.031.2.2,0,0,0,.162-.09.363.363,0,0,0,.039-.193.184.184,0,0,1,.022-.113A.3.3,0,0,0,3.774,4.844Zm-.506.367s.071-.14.367-.166c.082-.007.121-.128.134-.178a.274.274,0,0,1-.039.241.189.189,0,0,0-.024.121.355.355,0,0,1-.038.188.192.192,0,0,1-.152.085.1.1,0,0,1-.077-.028.078.078,0,0,0-.026-.017.124.124,0,0,0-.057,0,.174.174,0,0,1-.031,0,.019.019,0,0,1-.014,0c-.008-.008,0-.028,0-.043s.008-.026,0-.029C3.228,5.354,3.268,5.213,3.268,5.212Z"/><path class="cls-5" d="M8.174,5.212s-.071-.14-.367-.166c-.082-.007-.121-.128-.134-.178a.274.274,0,0,0,.039.241.189.189,0,0,1,.024.121.355.355,0,0,0,.038.188.192.192,0,0,0,.152.085A.1.1,0,0,0,8,5.474a.078.078,0,0,1,.026-.017.124.124,0,0,1,.057,0,.175.175,0,0,0,.031,0,.019.019,0,0,0,.014,0c.008-.008,0-.028,0-.043s-.009-.026,0-.029C8.214,5.354,8.174,5.213,8.174,5.212Z"/><path class="cls-6" d="M7.7,5.116a.183.183,0,0,1,.021.113.364.364,0,0,0,.039.193.2.2,0,0,0,.162.09.112.112,0,0,0,.084-.031.066.066,0,0,1,.023-.015.116.116,0,0,1,.051,0,.181.181,0,0,0,.033,0,.029.029,0,0,0,.021-.007c.013-.013.005-.036,0-.054l0-.016c.094-.039.053-.183.051-.19s-.073-.147-.376-.173c-.093-.008-.129-.188-.129-.19l0-.02-.007.019A.3.3,0,0,0,7.7,5.116Zm.424.272c-.009,0-.005.014,0,.029s.012.035,0,.043a.019.019,0,0,1-.014,0,.175.175,0,0,1-.031,0,.124.124,0,0,0-.057,0A.078.078,0,0,0,8,5.474a.1.1,0,0,1-.077.028.192.192,0,0,1-.152-.085.355.355,0,0,1-.038-.188.189.189,0,0,0-.024-.121.274.274,0,0,1-.039-.241c.013.05.052.171.134.178.3.025.367.165.367.166S8.214,5.354,8.128,5.388Z"/></g></g></svg>