<svg xmlns="http://www.w3.org/2000/svg" viewBox="0 0 8.919 6.443"><defs><style>.cls-1{fill:#d31f0d;}.cls-2{fill:#f9d230;}</style></defs><title>Китай</title><g id="Слой_2" data-name="Слой 2"><g id="flags"><rect class="cls-1" width="8.919" height="6.443"/><polygon class="cls-2" points="1.647 0.907 1.85 1.485 2.463 1.5 1.977 1.873 2.151 2.46 1.647 2.113 1.142 2.46 1.317 1.873 0.83 1.5 1.443 1.485 1.647 0.907"/><polygon class="cls-2" points="3.193 0.642 3.181 0.838 3.36 0.919 3.169 0.968 3.148 1.164 3.042 0.998 2.85 1.037 2.975 0.886 2.878 0.715 3.06 0.787 3.193 0.642"/><polygon class="cls-2" points="3.524 1.229 3.67 1.361 3.845 1.272 3.764 1.451 3.903 1.59 3.707 1.569 3.618 1.744 3.578 1.551 3.384 1.52 3.555 1.423 3.524 1.229"/><polygon class="cls-2" points="3.677 2.058 3.743 2.243 3.939 2.247 3.784 2.367 3.841 2.555 3.679 2.445 3.518 2.557 3.573 2.369 3.416 2.25 3.612 2.244 3.677 2.058"/><polygon class="cls-2" points="3.191 2.642 3.18 2.838 3.359 2.918 3.169 2.968 3.148 3.163 3.042 2.998 2.85 3.039 2.974 2.887 2.876 2.716 3.06 2.787 3.191 2.642"/></g></g></svg>