<svg xmlns="http://www.w3.org/2000/svg" viewBox="0 0 8.919 6.443"><defs><style>.cls-1{fill:#04369b;}.cls-2{fill:#e5e5e5;}.cls-3{fill:#c40e2d;}</style></defs><title>Куба</title><g id="Слой_2" data-name="Слой 2"><g id="flags"><polygon class="cls-1" points="0 0 1.584 1.289 8.919 1.289 8.919 0 0 0"/><polygon class="cls-2" points="3.168 2.577 8.919 2.577 8.919 1.289 1.584 1.289 3.168 2.577"/><polygon class="cls-1" points="3.963 3.225 3.174 3.866 8.919 3.866 8.919 2.577 3.168 2.577 3.963 3.225"/><polygon class="cls-2" points="1.587 5.154 8.919 5.154 8.919 3.866 3.174 3.866 1.587 5.154"/><polygon class="cls-1" points="0 6.443 8.919 6.443 8.919 5.154 1.587 5.154 0 6.443"/><path class="cls-3" d="M3.174,3.866l.79-.641-.8-.647L1.584,1.289,0,0V6.443L1.587,5.155ZM.355,3.022h.679l.21-.646.21.646h.679l-.55.4.21.646-.549-.4-.55.4L.9,3.421Z"/><polygon class="cls-2" points="0.695 4.067 1.244 3.668 1.794 4.067 1.584 3.421 2.134 3.022 1.454 3.022 1.244 2.376 1.035 3.022 0.355 3.022 0.905 3.421 0.695 4.067"/></g></g></svg>