<svg xmlns="http://www.w3.org/2000/svg" viewBox="0 0 8.919 6.443"><defs><style>.cls-1{fill:#cc020d;}.cls-2{fill:#e5e5e5;}.cls-3{fill:#002d62;}.cls-4{fill:#5b9140;}.cls-5{fill:#55843a;}.cls-6{fill:#002967;}.cls-7{fill:#ce1126;}.cls-8{fill:#d2d3d1;}.cls-9{fill:#e3b800;}.cls-10{fill:#282828;}.cls-11{fill:#050505;}</style></defs><title>Доминикана</title><g id="Слой_2" data-name="Слой 2"><g id="flags"><rect class="cls-1" y="3.744" width="3.888" height="2.683"/><polygon class="cls-2" points="8.919 2.698 4.934 2.698 4.934 0 3.888 0 3.888 2.698 0 2.698 0 3.744 3.888 3.744 3.888 6.428 4.934 6.428 4.934 3.744 8.919 3.744 8.919 2.698"/><rect class="cls-3" x="4.934" y="3.744" width="3.984" height="2.699"/><rect class="cls-3" width="3.888" height="2.698"/><rect class="cls-1" x="4.934" width="3.984" height="2.698"/><polygon class="cls-4" points="4.637 3.531 4.653 3.506 4.693 3.486 4.722 3.44 4.747 3.405 4.781 3.372 4.79 3.324 4.814 3.282 4.782 3.234 4.768 3.194 4.758 3.149 4.718 3.106 4.718 3.094 4.69 3.032 4.709 3.1 4.671 3.058 4.734 3.149 4.66 3.108 4.746 3.184 4.661 3.139 4.742 3.21 4.682 3.18 4.714 3.221 4.653 3.192 4.719 3.235 4.679 3.231 4.77 3.269 4.714 3.264 4.74 3.316 4.689 3.259 4.743 3.354 4.7 3.31 4.735 3.395 4.703 3.348 4.713 3.385 4.7 3.376 4.7 3.438 4.696 3.392 4.68 3.486 4.685 3.416 4.662 3.483 4.661 3.448 4.641 3.508 4.641 3.459 4.612 3.521 4.611 3.477 4.584 3.526 4.585 3.49 4.56 3.553 4.562 3.554 4.592 3.539 4.637 3.531"/><polygon class="cls-5" points="4.845 3.321 4.892 3.262 4.841 3.3 4.871 3.241 4.838 3.254 4.879 3.186 4.832 3.216 4.857 3.161 4.797 3.202 4.845 3.128 4.782 3.172 4.822 3.097 4.772 3.142 4.799 3.059 4.763 3.118 4.763 3.058 4.735 3.113 4.735 3.053 4.721 3.099 4.718 3.094 4.718 3.106 4.758 3.149 4.768 3.194 4.782 3.234 4.814 3.282 4.79 3.324 4.781 3.372 4.747 3.405 4.722 3.44 4.693 3.486 4.653 3.506 4.637 3.531 4.592 3.539 4.562 3.554 4.619 3.566 4.687 3.553 4.641 3.537 4.7 3.541 4.666 3.518 4.726 3.523 4.694 3.505 4.766 3.512 4.717 3.485 4.765 3.495 4.736 3.463 4.771 3.477 4.767 3.448 4.794 3.462 4.798 3.444 4.874 3.421 4.832 3.415 4.88 3.388 4.831 3.389 4.887 3.361 4.845 3.357 4.888 3.317 4.845 3.321"/><path class="cls-6" d="M4.863,3a.048.048,0,0,0-.039-.032.141.141,0,0,1-.058-.021A.115.115,0,0,0,4.7,2.883c-.048-.017-.109-.009-.123-.018s0-.015-.01-.03a.334.334,0,0,0-.22,0c-.014.015,0,.021-.01.03s-.075,0-.123.018a.114.114,0,0,0-.065.062.142.142,0,0,1-.058.021A.048.048,0,0,0,4.053,3L4.1,2.987l-.033.049s.052-.048.074-.048A.121.121,0,0,0,4.2,2.975c.025-.011.046-.076.069-.062s.132,0,.132,0-.01-.032,0-.039.055-.006.055-.006.049,0,.056.006,0,.039,0,.039.1.021.132,0,.044.05.069.062a.121.121,0,0,0,.059.014c.022,0,.074.048.074.048l-.033-.049Z"/><polygon class="cls-4" points="4.525 3.604 4.553 3.611 4.525 3.581 4.451 3.581 4.377 3.581 4.349 3.611 4.377 3.604 4.349 3.625 4.387 3.625 4.357 3.635 4.387 3.635 4.349 3.657 4.387 3.649 4.355 3.679 4.427 3.636 4.451 3.63 4.475 3.636 4.546 3.679 4.514 3.649 4.553 3.657 4.514 3.635 4.545 3.635 4.514 3.625 4.553 3.625 4.525 3.604"/><path class="cls-7" d="M4.806,3.5l.006-.056a.369.369,0,0,1-.059.08c-.021.013-.02,0-.034.013a.314.314,0,0,0-.038.051.269.269,0,0,0-.119-.044.635.635,0,0,0-.243,0,.27.27,0,0,0-.12.044.312.312,0,0,0-.038-.051c-.015-.013-.014,0-.034-.013a.37.37,0,0,1-.059-.08l.006.056-.039-.025a.926.926,0,0,0,.044.09.173.173,0,0,0,.04.042.087.087,0,0,1,.034,0c.01.006.016.054.051.064a.08.08,0,0,0,.08-.024c.01-.014,0-.043,0-.043a.436.436,0,0,1,.159-.019.436.436,0,0,1,.159.019s-.012.029,0,.043a.08.08,0,0,0,.079.024c.035-.01.041-.059.051-.064a.087.087,0,0,1,.034,0,.174.174,0,0,0,.04-.042.923.923,0,0,0,.044-.09Z"/><path class="cls-4" d="M4.179,3.457a.12.12,0,0,1-.026-.027s.029,0,.031,0a.18.18,0,0,0-.006-.037s.02.023.025.024.017-.018.017-.018a.1.1,0,0,1,.006.034c0,.017,0,.02-.008.027A.037.037,0,0,1,4.179,3.457Z"/><path class="cls-4" d="M4.146,3.324a.12.12,0,0,1,0-.038s.019.023.023.021a.179.179,0,0,0,.02-.032.145.145,0,0,0,0,.034s.025,0,.025,0a.1.1,0,0,1-.018.029c-.012.012-.014.015-.024.015S4.151,3.338,4.146,3.324Z"/><path class="cls-4" d="M4.167,3.166a.123.123,0,0,1,.015-.035s.007.029.012.029a.178.178,0,0,0,.031-.02.142.142,0,0,0-.013.032s.024.009.024.009a.1.1,0,0,1-.029.018c-.016.006-.019.007-.028,0S4.165,3.18,4.167,3.166Z"/><path class="cls-4" d="M4.075,3.258a.12.12,0,0,1-.037-.01s.027-.011.027-.016A.175.175,0,0,0,4.04,3.2a.147.147,0,0,0,.034.008s.005-.025.005-.025a.1.1,0,0,1,.022.026c.008.015.01.018.007.028S4.089,3.259,4.075,3.258Z"/><path class="cls-4" d="M4.073,3.391a.12.12,0,0,1-.038,0s.024-.017.022-.022a.172.172,0,0,0-.03-.022.142.142,0,0,0,.035,0s0-.025,0-.025a.1.1,0,0,1,.028.02c.011.012.014.015.013.025S4.087,3.387,4.073,3.391Z"/><path class="cls-4" d="M4.259,3.538A.123.123,0,0,1,4.242,3.5l.029.01.006-.037a.146.146,0,0,0,.016.031s.022-.012.022-.012a.1.1,0,0,1-.005.034c-.006.016-.007.019-.016.023S4.268,3.549,4.259,3.538Z"/><path class="cls-5" d="M4.163,3.541a.122.122,0,0,1,0-.038s.021.021.025.018A.177.177,0,0,0,4.2,3.489l.005.034.025,0a.1.1,0,0,1-.015.03c-.01.013-.013.016-.023.017S4.169,3.554,4.163,3.541Z"/><path class="cls-5" d="M4.086,3.478a.122.122,0,0,1,0-.038s.021.021.025.019a.177.177,0,0,0,.017-.033l.005.034.025,0a.1.1,0,0,1-.015.03c-.01.013-.013.016-.023.017S4.091,3.491,4.086,3.478Z"/><path class="cls-5" d="M4.12,3.419A.119.119,0,0,1,4.1,3.388s.028.009.031,0a.175.175,0,0,0,0-.037.144.144,0,0,0,.021.027s.02-.016.02-.016a.1.1,0,0,1,0,.034c0,.017,0,.02-.011.026A.037.037,0,0,1,4.12,3.419Z"/><path class="cls-5" d="M4.071,3.3a.121.121,0,0,1,0-.038s.018.023.023.021a.178.178,0,0,0,.02-.031.144.144,0,0,0,0,.034s.025,0,.025,0a.1.1,0,0,1-.018.029c-.012.012-.014.015-.024.015S4.075,3.318,4.071,3.3Z"/><path class="cls-5" d="M4.165,3.275a.121.121,0,0,1-.036-.011s.028-.01.027-.015a.173.173,0,0,0-.023-.029.143.143,0,0,0,.033.01s.006-.024.006-.024a.1.1,0,0,1,.021.027c.008.015.009.018.006.028S4.179,3.275,4.165,3.275Z"/><path class="cls-5" d="M4.093,3.188a.119.119,0,0,1-.027-.026s.029,0,.031,0a.182.182,0,0,0-.008-.037s.02.022.025.023.017-.019.017-.019a.1.1,0,0,1,.007.034c0,.017,0,.02-.007.027A.037.037,0,0,1,4.093,3.188Z"/><path class="cls-5" d="M4.131,3.094a.121.121,0,0,1,.01-.037s.011.027.016.026a.173.173,0,0,0,.028-.024.142.142,0,0,0-.008.034S4.2,3.1,4.2,3.1a.1.1,0,0,1-.026.022c-.015.008-.018.01-.027.007S4.131,3.109,4.131,3.094Z"/><polygon class="cls-6" points="4.408 3.008 4.215 3.008 4.215 3.02 4.253 3.056 4.253 3.189 4.408 3.189 4.408 3.008"/><path class="cls-7" d="M4.253,3.275V3.4a.063.063,0,0,0,.015.04.077.077,0,0,0,.038.023h.1V3.275Z"/><polygon class="cls-5" points="4.641 3.056 4.679 3.02 4.679 3.008 4.491 3.008 4.491 3.189 4.641 3.189 4.641 3.056"/><path class="cls-6" d="M4.491,3.275v.192h.1a.077.077,0,0,0,.038-.023.063.063,0,0,0,.015-.04v-.13Z"/><path class="cls-7" d="M4.485,3.366a.062.062,0,0,0,.068.047.039.039,0,0,0,.037-.037V3.266Z"/><polygon class="cls-8" points="4.641 3.275 4.641 3.189 4.491 3.189 4.491 3.008 4.447 3.008 4.408 3.008 4.408 3.189 4.253 3.189 4.253 3.275 4.311 3.275 4.408 3.386 4.408 3.467 4.414 3.467 4.447 3.492 4.48 3.467 4.491 3.467 4.491 3.377 4.599 3.275 4.641 3.275"/><polygon class="cls-6" points="4.306 3.175 4.306 3.25 4.366 3.293 4.366 3.175 4.306 3.175"/><polygon class="cls-6" points="4.532 3.143 4.537 3.293 4.599 3.243 4.594 3.088 4.532 3.143"/><polygon class="cls-9" points="4.458 3.193 4.44 3.206 4.44 3.057 4.458 3.057 4.458 3.193"/><rect class="cls-9" x="4.418" y="3.072" width="0.06" height="0.021"/><polygon class="cls-9" points="4.401 3.222 4.395 3.226 4.277 3.068 4.284 3.063 4.401 3.222"/><rect class="cls-9" x="4.418" y="3.105" width="0.197" height="0.008" transform="translate(-0.686 4.842) rotate(-52.956)"/><rect class="cls-9" x="4.446" y="3.12" width="0.197" height="0.008" transform="translate(-0.673 4.91) rotate(-53.409)"/><polygon class="cls-9" points="4.478 3.207 4.484 3.213 4.632 3.083 4.626 3.077 4.478 3.207"/><polygon class="cls-9" points="4.427 3.21 4.42 3.215 4.296 3.048 4.303 3.043 4.427 3.21"/><rect class="cls-9" x="4.377" y="3.014" width="0.008" height="0.208" transform="translate(-0.987 2.81) rotate(-32.152)"/><rect class="cls-6" x="4.431" y="3.293" width="0.027" height="0.135"/><rect class="cls-6" x="4.477" y="3.258" width="0.014" height="0.073"/><rect class="cls-6" x="4.491" y="3.266" width="0.022" height="0.057"/><path class="cls-10" d="M4.447,3.5l-.035-.026H4.306a.082.082,0,0,1-.041-.024A.068.068,0,0,1,4.248,3.4V3.058L4.21,3.022V3h.474v.019l-.037.036V3.4a.068.068,0,0,1-.016.044.083.083,0,0,1-.04.024H4.482Zm-.033-.036h0l.032.023.032-.023h.11a.074.074,0,0,0,.034-.021A.057.057,0,0,0,4.636,3.4V3.054l.037-.036v0H4.22v0l.037.036V3.4a.058.058,0,0,0,.013.037.072.072,0,0,0,.035.021Z"/><polygon class="cls-8" points="4.533 3.246 4.468 3.268 4.411 3.311 4.369 3.233 4.436 3.21 4.491 3.167 4.533 3.246"/><polygon class="cls-11" points="4.466 3.269 4.433 3.211 4.438 3.209 4.47 3.267 4.466 3.269"/><path class="cls-11" d="M4.41,3.315l-.045-.084.069-.024.057-.044.045.084-.067.023Zm-.037-.081.039.073.055-.042.062-.021L4.49,3.171l-.054.041Z"/></g></g></svg>