<svg xmlns="http://www.w3.org/2000/svg" viewBox="0 0 8.919 6.443"><defs><style>.cls-1{fill:#cab000;}.cls-2{fill:#ad1519;}.cls-3{fill:none;}.cls-4{fill:#005dc7;}.cls-5{fill:#282828;}.cls-6{fill:#eaba2f;}.cls-7{fill:#e5e5e5;}.cls-8{fill:#aa9204;}.cls-9{fill:#005dc5;}.cls-10{fill:#ac1518;}.cls-11{fill:#ec71a9;}.cls-12{fill:#008f6d;}</style></defs><title>Испания</title><g id="Слой_2" data-name="Слой 2"><g id="flags"><rect class="cls-1" y="1.616" width="8.919" height="3.211"/><rect class="cls-2" width="8.919" height="1.616"/><rect class="cls-2" y="4.827" width="8.919" height="1.616"/><path class="cls-2" d="M1.632,3.59c-.064-.014-.262-.031-.262-.031l-.06-.022L1.3,3.619a.121.121,0,0,0,.082.048c.056.008.07-.011.165,0,.133,0,.16.076.16.076v-.1S1.7,3.6,1.632,3.59Z"/><ellipse class="cls-2" cx="1.516" cy="3.001" rx="0.096" ry="0.023"/><polygon class="cls-2" points="1.392 2.876 1.408 2.934 1.517 2.922 1.629 2.936 1.65 2.898 1.649 2.87 1.58 2.86 1.519 2.825 1.439 2.855 1.392 2.876"/><circle class="cls-3" cx="1.517" cy="2.86" r="0.008"/><polygon class="cls-3" points="1.419 2.989 1.419 2.989 1.419 2.989 1.419 2.989"/><circle class="cls-3" cx="1.517" cy="2.842" r="0.007"/><path class="cls-3" d="M1.49,2.85a.124.124,0,0,1-.031.018.087.087,0,0,1-.023,0,.039.039,0,0,0-.029.009c-.008.007,0,.022.006.033l.019.01a.085.085,0,0,1,0-.027h0l.023.016c0-.009.008-.028.012-.029h0s.02.016.025.021L1.5,2.889l-.01-.022Z"/><path class="cls-3" d="M1.628,2.879A.039.039,0,0,0,1.6,2.87a.088.088,0,0,1-.023,0,.13.13,0,0,1-.032-.018l0,.018-.01.021L1.54,2.9c.005-.005.021-.021.025-.021h0s.009.019.012.029L1.6,2.895h0a.081.081,0,0,1,0,.027l.016-.009C1.629,2.9,1.636,2.886,1.628,2.879Z"/><path class="cls-4" d="M1.672,2.916a.009.009,0,0,0-.007-.008l-.007.016h0A.009.009,0,0,0,1.672,2.916Z"/><path class="cls-5" d="M1.665,2.908a.009.009,0,0,1,.007.008.009.009,0,0,1-.01.008h0v0h0a.011.011,0,0,0,.012-.01.011.011,0,0,0-.008-.01Z"/><path class="cls-4" d="M1.679,2.882a.011.011,0,0,0-.01-.011h0l0,.01a.074.074,0,0,1,0,.011h0A.011.011,0,0,0,1.679,2.882Z"/><path class="cls-5" d="M1.665,2.871h0a.011.011,0,0,1,0,.023h0v0h0a.013.013,0,0,0,0-.027h0Z"/><path class="cls-4" d="M1.645,2.845l-.008,0a.051.051,0,0,1,.019.009v0A.011.011,0,0,0,1.645,2.845Z"/><path class="cls-5" d="M1.637,2.849l.008,0a.011.011,0,0,1,.011.011h0l0,0v0a.013.013,0,0,0-.013-.013.013.013,0,0,0-.01.006Z"/><path class="cls-4" d="M1.61,2.836a.011.011,0,0,0-.01.009h.021A.011.011,0,0,0,1.61,2.836Z"/><path class="cls-5" d="M1.6,2.845a.011.011,0,0,1,.021,0h0a.012.012,0,0,0-.012-.012.013.013,0,0,0-.012.011h0Z"/><ellipse class="cls-4" cx="1.576" cy="2.841" rx="0.011" ry="0.005" transform="translate(-0.481 0.326) rotate(-10.257)"/><path class="cls-5" d="M1.565,2.841a.011.011,0,0,1,.01-.006.011.011,0,0,1,.011.011h0a.013.013,0,0,0-.013-.013.013.013,0,0,0-.011.007Z"/><path class="cls-6" d="M1.545,2.838a.119.119,0,0,0,.045.016l.012,0c.031,0,.047.007.05.021a.062.062,0,0,1-.019.049v.01l.014,0h0a.063.063,0,0,0,.018-.052c0-.03-.035-.034-.067-.034H1.576a.111.111,0,0,1-.032-.016Z"/><path class="cls-6" d="M1.65,2.877c0-.012-.017-.015-.049-.019l-.012,0a.121.121,0,0,1-.045-.016v.007a.133.133,0,0,0,.033.019.085.085,0,0,0,.023,0,.041.041,0,0,1,.03.009c.009.008,0,.022,0,.034l0,0h0l0,.013A.059.059,0,0,0,1.65,2.877Z"/><path class="cls-5" d="M1.667,2.893a.074.074,0,0,0,0-.011l0-.01v0l-.007-.01,0,0a.051.051,0,0,0-.019-.009h0l-.012,0H1.577l-.011,0h0l-.017-.01h0a.107.107,0,0,0,.032.016H1.6c.032,0,.065,0,.067.034a.065.065,0,0,1-.017.052h0l.007-.009v0l.007-.016v0l0-.011Z"/><path class="cls-5" d="M1.629,2.877a.041.041,0,0,0-.03-.009.085.085,0,0,1-.023,0,.133.133,0,0,1-.033-.019v0a.13.13,0,0,0,.032.018.088.088,0,0,0,.023,0,.039.039,0,0,1,.028.009c.008.007,0,.023-.007.034l0,0C1.632,2.9,1.638,2.885,1.629,2.877Z"/><path class="cls-5" d="M1.652,2.877c0-.014-.019-.016-.05-.021l-.012,0a.119.119,0,0,1-.045-.016v0a.121.121,0,0,0,.045.016l.012,0c.031,0,.045.007.049.019a.059.059,0,0,1-.018.045v0A.062.062,0,0,0,1.652,2.877Z"/><path class="cls-4" d="M1.363,2.916a.009.009,0,0,0,.01.008h0L1.37,2.908A.009.009,0,0,0,1.363,2.916Z"/><path class="cls-5" d="M1.376,2.923h0a.009.009,0,0,1-.01-.008.009.009,0,0,1,.007-.008h0a.01.01,0,0,0-.009.009.011.011,0,0,0,.012.01h0Z"/><path class="cls-4" d="M1.355,2.882a.011.011,0,0,0,.01.011h0V2.881l0-.01h0A.011.011,0,0,0,1.355,2.882Z"/><path class="cls-5" d="M1.367,2.893h0a.011.011,0,0,1,0-.023h0v0h0a.013.013,0,0,0,0,.027h0Z"/><path class="cls-4" d="M1.389,2.845a.011.011,0,0,0-.011.011h0A.066.066,0,0,1,1.4,2.849Z"/><path class="cls-5" d="M1.379,2.858v0a.011.011,0,0,1,.011-.011l.008,0h0a.013.013,0,0,0-.01-.006.013.013,0,0,0-.013.013v0Z"/><path class="cls-4" d="M1.424,2.836a.011.011,0,0,0-.011.01h.021A.011.011,0,0,0,1.424,2.836Z"/><path class="cls-5" d="M1.414,2.846a.011.011,0,0,1,.021,0h0a.013.013,0,0,0-.012-.011.013.013,0,0,0-.013.012Z"/><ellipse class="cls-4" cx="1.459" cy="2.841" rx="0.005" ry="0.011" transform="translate(-1.588 3.799) rotate(-80.272)"/><path class="cls-5" d="M1.449,2.845a.011.011,0,0,1,.011-.011.011.011,0,0,1,.01.006h0a.011.011,0,0,0-.011-.008.013.013,0,0,0-.013.013h0Z"/><path class="cls-6" d="M1.383,2.877c0-.014.019-.016.05-.021l.012,0a.119.119,0,0,0,.044-.016V2.832a.11.11,0,0,1-.031.015H1.437c-.032,0-.065,0-.067.034a.064.064,0,0,0,.018.052h0l.014,0V2.928C1.4,2.919,1.378,2.9,1.383,2.877Z"/><path class="cls-6" d="M1.405,2.877a.041.041,0,0,1,.03-.009.086.086,0,0,0,.023,0,.128.128,0,0,0,.032-.018V2.84a.12.12,0,0,1-.044.015l-.012,0c-.031,0-.045.007-.049.019s.011.038.02.048l0-.015h0C1.4,2.9,1.4,2.885,1.405,2.877Z"/><path class="cls-5" d="M1.407,2.879a.039.039,0,0,1,.029-.009.087.087,0,0,0,.023,0A.124.124,0,0,0,1.49,2.85v0a.128.128,0,0,1-.032.018.086.086,0,0,1-.023,0,.041.041,0,0,0-.03.009c-.008.007,0,.021,0,.033h0C1.405,2.9,1.4,2.886,1.407,2.879Z"/><path class="cls-5" d="M1.387,2.934a.064.064,0,0,1-.018-.052c0-.03.035-.034.067-.034h.022a.11.11,0,0,0,.031-.015h0l-.016.009h0l-.011,0H1.412l-.012,0h0a.052.052,0,0,0-.02.009l0,0-.007.01v0l0,.01a.08.08,0,0,0,0,.011v0l0,.011v0l.007.016h0l.007.009Z"/><path class="cls-5" d="M1.385,2.877c0-.012.017-.015.049-.019l.012,0a.12.12,0,0,0,.044-.015v0a.119.119,0,0,1-.044.016l-.012,0c-.031,0-.047.007-.05.021s.013.042.021.051v0C1.4,2.915,1.38,2.895,1.385,2.877Z"/><path class="cls-6" d="M1.527,2.828l-.011,0-.009,0A.03.03,0,0,0,1.5,2.85a.047.047,0,0,0,.01.028l.006,0v0s-.009,0-.009-.009a.011.011,0,0,1,.01-.01.01.01,0,0,1,.01.01c0,.006-.006.008-.009.009v0l.006,0a.047.047,0,0,0,.01-.029A.029.029,0,0,0,1.527,2.828Zm-.01.02h0s-.009,0-.009-.006.008-.007.008-.007h0s.009,0,.009.007S1.517,2.848,1.517,2.848Z"/><path class="cls-6" d="M1.543,2.83s-.006-.006-.007-.009v0l0,0,0,.006a.031.031,0,0,1,.007.023.048.048,0,0,1-.011.03l0,.006.009-.02A.125.125,0,0,0,1.543,2.83Z"/><path class="cls-6" d="M1.505,2.827l0,0h0v0l0,0-.008,0a.123.123,0,0,0,0,.036l.009.021,0-.007A.048.048,0,0,1,1.5,2.85.032.032,0,0,1,1.505,2.827Z"/><path class="cls-4" d="M1.511,2.766h0s-.014,0-.014.014a.018.018,0,0,0,0,.014h.012l0,0,0,0h.012a.017.017,0,0,0,0-.014c0-.011-.014-.014-.014-.014H1.511Z"/><path class="cls-6" d="M1.526,2.746l0,0a.009.009,0,0,0,.007,0,.009.009,0,0,0,.008-.009.007.007,0,0,0-.008-.007h0l-.006,0,0,0h0a.008.008,0,0,1,0-.007l0,0,0,0-.009-.008-.009.008,0,0,0,0a.008.008,0,0,1,0,.007h0l0,0-.006,0s-.009,0-.009.007a.008.008,0,0,0,.007.009h0l.007,0,0,0,0,0h0v.017h.012V2.748Z"/><path class="cls-6" d="M1.5,2.825l0,0,0,0,0,0a.01.01,0,0,0,.011.008.018.018,0,0,0,.015-.01l0,0,0,0,.005.007h0l.007,0,0,0-.013,0V2.8A.013.013,0,0,0,1.533,2.8h-.01L1.516,2.8,1.511,2.8H1.5a.013.013,0,0,0-.009.007v.015l-.012,0,0,0,.007,0h0Z"/><path class="cls-5" d="M1.489,2.832V2.85l0,.018.01.022v0l-.009-.021a.123.123,0,0,1,0-.036h0v0h0l-.007,0,0,0,.012,0V2.8A.013.013,0,0,1,1.5,2.8h0v0a.018.018,0,0,1,0-.014c0-.011.013-.014.014-.014h0V2.749h0l0,0,0,0-.007,0h0a.009.009,0,0,1-.008-.009c0-.007.007-.007.009-.007l.006,0,0,0h0a.008.008,0,0,0,0-.007l0,0,0,0,.009-.008.009.008,0,0,0,0a.008.008,0,0,0,0,.007h0l0,0,.006,0h0a.007.007,0,0,1,.008.007.008.008,0,0,1-.007.009.009.009,0,0,1-.008,0l0,0,0,0v.018h0s.014,0,.014.014a.017.017,0,0,1,0,.014h0v0h0a.013.013,0,0,1,.009.007v.015l.013,0,0,0-.006,0h0v0h0a.14.14,0,0,1,0,.036l-.009.02v0l.01-.021,0-.018V2.831h0l0,0,.006-.006v0h0l-.013,0v0a.02.02,0,0,0,0-.011.014.014,0,0,0-.009-.008.02.02,0,0,0,0-.015c0-.011-.011-.015-.015-.016V2.749h0a.011.011,0,0,0,.009,0h0a.011.011,0,0,0,.009-.011.009.009,0,0,0-.01-.009h0l-.007,0h0V2.731l0,0,0-.005c0-.006-.01-.01-.011-.01h0s-.011,0-.011.01l0,.005,0,0v.005h0l-.007,0h0a.009.009,0,0,0-.01.009.011.011,0,0,0,.009.011h0a.011.011,0,0,0,.009,0h0v.016s-.015,0-.015.016a.02.02,0,0,0,0,.015A.014.014,0,0,0,1.49,2.8a.021.021,0,0,0,0,.011v0l-.013,0h0l.006.007.005,0h0Z"/><path class="cls-5" d="M1.527,2.861a.01.01,0,0,0-.01-.01.011.011,0,0,0-.01.01c0,.006.006.008.009.009v0h0v0S1.527,2.867,1.527,2.861Zm-.019,0c0-.008.008-.008.008-.008s.008,0,.008.008-.007.007-.008.007S1.509,2.867,1.509,2.861Z"/><path class="cls-5" d="M1.517,2.835h0s-.008,0-.008.007.008.006.009.006h0s.008,0,.008-.006S1.518,2.835,1.517,2.835Zm-.007.007.007-.005.007.005-.007,0Z"/><circle class="cls-6" cx="1.556" cy="2.965" r="0.002"/><circle class="cls-6" cx="1.42" cy="2.978" r="0.005"/><circle class="cls-6" cx="1.616" cy="2.978" r="0.005"/><circle class="cls-6" cx="1.548" cy="2.96" r="0.002"/><circle class="cls-6" cx="1.477" cy="2.957" r="0.002"/><polygon class="cls-6" points="1.602 2.965 1.585 2.96 1.585 2.96 1.581 2.962 1.58 2.965 1.581 2.967 1.582 2.969 1.599 2.974 1.603 2.972 1.604 2.969 1.604 2.967 1.602 2.965"/><path class="cls-6" d="M1.526,2.947a.213.213,0,0,0-.118.027h0a.012.012,0,0,0,0,.009l.007,0h0v0s.027-.021.1-.021.089.016.092.021l0,0h0l.007,0a.012.012,0,0,0,0-.009S1.6,2.947,1.526,2.947Zm.03,0,0,0,0,0,0,0Zm-.078,0,0,0,0,0,0,0Zm-.057.033-.006-.007.006-.007.006.007Zm.036-.013-.017,0h0l0,0V2.967l0,0,.017,0,.006,0v0Zm.013-.006,0,0,0,0,0,0Zm.008.005,0,0,0,0,0,0Zm.008-.005,0,0,0,0,0,0Zm.048,0-.006.006H1.506l0,0,0,0v0l.006-.006h.021l0,0,0,0Zm.014,0,0,0,0,0,0,0Zm.008.006,0,0,0,0,0,0Zm.008-.006,0,0,0,0,0,0Zm.042.005v0l0,0h0l-.017,0,0,0V2.962l.006,0,.017,0,0,0Zm.01.015L1.61,2.978l.006-.007.006.007Z"/><circle class="cls-6" cx="1.556" cy="2.955" r="0.002"/><path class="cls-6" d="M1.526,2.932a.222.222,0,0,0-.122.029l0,.008,0,0a.215.215,0,0,1,.119-.028c.076,0,.1.024.1.028l0,0,0-.008S1.606,2.932,1.526,2.932Z"/><circle class="cls-6" cx="1.469" cy="2.961" r="0.002"/><circle class="cls-6" cx="1.477" cy="2.967" r="0.002"/><circle class="cls-6" cx="1.564" cy="2.96" r="0.002"/><circle class="cls-6" cx="1.485" cy="2.961" r="0.002"/><polygon class="cls-6" points="1.527 2.953 1.506 2.953 1.502 2.957 1.502 2.961 1.503 2.964 1.506 2.965 1.527 2.965 1.527 2.966 1.527 2.965 1.531 2.961 1.531 2.957 1.53 2.954 1.527 2.953"/><path class="cls-6" d="M1.524,2.973c-.081,0-.1.021-.1.021h0a.007.007,0,0,0,0,.009c.007.022.1.023.1.023s.093,0,.1-.023a.007.007,0,0,0,0-.008h0S1.6,2.973,1.524,2.973Zm-.007.048c-.043,0-.088-.008-.088-.02s.01-.011.026-.014h0a.309.309,0,0,1,.062-.006c.043,0,.088.008.088.02S1.56,3.021,1.516,3.021Z"/><polygon class="cls-6" points="1.456 2.964 1.453 2.961 1.452 2.962 1.436 2.966 1.434 2.968 1.434 2.969 1.435 2.973 1.438 2.975 1.455 2.97 1.457 2.967 1.456 2.964"/><path class="cls-6" d="M1.647,2.935h0l-.015,0h0l0-.026L1.6,2.924h0v0l0-.027-.022.017h0a.113.113,0,0,0-.011-.029.128.128,0,0,0-.024.022h0c-.006-.012-.018-.03-.022-.03s-.014.018-.018.03h0a.126.126,0,0,0-.024-.022.114.114,0,0,0-.011.029h0L1.437,2.9l0,.027v0h0l-.025-.013v.026h0l-.015,0h0a.044.044,0,0,0-.016.005l.007,0,.016.006.009.01a.121.121,0,0,1,.02-.011l-.008-.016h0l.008.016.027-.009-.011-.022h0l.011.022.026-.005-.007-.024h0l.008.024.032,0V2.9h0V2.93h.031l.008-.025h0l-.008.024.027,0,.011-.021h0l-.01.02a.144.144,0,0,1,.028.008l.007-.014h0l-.007.014a.074.074,0,0,1,.023.015l.009-.01.016-.006.007,0A.044.044,0,0,0,1.647,2.935Z"/><path class="cls-5" d="M1.648,2.933h0l-.014,0V2.923l0-.013h0l-.005,0,0,0-.016.009a.081.081,0,0,0,0-.027h0l-.023.016c0-.009-.008-.028-.012-.029h0s-.02.016-.025.021l-.009-.015h0L1.525,2.88h0l-.006,0h0l-.006,0h0l0,.007v0L1.5,2.9c-.005-.005-.021-.021-.025-.021h0s-.009.019-.012.029l-.023-.016h0a.085.085,0,0,0,0,.027l-.019-.01H1.406l0,.015v.011l-.014,0H1.384l-.014.007.009,0,.015.006.009.01,0,.009.005,0a.014.014,0,0,0,0,.01.01.01,0,0,0,.008.005h0v0a.009.009,0,0,0,0,.01c.007.024.1.025.1.025h0s.095,0,.1-.025a.009.009,0,0,0,0-.01v0h0a.011.011,0,0,0,.009-.005.015.015,0,0,0,0-.01l.005,0,0-.009.009-.01.015-.006.009,0s-.009-.006-.016-.007Zm.009.01-.016.006-.009.01h0l0,.008,0,0h0a.012.012,0,0,1,0,.009l-.007,0h0l0,0h0a.007.007,0,0,1,0,.009c-.007.022-.1.023-.1.023s-.093,0-.1-.023a.007.007,0,0,1,0-.008h0v0h0l-.007,0a.012.012,0,0,1,0-.009h0v0h0l0,0,0-.008h0v0h0L1.4,2.949l-.016-.006-.007,0a.044.044,0,0,1,.016-.005h0l.015,0h0V2.912l.025.013h0v0l0-.027.022.017h0a.114.114,0,0,1,.011-.029.126.126,0,0,1,.024.022h0c0-.011.014-.03.018-.03s.016.018.022.03h0a.128.128,0,0,1,.024-.022.113.113,0,0,1,.011.029h0L1.6,2.9l0,.027v0h0l.025-.013,0,.026h0l.015,0h0a.044.044,0,0,1,.017.005Z"/><path class="cls-5" d="M1.524,2.971c-.076,0-.1.018-.1.021h0s.021-.021.1-.021.091.021.091.021h0S1.594,2.971,1.524,2.971Z"/><path class="cls-5" d="M1.61,2.944h0a.144.144,0,0,0-.028-.008h0l-.027,0H1.516l-.032,0h0l-.026.005h0l-.027.009h0a.121.121,0,0,0-.02.011h0v0h0a.222.222,0,0,1,.122-.029c.079,0,.1.028.105.029h0A.074.074,0,0,0,1.61,2.944Z"/><path class="cls-5" d="M1.526,2.945a.215.215,0,0,0-.119.028h0v0h0a.213.213,0,0,1,.118-.027c.078,0,.1.026.1.028h0S1.6,2.945,1.526,2.945Z"/><path class="cls-5" d="M1.42,2.971l-.006.007.006.007.006-.007Zm0,.012,0-.005,0,0,0,0Z"/><path class="cls-5" d="M1.616,2.971l-.006.007.006.007.006-.007Zm0,.012,0-.005,0,0,0,0Z"/><path class="cls-5" d="M1.458,2.963l-.006,0-.017,0,0,0v.007l0,0h0l.017,0,0-.006Zm0,.007-.017,0,0,0V2.968l0,0,.017,0h0l0,0v0Z"/><path class="cls-5" d="M1.528,2.951H1.506L1.5,2.957v0l0,0,0,0h.021l.006-.006v0l0,0Zm0,.01,0,0H1.5l0,0v0l0,0H1.53l0,0Z"/><path class="cls-5" d="M1.6,2.963l-.017,0-.006,0v.007l0,0,.017,0h0l0,0V2.966Zm0,.006v0l0,0-.017,0h0V2.962l0,0h0l.017,0h0Z"/><path class="cls-5" d="M1.469,2.957l0,0,0,0,0,0Zm0,.007,0,0,0,0,0,0Z"/><path class="cls-5" d="M1.485,2.957l0,0,0,0,0,0Zm0,.007,0,0,0,0,0,0Z"/><path class="cls-5" d="M1.477,2.961l0,0,0,0,0,0Zm0-.007,0,0,0,0,0,0Z"/><path class="cls-5" d="M1.477,2.963l0,0,0,0,0,0Zm0,.007,0,0,0,0,0,0Z"/><path class="cls-5" d="M1.564,2.955l0,0,0,0,0,0Zm0,.007,0,0,0,0,0,0Z"/><path class="cls-5" d="M1.547,2.955l0,0,0,0,0,0Zm0,.007,0,0,0,0,0,0Z"/><path class="cls-5" d="M1.556,2.959l0,0,0,0,0,0Zm0-.007,0,0,0,0,0,0Z"/><path class="cls-5" d="M1.556,2.961l0,0,0,0,0,0Zm0,.007,0,0,0,0,0,0Z"/><polygon class="cls-5" points="1.518 2.931 1.518 2.93 1.518 2.896 1.516 2.896 1.516 2.93 1.516 2.931 1.518 2.931"/><polygon class="cls-5" points="1.484 2.934 1.484 2.933 1.477 2.908 1.475 2.909 1.482 2.933 1.482 2.934 1.484 2.934"/><polygon class="cls-5" points="1.456 2.939 1.456 2.938 1.445 2.916 1.443 2.917 1.454 2.939 1.454 2.939 1.456 2.939"/><polygon class="cls-5" points="1.427 2.948 1.427 2.948 1.418 2.931 1.416 2.932 1.425 2.948 1.425 2.949 1.427 2.948"/><polygon class="cls-5" points="1.551 2.932 1.551 2.931 1.559 2.906 1.557 2.906 1.549 2.931 1.549 2.931 1.551 2.932"/><polygon class="cls-5" points="1.579 2.936 1.58 2.935 1.59 2.915 1.589 2.914 1.578 2.935 1.578 2.935 1.579 2.936"/><polygon class="cls-5" points="1.609 2.945 1.61 2.944 1.617 2.93 1.615 2.929 1.608 2.943 1.607 2.944 1.609 2.945"/><polygon class="cls-5" points="1.516 2.801 1.522 2.796 1.531 2.796 1.534 2.796 1.534 2.794 1.533 2.794 1.521 2.794 1.521 2.794 1.516 2.799 1.513 2.794 1.513 2.794 1.501 2.793 1.501 2.794 1.501 2.795 1.504 2.796 1.511 2.796 1.516 2.801"/><path class="cls-5" d="M1.5,2.823v0h0l0,0h0v0h0l.009,0,.011,0h0v0h0l0-.006,0,0v0s0,.008.007.009h0v0h0l-.005-.007,0,0,0,0a.018.018,0,0,1-.015.01A.01.01,0,0,1,1.5,2.822l0,0,0,0,0,0-.006,0h0v0h0l.008,0Z"/><path class="cls-5" d="M1.507,2.829h0v0h0A.032.032,0,0,0,1.5,2.85a.048.048,0,0,0,.011.03h0A.047.047,0,0,1,1.5,2.85.03.03,0,0,1,1.507,2.829Z"/><path class="cls-5" d="M1.528,2.827h0v0h0a.029.029,0,0,1,.007.022.047.047,0,0,1-.01.029h0a.048.048,0,0,0,.011-.03A.031.031,0,0,0,1.528,2.827Z"/><rect class="cls-7" x="1.41" y="3.145" width="0.214" height="1.044"/><polygon class="cls-8" points="1.647 4.267 1.647 4.189 1.387 4.189 1.387 4.267 1.357 4.267 1.357 4.345 1.678 4.345 1.678 4.267 1.647 4.267"/><polygon class="cls-8" points="1.357 2.989 1.357 3.067 1.387 3.067 1.387 3.145 1.647 3.145 1.647 3.067 1.678 3.067 1.678 2.989 1.357 2.989"/><rect class="cls-9" x="1.309" y="4.345" width="0.416" height="0.156"/><path class="cls-2" d="M1.866,3.439a.5.5,0,0,0-.349-.059c-.228.03-.26.126-.26.126l.043.113A.35.35,0,0,1,1.586,3.5c.215-.009.28.054.28.054Z"/><path class="cls-2" d="M1.657,3.667a2.706,2.706,0,0,0-.367.2c-.029.039.01.108.01.108l.049.082s.05-.04.031-.079-.021-.023-.014-.048a1.458,1.458,0,0,0,.166-.074,1.209,1.209,0,0,0,.176-.115Z"/><path class="cls-2" d="M3.354,3.59c.064-.014.262-.031.262-.031l.06-.022.009.082a.121.121,0,0,1-.082.048c-.056.008-.07-.011-.165,0-.133,0-.16.076-.16.076v-.1S3.29,3.6,3.354,3.59Z"/><ellipse class="cls-2" cx="3.47" cy="3.001" rx="0.096" ry="0.023"/><polygon class="cls-2" points="3.595 2.876 3.578 2.934 3.47 2.922 3.358 2.936 3.336 2.898 3.337 2.87 3.406 2.86 3.468 2.825 3.547 2.855 3.595 2.876"/><circle class="cls-3" cx="3.469" cy="2.86" r="0.008"/><polygon class="cls-3" points="3.567 2.989 3.567 2.989 3.567 2.989 3.567 2.989"/><circle class="cls-3" cx="3.469" cy="2.842" r="0.007"/><path class="cls-3" d="M3.5,2.85a.128.128,0,0,0,.031.018.087.087,0,0,0,.023,0,.039.039,0,0,1,.029.009c.008.007,0,.022-.006.033l-.019.01a.083.083,0,0,0,0-.027h0l-.023.016c0-.009-.009-.028-.012-.029h0s-.02.016-.025.021l-.007-.014.01-.022Z"/><path class="cls-3" d="M3.358,2.879a.039.039,0,0,1,.028-.009.088.088,0,0,0,.023,0,.13.13,0,0,0,.032-.018l0,.018.01.021L3.446,2.9c-.005-.005-.021-.021-.025-.021h0s-.009.019-.012.029l-.023-.016h0a.084.084,0,0,0,0,.027l-.016-.009C3.357,2.9,3.35,2.886,3.358,2.879Z"/><path class="cls-4" d="M3.314,2.916a.009.009,0,0,1,.007-.008l.007.016h0A.009.009,0,0,1,3.314,2.916Z"/><path class="cls-5" d="M3.321,2.908a.009.009,0,0,0-.007.008.009.009,0,0,0,.01.008h0a.011.011,0,0,1-.012-.01.011.011,0,0,1,.008-.01Z"/><path class="cls-4" d="M3.307,2.882a.011.011,0,0,1,.01-.011h0l0,.01a.088.088,0,0,0,0,.011h0A.011.011,0,0,1,3.307,2.882Z"/><path class="cls-5" d="M3.321,2.871h0a.011.011,0,0,0,0,.023h0v0h0a.013.013,0,0,1,0-.027h0Z"/><path class="cls-4" d="M3.341,2.845l.008,0a.051.051,0,0,0-.019.009v0A.011.011,0,0,1,3.341,2.845Z"/><path class="cls-5" d="M3.349,2.849l-.008,0a.011.011,0,0,0-.011.011h0l0,0v0a.013.013,0,0,1,.013-.013.013.013,0,0,1,.01.006Z"/><path class="cls-4" d="M3.376,2.836a.011.011,0,0,1,.011.009H3.365A.011.011,0,0,1,3.376,2.836Z"/><path class="cls-5" d="M3.386,2.845a.011.011,0,0,0-.021,0h0a.013.013,0,0,1,.025,0h0Z"/><ellipse class="cls-4" cx="3.411" cy="2.841" rx="0.005" ry="0.011" transform="translate(0.007 5.692) rotate(-79.743)"/><path class="cls-5" d="M3.421,2.841a.011.011,0,0,0-.01-.006.011.011,0,0,0-.011.011h0a.013.013,0,0,1,.013-.013.013.013,0,0,1,.011.007Z"/><path class="cls-6" d="M3.442,2.838a.121.121,0,0,1-.045.016l-.012,0c-.031,0-.047.007-.05.021a.063.063,0,0,0,.019.049v.01l-.014,0h0a.063.063,0,0,1-.018-.052c0-.03.035-.034.067-.034H3.41a.11.11,0,0,0,.032-.016Z"/><path class="cls-6" d="M3.336,2.877c0-.012.017-.015.049-.019l.012,0a.12.12,0,0,0,.045-.016v.007a.133.133,0,0,1-.033.019.085.085,0,0,1-.023,0,.041.041,0,0,0-.03.009c-.009.008,0,.022,0,.034l0,0h0l0,.013A.059.059,0,0,1,3.336,2.877Z"/><path class="cls-5" d="M3.319,2.893a.088.088,0,0,1,0-.011l0-.01v0l.007-.01,0,0a.051.051,0,0,1,.019-.009h0l.013,0H3.41l.011,0h0l.016-.01h0a.106.106,0,0,1-.032.016H3.388c-.032,0-.065,0-.067.034a.064.064,0,0,0,.017.052h0l-.007-.009v0l-.007-.016h0l0-.012Z"/><path class="cls-5" d="M3.357,2.877a.041.041,0,0,1,.03-.009.085.085,0,0,0,.023,0,.133.133,0,0,0,.033-.019v0a.13.13,0,0,1-.032.018.088.088,0,0,1-.023,0,.039.039,0,0,0-.028.009c-.008.007,0,.023.007.034l0,0C3.354,2.9,3.348,2.885,3.357,2.877Z"/><path class="cls-5" d="M3.334,2.877c0-.014.019-.016.05-.021l.012,0a.121.121,0,0,0,.045-.016v0a.12.12,0,0,1-.045.016l-.012,0c-.031,0-.046.007-.049.019a.059.059,0,0,0,.017.045v0A.063.063,0,0,1,3.334,2.877Z"/><path class="cls-4" d="M3.624,2.916a.009.009,0,0,1-.01.008h0l.007-.016A.009.009,0,0,1,3.624,2.916Z"/><path class="cls-5" d="M3.61,2.923h0a.009.009,0,0,0,.01-.008.009.009,0,0,0-.007-.008h0a.01.01,0,0,1,.009.009.011.011,0,0,1-.012.01h0Z"/><path class="cls-4" d="M3.631,2.882a.011.011,0,0,1-.01.011h0a.11.11,0,0,0,0-.011l0-.01h0A.011.011,0,0,1,3.631,2.882Z"/><path class="cls-5" d="M3.619,2.893h0a.011.011,0,0,0,0-.023h0v0h0a.013.013,0,0,1,0,.027h0Z"/><path class="cls-4" d="M3.6,2.845a.011.011,0,0,1,.011.011h0a.065.065,0,0,0-.019-.008Z"/><path class="cls-5" d="M3.608,2.858v0A.011.011,0,0,0,3.6,2.845l-.008,0h0a.011.011,0,0,1,.01-.006.013.013,0,0,1,.013.013v0Z"/><path class="cls-4" d="M3.562,2.836a.011.011,0,0,1,.011.01H3.552A.011.011,0,0,1,3.562,2.836Z"/><path class="cls-5" d="M3.573,2.846a.011.011,0,0,0-.021,0h0a.013.013,0,0,1,.025,0Z"/><ellipse class="cls-4" cx="3.527" cy="2.841" rx="0.011" ry="0.005" transform="translate(-0.45 0.673) rotate(-10.257)"/><path class="cls-5" d="M3.537,2.845a.011.011,0,0,0-.011-.011.011.011,0,0,0-.01.006h0a.013.013,0,0,1,.011-.007.013.013,0,0,1,.013.013h0Z"/><path class="cls-6" d="M3.6,2.877c0-.014-.019-.016-.05-.021l-.012,0A.118.118,0,0,1,3.5,2.838V2.832a.11.11,0,0,0,.031.015H3.55c.032,0,.066,0,.068.034a.065.065,0,0,1-.018.052h0l-.014,0V2.928C3.59,2.919,3.609,2.9,3.6,2.877Z"/><path class="cls-6" d="M3.581,2.877a.041.041,0,0,0-.03-.009.086.086,0,0,1-.023,0A.127.127,0,0,1,3.5,2.847V2.84a.12.12,0,0,0,.044.015l.012,0c.031,0,.045.007.049.019s-.011.038-.019.048l0-.015h0C3.584,2.9,3.589,2.885,3.581,2.877Z"/><path class="cls-5" d="M3.58,2.879a.039.039,0,0,0-.029-.009.087.087,0,0,1-.023,0A.128.128,0,0,1,3.5,2.85v0a.127.127,0,0,0,.032.018.086.086,0,0,0,.023,0,.041.041,0,0,1,.03.009c.008.007,0,.021,0,.033h0C3.581,2.9,3.587,2.886,3.58,2.879Z"/><path class="cls-5" d="M3.6,2.934a.065.065,0,0,0,.018-.052c0-.03-.035-.034-.068-.034H3.528A.11.11,0,0,1,3.5,2.832h0l.016.009h0l.011,0h.046l.012,0h0a.051.051,0,0,1,.019.009l0,0,.007.01h0l0,.011a.11.11,0,0,1,0,.011v0l0,.011v0l-.007.016h0L3.6,2.934Z"/><path class="cls-5" d="M3.6,2.877c0-.012-.017-.015-.049-.019l-.012,0A.12.12,0,0,1,3.5,2.84v0a.118.118,0,0,0,.044.016l.012,0c.031,0,.047.007.05.021s-.013.042-.021.051v0C3.591,2.915,3.606,2.895,3.6,2.877Z"/><path class="cls-6" d="M3.453,2.85a.047.047,0,0,0,.01.029l.006,0v0s-.009,0-.009-.009a.01.01,0,0,1,.01-.01.011.011,0,0,1,.01.01.01.01,0,0,1-.009.009v0l.006,0a.047.047,0,0,0,.01-.028.031.031,0,0,0-.006-.021l-.009,0-.011,0A.028.028,0,0,0,3.453,2.85Zm.008-.008s.008-.007.008-.007h0s.008,0,.008.007-.008.006-.008.006h0S3.461,2.847,3.461,2.842Z"/><path class="cls-6" d="M3.444,2.83s.006-.006.007-.009v0l0,0,0,.006a.031.031,0,0,0-.007.023.048.048,0,0,0,.011.03l0,.006-.009-.02A.125.125,0,0,1,3.444,2.83Z"/><path class="cls-6" d="M3.481,2.827l0,0h0v0l0,0,.008,0a.123.123,0,0,1,0,.036l-.01.021,0-.007a.048.048,0,0,0,.01-.03A.032.032,0,0,0,3.481,2.827Z"/><path class="cls-4" d="M3.476,2.766h0s.014,0,.014.014a.017.017,0,0,1,0,.014H3.473l0,0,0,0H3.453a.017.017,0,0,1,0-.014c0-.011.014-.014.014-.014h.013Z"/><path class="cls-6" d="M3.46,2.746l0,0a.009.009,0,0,1-.007,0,.009.009,0,0,1-.008-.009.007.007,0,0,1,.008-.007h0l.006,0,0,0h0a.008.008,0,0,0,0-.007l0,0,0,0,.009-.008.009.008,0,0,0,0a.008.008,0,0,0,0,.007h0l0,0,.005,0s.009,0,.009.007a.009.009,0,0,1-.007.009h0l-.007,0,0,0,0,0h0v.017H3.463V2.748Z"/><path class="cls-6" d="M3.489,2.825l0,0,0,0,0,0a.01.01,0,0,1-.011.008.019.019,0,0,1-.015-.01l0,0,0,0-.005.007h0l-.007,0,0,0,.012,0V2.8A.013.013,0,0,1,3.453,2.8h.01L3.47,2.8l0-.006h.01a.013.013,0,0,1,.009.007v.015l.012,0,0,0-.006,0h0Z"/><path class="cls-5" d="M3.5,2.832V2.85l0,.018-.01.022v0l.01-.021a.123.123,0,0,0,0-.036h0v0h0l.007,0,0,0-.012,0V2.8A.013.013,0,0,0,3.485,2.8h0v0a.017.017,0,0,0,0-.014c0-.011-.013-.014-.014-.014h0V2.749h0l0,0,0,0,.007,0h0A.009.009,0,0,0,3.5,2.743c0-.007-.007-.007-.009-.007l-.005,0,0,0h0a.008.008,0,0,1,0-.007l0,0,0,0-.009-.008-.009.008,0,0,0,0a.008.008,0,0,1,0,.007h0l0,0-.006,0h0a.007.007,0,0,0-.008.007.009.009,0,0,0,.007.009.009.009,0,0,0,.008,0l0,0,0,0v.018h0s-.014,0-.014.014a.017.017,0,0,0,0,.014h0v0h0a.013.013,0,0,0-.009.007v.015l-.012,0,0,0,.007,0h0v0h0a.125.125,0,0,0,0,.036l.009.02v0l-.01-.021,0-.018V2.831h0l0,0-.006-.006v0h0l.012,0v0a.021.021,0,0,1,0-.011.014.014,0,0,1,.009-.008.02.02,0,0,1,0-.015c0-.011.011-.015.015-.016V2.749h0a.011.011,0,0,1-.009,0h0a.011.011,0,0,1-.009-.011.009.009,0,0,1,.01-.009h0l.007,0h0V2.731l0,0,0-.005c0-.006.009-.01.011-.01h0s.011,0,.011.01l0,.005,0,0v0h0l.007,0h0a.009.009,0,0,1,.01.009.011.011,0,0,1-.009.011h0a.011.011,0,0,1-.009,0h0v.015s.015,0,.015.016a.02.02,0,0,1,0,.015A.014.014,0,0,1,3.5,2.8a.019.019,0,0,1,0,.011v0l.013,0h0L3.5,2.829l-.005,0h0Z"/><path class="cls-5" d="M3.468,2.87v0h0v0a.01.01,0,0,0,.009-.009.011.011,0,0,0-.01-.01.01.01,0,0,0-.01.01C3.459,2.867,3.465,2.869,3.468,2.87Zm0,0s-.008,0-.008-.007a.009.009,0,0,1,.008-.008s.009,0,.009.008S3.47,2.868,3.469,2.868Z"/><path class="cls-5" d="M3.461,2.842s.008.006.008.006h0s.009,0,.009-.006-.007-.007-.008-.007h0S3.461,2.838,3.461,2.842Zm.009,0-.007,0,.007-.005.007.005Z"/><circle class="cls-6" cx="3.431" cy="2.965" r="0.002"/><circle class="cls-6" cx="3.566" cy="2.978" r="0.005"/><circle class="cls-6" cx="3.37" cy="2.978" r="0.005"/><circle class="cls-6" cx="3.439" cy="2.96" r="0.002"/><circle class="cls-6" cx="3.509" cy="2.957" r="0.002"/><polygon class="cls-6" points="3.385 2.965 3.401 2.96 3.402 2.96 3.405 2.962 3.406 2.965 3.406 2.967 3.404 2.969 3.387 2.974 3.383 2.972 3.383 2.969 3.382 2.967 3.385 2.965"/><path class="cls-6" d="M3.358,2.974a.012.012,0,0,0,0,.009l.007,0h0l0,0s.022-.021.092-.021.1.018.1.021v0h0l.007,0a.012.012,0,0,0,0-.009h0a.214.214,0,0,0-.118-.027C3.383,2.947,3.36,2.972,3.358,2.974Zm.077-.02,0,0,0,0,0,0Zm.078,0,0,0,0,0,0,0Zm.046.021.006-.007.007.007-.007.007Zm-.033-.012v0l.006,0,.017,0,0,0v.007l0,0h0l-.017,0Zm-.014,0,0,0,0,0,0,0ZM3.5,2.967l0,0,0,0,0,0ZM3.5,2.961l0,0,0,0,0,0Zm-.044,0,0,0,0,0H3.48l.006.006v0l0,0,0,0H3.459l-.006-.006Zm-.019,0,0,0,0,0,0,0Zm-.008.006,0,0,0,0,0,0ZM3.418,2.96l0,0,0,0,0,0Zm-.037.006,0,0,.017,0,.006,0v.007l0,0-.017,0h0l0,0V2.966Zm-.017.012.006-.007.006.007-.006.007Z"/><circle class="cls-6" cx="3.431" cy="2.955" r="0.002"/><path class="cls-6" d="M3.46,2.932a.222.222,0,0,1,.122.029l0,.008,0,0a.215.215,0,0,0-.119-.028c-.076,0-.1.024-.1.028l0,0,0-.008S3.381,2.932,3.46,2.932Z"/><circle class="cls-6" cx="3.517" cy="2.961" r="0.002"/><circle class="cls-6" cx="3.509" cy="2.967" r="0.002"/><circle class="cls-6" cx="3.422" cy="2.96" r="0.002"/><circle class="cls-6" cx="3.501" cy="2.961" r="0.002"/><polygon class="cls-6" points="3.459 2.953 3.48 2.953 3.484 2.957 3.484 2.961 3.483 2.964 3.48 2.965 3.459 2.965 3.459 2.966 3.459 2.965 3.455 2.961 3.455 2.957 3.456 2.954 3.459 2.953"/><path class="cls-6" d="M3.371,2.994h0a.007.007,0,0,0,0,.009c.007.022.1.023.1.023s.093,0,.1-.023a.007.007,0,0,0,0-.008h0s-.021-.021-.1-.021S3.371,2.993,3.371,2.994ZM3.382,3c0-.013.045-.02.088-.02a.311.311,0,0,1,.062.006h0c.016,0,.026.008.026.014s-.045.02-.088.02S3.382,3.014,3.382,3Z"/><polygon class="cls-6" points="3.53 2.964 3.533 2.961 3.534 2.962 3.55 2.966 3.552 2.968 3.553 2.969 3.552 2.973 3.548 2.975 3.531 2.97 3.529 2.967 3.53 2.964"/><path class="cls-6" d="M3.339,2.935h0l.015,0h0l0-.026.025.013h0v0l0-.027.022.017h0a.112.112,0,0,1,.011-.029.133.133,0,0,1,.024.022h0c.006-.012.018-.03.022-.03s.014.018.018.03h0a.128.128,0,0,1,.024-.022.118.118,0,0,1,.011.029h0L3.549,2.9l0,.027v0h0l.025-.013,0,.026h0l.015,0h0a.045.045,0,0,1,.017.005l-.007,0-.016.006-.009.01a.128.128,0,0,0-.02-.011l.008-.016h0l-.008.016-.027-.009.011-.022h0l-.011.022L3.5,2.933l.007-.024h0L3.5,2.933l-.032,0V2.9h0V2.93H3.437L3.43,2.906h0l.007.024-.027,0L3.4,2.914h0l.01.02a.145.145,0,0,0-.028.008l-.007-.014h0l.007.014a.073.073,0,0,0-.023.015l-.009-.01-.016-.006-.007,0A.045.045,0,0,1,3.339,2.935Z"/><path class="cls-5" d="M3.336,2.934c-.006,0-.016,0-.016.007l.009,0,.015.006.009.01,0,.009.006,0a.014.014,0,0,0,0,.01.01.01,0,0,0,.009.005h0v0a.009.009,0,0,0,0,.01c.007.024.1.025.1.025h0s.094,0,.1-.025a.009.009,0,0,0,0-.01l0,0h0a.01.01,0,0,0,.008-.005.014.014,0,0,0,0-.01l.005,0,0-.009.009-.01.015-.006.009,0L3.6,2.934H3.6l-.014,0V2.925l0-.015H3.574l-.019.01a.083.083,0,0,0,0-.027h0l-.023.016c0-.009-.009-.028-.012-.029h0s-.02.016-.025.021l-.007-.014v0l0-.007h0l-.006,0h0l-.006,0h0l0,.006v0L3.446,2.9c-.005-.005-.021-.021-.025-.021h0s-.009.019-.012.029l-.023-.016h0a.084.084,0,0,0,0,.027l-.016-.009,0,0,0,0h0l0,.013v.014l-.014,0h0Zm-.013.007a.045.045,0,0,1,.017-.005h0l.015,0h0l0-.026.025.013h0v0l0-.027.022.017h0a.112.112,0,0,1,.011-.029.133.133,0,0,1,.024.022h0c.006-.012.018-.03.022-.03s.014.018.018.03h0a.128.128,0,0,1,.024-.022.118.118,0,0,1,.011.029h0L3.549,2.9l0,.027v0h0l.025-.013,0,.026h0l.015,0h0a.045.045,0,0,1,.017.005l-.007,0-.016.006-.009.01h0v0h0l0,.008,0,0h0v0h0a.012.012,0,0,1,0,.009l-.007,0h0v0h0a.007.007,0,0,1,0,.009c-.007.022-.1.023-.1.023s-.093,0-.1-.023a.007.007,0,0,1,0-.009h0l0,0h0l-.007,0a.012.012,0,0,1,0-.009h0l0,0,0-.008h0l-.009-.01-.016-.006Z"/><path class="cls-5" d="M3.463,2.971c.076,0,.1.018.1.021h0s-.021-.021-.1-.021-.091.021-.091.021h0S3.392,2.971,3.463,2.971Z"/><path class="cls-5" d="M3.377,2.944h0a.145.145,0,0,1,.028-.008h0l.027,0H3.47l.032,0h0l.026.005h0l.027.009h0a.128.128,0,0,1,.02.011h0v0h0a.222.222,0,0,0-.122-.029c-.079,0-.1.028-.105.029h0A.073.073,0,0,1,3.377,2.944Z"/><path class="cls-5" d="M3.46,2.945a.215.215,0,0,1,.119.028h0v0h0a.214.214,0,0,0-.118-.027c-.078,0-.1.026-.1.028h0S3.384,2.945,3.46,2.945Z"/><path class="cls-5" d="M3.56,2.978l.006.007.007-.007-.007-.007Zm0,0,0,0,0,0,0,.005Z"/><path class="cls-5" d="M3.364,2.978l.006.007.006-.007L3.37,2.971Zm0,0,0,0,0,0,0,.005Z"/><path class="cls-5" d="M3.527,2.966l0,.006.017,0h0l0,0V2.967l0,0-.017,0-.006,0Zm0,0v0l0,0h0l.017,0,0,0v.005l0,0-.017,0Z"/><path class="cls-5" d="M3.455,2.953l0,0v0l.006.006H3.48l0,0,0,0v0L3.48,2.951H3.459Zm0,0v0H3.48l0,0v.007H3.459l0,0Z"/><path class="cls-5" d="M3.381,2.966v.007l0,0h0l.017,0,0,0V2.962l-.006,0-.017,0Zm0,0h0l.017,0h0l0,0v.005l0,0-.017,0,0,0V2.967Z"/><path class="cls-5" d="M3.513,2.961l0,0,0,0,0,0Zm0,0,0,0,0,0,0,0Z"/><path class="cls-5" d="M3.5,2.961l0,0,0,0,0,0Zm0,0,0,0,0,0,0,0Z"/><path class="cls-5" d="M3.513,2.957l0,0,0,0,0,0Zm0,0,0,0,0,0,0,0Z"/><path class="cls-5" d="M3.5,2.967l0,0,0,0,0,0Zm0,0,0,0,0,0,0,0Z"/><path class="cls-5" d="M3.418,2.96l0,0,0,0,0,0Zm0,0,0,0,0,0,0,0Z"/><path class="cls-5" d="M3.434,2.96l0,0,0,0,0,0Zm0,0,0,0,0,0,0,0Z"/><path class="cls-5" d="M3.435,2.955l0,0,0,0,0,0Zm0,0,0,0,0,0,0,0Z"/><path class="cls-5" d="M3.426,2.965l0,0,0,0,0,0Zm0,0,0,0,0,0,0,0Z"/><polygon class="cls-5" points="3.468 2.931 3.468 2.93 3.468 2.896 3.47 2.896 3.47 2.93 3.47 2.931 3.468 2.931"/><polygon class="cls-5" points="3.502 2.934 3.502 2.933 3.51 2.908 3.511 2.909 3.504 2.933 3.504 2.934 3.502 2.934"/><polygon class="cls-5" points="3.53 2.939 3.53 2.938 3.542 2.916 3.543 2.917 3.532 2.939 3.532 2.939 3.53 2.939"/><polygon class="cls-5" points="3.559 2.948 3.56 2.948 3.568 2.931 3.57 2.932 3.561 2.948 3.561 2.949 3.559 2.948"/><polygon class="cls-5" points="3.435 2.932 3.435 2.931 3.428 2.906 3.43 2.906 3.437 2.931 3.437 2.931 3.435 2.932"/><polygon class="cls-5" points="3.407 2.936 3.406 2.935 3.396 2.915 3.398 2.914 3.408 2.935 3.409 2.935 3.407 2.936"/><polygon class="cls-5" points="3.377 2.945 3.377 2.944 3.369 2.93 3.371 2.929 3.379 2.943 3.379 2.944 3.377 2.945"/><polygon class="cls-5" points="3.47 2.801 3.464 2.796 3.455 2.796 3.453 2.796 3.453 2.794 3.453 2.794 3.465 2.794 3.465 2.794 3.47 2.799 3.473 2.794 3.474 2.794 3.486 2.793 3.486 2.794 3.486 2.795 3.483 2.796 3.475 2.796 3.47 2.801"/><path class="cls-5" d="M3.485,2.823v0h0l0,0h0v0h0l-.009,0-.011,0h0v0h0l0-.006,0,0v0s0,.008-.007.009h0v0h0l.005-.007,0,0,0,0a.019.019,0,0,0,.015.01.01.01,0,0,0,.011-.008l0,0,0,0,0,0,.006,0h0v0h0l-.008,0Z"/><path class="cls-5" d="M3.48,2.829h0v0h0a.032.032,0,0,1,.007.023.048.048,0,0,1-.01.03h0a.047.047,0,0,0,.01-.028A.031.031,0,0,0,3.48,2.829Z"/><path class="cls-5" d="M3.458,2.827h0v0h0a.028.028,0,0,0-.007.022.047.047,0,0,0,.01.029h0a.048.048,0,0,1-.011-.03A.031.031,0,0,1,3.458,2.827Z"/><rect class="cls-7" x="3.362" y="3.145" width="0.214" height="1.044"/><polygon class="cls-8" points="3.339 4.267 3.339 4.189 3.599 4.189 3.599 4.267 3.629 4.267 3.629 4.345 3.308 4.345 3.308 4.267 3.339 4.267"/><polygon class="cls-8" points="3.629 2.989 3.629 3.067 3.599 3.067 3.599 3.145 3.339 3.145 3.339 3.067 3.308 3.067 3.308 2.989 3.629 2.989"/><rect class="cls-9" x="3.261" y="4.345" width="0.416" height="0.156"/><path class="cls-2" d="M3.12,3.439a.5.5,0,0,1,.349-.059c.228.03.261.126.261.126l-.043.113A.35.35,0,0,0,3.4,3.5c-.215-.009-.28.054-.28.054Z"/><path class="cls-2" d="M3.329,3.667a2.711,2.711,0,0,1,.366.2c.028.039-.01.108-.01.108l-.049.082s-.05-.04-.031-.079.021-.023.014-.048a1.449,1.449,0,0,1-.166-.074,1.207,1.207,0,0,1-.176-.115Z"/><ellipse class="cls-10" cx="2.496" cy="2.95" rx="0.338" ry="0.082"/><polygon class="cls-10" points="2.932 2.511 2.875 2.715 2.493 2.676 2.1 2.724 2.025 2.59 2.029 2.492 2.269 2.456 2.487 2.332 2.767 2.438 2.932 2.511"/><path class="cls-3" d="M2.463,2.459a.03.03,0,0,1,.029-.029s.029,0,.029.029-.026.024-.029.025S2.463,2.48,2.463,2.459Z"/><polygon class="cls-3" points="2.835 2.909 2.835 2.91 2.835 2.909 2.835 2.909"/><ellipse class="cls-3" cx="2.493" cy="2.393" rx="0.024" ry="0.016"/><path class="cls-3" d="M2.588,2.42a.445.445,0,0,0,.11.062.315.315,0,0,0,.082.01.137.137,0,0,1,.1.03c.027.025,0,.076-.02.115-.021.01-.053.028-.068.037a.289.289,0,0,0-.015-.094h0a.456.456,0,0,0-.081.057c-.01-.033-.03-.1-.042-.1h0c-.014,0-.069.056-.087.075,0-.011-.013-.03-.023-.05.011-.023.027-.055.036-.077A.227.227,0,0,0,2.588,2.42Z"/><path class="cls-3" d="M2.1,2.522a.137.137,0,0,1,.1-.03.315.315,0,0,0,.082-.01A.452.452,0,0,0,2.4,2.417a.237.237,0,0,0,.012.065c.009.021.023.052.035.075-.014.021-.027.043-.032.053-.018-.018-.074-.075-.087-.075h0c-.012,0-.032.068-.042.1A.456.456,0,0,0,2.2,2.579h0a.291.291,0,0,0-.015.094l-.057-.031C2.1,2.6,2.074,2.548,2.1,2.522Z"/><path class="cls-4" d="M1.948,2.652a.031.031,0,0,1,.025-.028A.234.234,0,0,0,2,2.679l-.013,0A.033.033,0,0,1,1.948,2.652Z"/><path class="cls-5" d="M1.972,2.624a.031.031,0,0,0-.025.028.033.033,0,0,0,.035.03l.013,0,0,.006-.017,0a.04.04,0,0,1-.042-.037.037.037,0,0,1,.03-.035Z"/><path class="cls-4" d="M1.922,2.532a.038.038,0,0,1,.035-.04l.014,0a.123.123,0,0,0-.007.035.288.288,0,0,0,0,.041H1.957A.038.038,0,0,1,1.922,2.532Z"/><path class="cls-5" d="M1.971,2.5l-.014,0a.04.04,0,0,0,0,.079h.006v.007H1.957a.047.047,0,0,1,0-.093.038.038,0,0,1,.016,0Z"/><path class="cls-4" d="M2.041,2.4a.037.037,0,0,1,.029.015A.178.178,0,0,0,2,2.45V2.443A.039.039,0,0,1,2.041,2.4Z"/><path class="cls-5" d="M2.07,2.418A.037.037,0,0,0,2.041,2.4.039.039,0,0,0,2,2.443V2.45L2,2.456l0-.012A.046.046,0,0,1,2.041,2.4a.044.044,0,0,1,.037.02Z"/><path class="cls-4" d="M2.164,2.374A.038.038,0,0,1,2.2,2.4a.715.715,0,0,0-.074,0A.038.038,0,0,1,2.164,2.374Z"/><path class="cls-5" d="M2.2,2.4a.037.037,0,0,0-.074,0H2.119a.045.045,0,0,1,.089,0H2.2Z"/><path class="cls-4" d="M2.289,2.367a.038.038,0,0,1,.034.022.186.186,0,0,1-.04.015l-.031,0A.039.039,0,0,1,2.289,2.367Z"/><path class="cls-5" d="M2.323,2.389a.038.038,0,0,0-.034-.022.039.039,0,0,0-.038.038H2.244a.046.046,0,0,1,.044-.046.045.045,0,0,1,.04.026Z"/><path class="cls-6" d="M2.4,2.377a.416.416,0,0,1-.158.058l-.043.007c-.109.017-.164.026-.176.074a.219.219,0,0,0,.068.171v.037a.175.175,0,0,0-.049-.01h0a.226.226,0,0,1-.061-.183c.007-.1.124-.119.237-.119h.02a.357.357,0,0,0,.056,0A.4.4,0,0,0,2.4,2.355S2.4,2.368,2.4,2.377Z"/><path class="cls-6" d="M2.025,2.517c.011-.043.061-.051.171-.068l.043-.007A.425.425,0,0,0,2.4,2.385v.024a.465.465,0,0,1-.114.066.306.306,0,0,1-.08.01.142.142,0,0,0-.1.032c-.03.027-.009.079.016.12L2.1,2.63h0a.114.114,0,0,0-.006.045A.207.207,0,0,1,2.025,2.517Z"/><path class="cls-5" d="M1.963,2.571a.288.288,0,0,1,0-.041A.123.123,0,0,1,1.971,2.5l0-.006A.106.106,0,0,1,2,2.456L2,2.45a.178.178,0,0,1,.067-.032l.007,0,.041-.007h.007a.715.715,0,0,1,.074,0h.051l.031,0a.186.186,0,0,0,.04-.015l.006,0a.662.662,0,0,0,.058-.033H2.4v0a.4.4,0,0,1-.112.055.357.357,0,0,1-.056,0h-.02c-.113,0-.23.014-.237.119a.226.226,0,0,0,.061.183H2.023A.185.185,0,0,1,2,2.685l0-.006a.234.234,0,0,1-.023-.055l0-.007a.266.266,0,0,1-.006-.039Z"/><path class="cls-5" d="M2.1,2.516a.142.142,0,0,1,.1-.032.306.306,0,0,0,.08-.01A.465.465,0,0,0,2.4,2.409v.008a.452.452,0,0,1-.113.064.315.315,0,0,1-.082.01.137.137,0,0,0-.1.03c-.028.026,0,.08.023.121l-.012-.006C2.088,2.6,2.067,2.544,2.1,2.516Z"/><path class="cls-5" d="M2.018,2.515c.012-.048.067-.056.176-.074l.043-.007A.416.416,0,0,0,2.4,2.377v.008a.425.425,0,0,1-.157.056L2.2,2.449c-.11.017-.16.025-.171.068a.207.207,0,0,0,.062.159v.01A.219.219,0,0,1,2.018,2.515Z"/><path class="cls-4" d="M3.035,2.652A.033.033,0,0,1,3,2.681l-.013,0a.231.231,0,0,0,.023-.055A.031.031,0,0,1,3.035,2.652Z"/><path class="cls-5" d="M2.987,2.679l.013,0a.033.033,0,0,0,.035-.03.031.031,0,0,0-.025-.028l0-.007a.037.037,0,0,1,.03.035A.04.04,0,0,1,3,2.688l-.017,0Z"/><path class="cls-4" d="M3.06,2.532a.038.038,0,0,1-.035.04H3.019a.322.322,0,0,0,0-.041A.122.122,0,0,0,3.011,2.5l.014,0A.038.038,0,0,1,3.06,2.532Z"/><path class="cls-5" d="M3.019,2.571h.006a.04.04,0,0,0,0-.079l-.014,0,0-.006a.039.039,0,0,1,.016,0,.047.047,0,0,1,0,.093H3.018Z"/><path class="cls-4" d="M2.941,2.4a.039.039,0,0,1,.038.04V2.45a.177.177,0,0,0-.066-.032A.037.037,0,0,1,2.941,2.4Z"/><path class="cls-5" d="M2.978,2.45V2.443a.039.039,0,0,0-.038-.04.037.037,0,0,0-.029.015l-.007,0a.044.044,0,0,1,.037-.02.046.046,0,0,1,.045.047l0,.012Z"/><path class="cls-4" d="M2.818,2.374a.039.039,0,0,1,.037.035.717.717,0,0,0-.074,0A.038.038,0,0,1,2.818,2.374Z"/><path class="cls-5" d="M2.856,2.408a.038.038,0,0,0-.074,0H2.774a.045.045,0,0,1,.089,0Z"/><path class="cls-4" d="M2.693,2.367a.039.039,0,0,1,.038.038L2.7,2.4a.186.186,0,0,1-.04-.015A.038.038,0,0,1,2.693,2.367Z"/><path class="cls-5" d="M2.731,2.405a.039.039,0,0,0-.038-.038.038.038,0,0,0-.034.022l-.006,0a.045.045,0,0,1,.04-.026.046.046,0,0,1,.045.046H2.731Z"/><path class="cls-6" d="M2.964,2.515c-.012-.048-.067-.056-.176-.074l-.043-.007a.417.417,0,0,1-.155-.056c0-.009,0-.017,0-.022A.389.389,0,0,0,2.7,2.41a.346.346,0,0,0,.056,0h.02c.113,0,.23.014.237.119a.225.225,0,0,1-.062.184H2.939a.175.175,0,0,0-.049.01V2.694C2.918,2.663,2.982,2.584,2.964,2.515Z"/><path class="cls-6" d="M2.885,2.516a.142.142,0,0,0-.1-.032.306.306,0,0,1-.08-.01.454.454,0,0,1-.112-.064V2.387a.428.428,0,0,0,.154.055l.043.007c.11.017.16.025.171.068.016.061-.039.133-.069.167a.14.14,0,0,0-.007-.053h0l-.007,0C2.9,2.592,2.914,2.543,2.885,2.516Z"/><path class="cls-5" d="M2.88,2.522a.137.137,0,0,0-.1-.03.315.315,0,0,1-.082-.01.445.445,0,0,1-.11-.062V2.411a.454.454,0,0,0,.112.064.306.306,0,0,0,.08.01.142.142,0,0,1,.1.032c.029.026.01.075-.013.116l-.011,0C2.885,2.6,2.907,2.547,2.88,2.522Z"/><path class="cls-5" d="M2.95,2.715a.225.225,0,0,0,.062-.184c-.007-.1-.124-.119-.237-.119h-.02a.346.346,0,0,1-.056,0,.389.389,0,0,1-.108-.053v0H2.6a.648.648,0,0,0,.057.033l.006,0A.186.186,0,0,0,2.7,2.4l.031,0h.051a.717.717,0,0,1,.074,0h.007l.042.007.007,0a.177.177,0,0,1,.066.032l.006.005a.1.1,0,0,1,.024.034l0,.006a.122.122,0,0,1,.007.035.322.322,0,0,1,0,.041v.007a.254.254,0,0,1-.006.039l0,.007a.231.231,0,0,1-.023.055l0,.006a.181.181,0,0,1-.025.031Z"/><path class="cls-5" d="M2.957,2.517c-.011-.043-.061-.051-.171-.068l-.043-.007a.428.428,0,0,1-.154-.055V2.379a.417.417,0,0,0,.155.056l.043.007c.109.017.164.026.176.074.017.069-.046.147-.075.179v-.01C2.918,2.65,2.973,2.578,2.957,2.517Z"/><path class="cls-6" d="M2.434,2.422a.165.165,0,0,0,.035.1.065.065,0,0,1,.02-.017V2.49c-.013,0-.033-.01-.033-.031a.036.036,0,1,1,.072,0A.034.034,0,0,1,2.5,2.49V2.5a.039.039,0,0,1,.02.016.164.164,0,0,0,.034-.1.109.109,0,0,0-.022-.075.046.046,0,0,1-.033.011.06.06,0,0,1-.038-.013A.1.1,0,0,0,2.434,2.422Zm.028-.028c0-.017.027-.024.031-.025h0s.03.008.03.025-.028.021-.031.022h0S2.462,2.411,2.462,2.394Z"/><path class="cls-6" d="M2.4,2.353c.017,0,.022-.02.025-.03l0-.008.006.008a.131.131,0,0,0,.016.019.109.109,0,0,0-.025.082.169.169,0,0,0,.038.106l-.016.022c-.011-.022-.024-.051-.033-.07A.445.445,0,0,1,2.4,2.353Z"/><path class="cls-6" d="M2.533,2.342a.059.059,0,0,0,.008-.017l0,0,0,.006.009.013a.094.094,0,0,0,.027.014.437.437,0,0,1-.013.125c-.008.02-.022.05-.033.072l-.015-.025a.17.17,0,0,0,.037-.1A.113.113,0,0,0,2.533,2.342Z"/><path class="cls-4" d="M2.514,2.126h0s.049.009.049.048a.061.061,0,0,1-.016.048H2.507v0s0,.016-.011.016-.015-.012-.017-.017v0H2.436a.06.06,0,0,1-.017-.049c0-.039.048-.048.048-.048h.047Z"/><path class="cls-6" d="M2.459,2.055l-.01.006a.032.032,0,0,1-.026.014A.03.03,0,0,1,2.4,2.044a.025.025,0,0,1,.028-.025h0c.006,0,.017,0,.02.006a.01.01,0,0,0,.01.006.029.029,0,0,0,.013,0h0A.028.028,0,0,0,2.477,2a.02.02,0,0,0-.01-.014.013.013,0,0,1-.007-.013c0-.012.022-.025.032-.029s.033.017.033.029a.013.013,0,0,1-.007.013A.021.021,0,0,0,2.508,2a.028.028,0,0,0,.007.026h0a.032.032,0,0,0,.013,0,.01.01,0,0,0,.01-.006s.014-.006.02-.006.031,0,.031.025a.03.03,0,0,1-.026.031h0a.032.032,0,0,1-.026-.014l-.01-.006c-.007,0-.011.009-.012.01v.061H2.471V2.064S2.466,2.055,2.459,2.055Z"/><path class="cls-6" d="M2.56,2.334l-.007-.011s-.005-.01-.011-.01-.006,0-.007.009a.036.036,0,0,1-.039.029.065.065,0,0,1-.054-.034c0-.007-.008-.011-.012-.011s-.007.006-.01.014-.008.023-.018.025h0a.037.037,0,0,1-.023-.006.067.067,0,0,1-.015-.016c.015,0,.04,0,.044-.013a.027.027,0,0,0,0-.017.063.063,0,0,1,0-.036.045.045,0,0,1,.032-.026h.036c0,.005.011.019.023.019s.016-.013.018-.019h.025l.01,0a.045.045,0,0,1,.033.026.064.064,0,0,1,0,.036.026.026,0,0,0,0,.017c0,.008.029.011.044.013a.064.064,0,0,1-.015.016.038.038,0,0,1-.023.006h0A.079.079,0,0,1,2.56,2.334Z"/><path class="cls-5" d="M2.59,2.357c0,.005,0,.013,0,.022v.04a.227.227,0,0,1-.012.063c-.009.022-.024.054-.036.077l0-.008c.011-.022.025-.052.033-.072a.437.437,0,0,0,.013-.125h0l0-.007,0,0h0A.038.038,0,0,0,2.61,2.34a.064.064,0,0,0,.015-.016c-.015,0-.04,0-.044-.013a.026.026,0,0,1,0-.017.064.064,0,0,0,0-.036.045.045,0,0,0-.032-.026l-.01,0H2.55V2.223a.061.061,0,0,0,.016-.048c0-.039-.047-.048-.049-.048h0V2.064s0-.01.012-.01l.01.006a.032.032,0,0,0,.026.014h0a.03.03,0,0,0,.026-.031c0-.025-.026-.025-.031-.025s-.017,0-.02.006a.01.01,0,0,1-.01.006.03.03,0,0,1-.013,0h0A.028.028,0,0,1,2.508,2a.021.021,0,0,1,.01-.014.013.013,0,0,0,.007-.013c0-.012-.022-.025-.033-.029s-.032.017-.032.029a.013.013,0,0,0,.007.013A.02.02,0,0,1,2.477,2a.028.028,0,0,1-.007.026h0a.029.029,0,0,1-.013,0,.01.01,0,0,1-.01-.006s-.014-.006-.02-.006h0a.025.025,0,0,0-.028.025.03.03,0,0,0,.026.031.032.032,0,0,0,.027-.014l.01-.006c.007,0,.011.009.012.01v.062h0s-.048.009-.048.048a.06.06,0,0,0,.017.049h0v.007h0a.045.045,0,0,0-.033.026.063.063,0,0,0,0,.036.027.027,0,0,1,0,.017c0,.008-.029.011-.044.013a.067.067,0,0,0,.015.016.037.037,0,0,0,.023.006h0v.007h0a.445.445,0,0,0,.013.127c.008.02.022.048.033.071l0,.007c-.011-.023-.026-.053-.035-.075A.237.237,0,0,1,2.4,2.417v-.04c0-.01,0-.017,0-.022v0H2.387a.04.04,0,0,1-.016-.006.078.078,0,0,1-.02-.023l0-.005h.005A.107.107,0,0,0,2.4,2.308a.027.027,0,0,0,0-.013.071.071,0,0,1,0-.04.049.049,0,0,1,.031-.028.071.071,0,0,1-.017-.052c0-.039.04-.052.052-.055V2.067l-.005,0,0,0a.039.039,0,0,1-.031.017h0a.038.038,0,0,1-.032-.038.031.031,0,0,1,.035-.032h0s.021,0,.026.01l0,0,.009,0A.021.021,0,0,0,2.47,2a.014.014,0,0,0-.007-.01.02.02,0,0,1-.01-.019c0-.02.034-.035.037-.036h0s.038.016.038.036a.02.02,0,0,1-.01.019A.014.014,0,0,0,2.515,2a.021.021,0,0,0,0,.019l.009,0h0c.005-.01.021-.011.026-.011h0a.031.031,0,0,1,.035.032.038.038,0,0,1-.032.038h0a.039.039,0,0,1-.031-.017l0,0,0,0V2.12c.011,0,.051.016.051.055a.071.071,0,0,1-.016.052.049.049,0,0,1,.031.028.071.071,0,0,1,0,.04.027.027,0,0,0,0,.013.107.107,0,0,0,.044.009h.005l0,0a.08.08,0,0,1-.02.023.041.041,0,0,1-.018.006H2.59Z"/><path class="cls-5" d="M2.489,2.49v.015H2.5V2.49a.034.034,0,0,0,.032-.031.036.036,0,1,0-.072,0C2.456,2.48,2.476,2.488,2.489,2.49Zm0-.007s-.03,0-.03-.025a.03.03,0,0,1,.029-.029s.029,0,.029.029S2.5,2.483,2.493,2.484Z"/><path class="cls-5" d="M2.462,2.394c0,.017.029.022.03.022h0s.031,0,.031-.022-.027-.024-.03-.025h0S2.462,2.377,2.462,2.394Zm.03.015c-.007,0-.023-.006-.023-.015s.017-.016.024-.018.023.009.023.018S2.5,2.408,2.492,2.409Z"/><circle class="cls-6" cx="2.356" cy="2.826" r="0.008"/><circle class="cls-6" cx="2.833" cy="2.87" r="0.016"/><circle class="cls-6" cx="2.144" cy="2.87" r="0.016"/><circle class="cls-6" cx="2.385" cy="2.806" r="0.008"/><circle class="cls-6" cx="2.632" cy="2.796" r="0.008"/><path class="cls-6" d="M2.194,2.826l.058-.018h0a.011.011,0,0,1,.01.008l0,.011v.008l-.006.005L2.2,2.856a.011.011,0,0,1-.013-.007l0-.011V2.831Z"/><path class="cls-6" d="M2.1,2.858a.042.042,0,0,0,.008.033.029.029,0,0,0,.025.015h.005l.005.014c.013-.017.076-.073.325-.073.266,0,.348.062.361.074l0-.01h0l0,0h0a.029.029,0,0,0,.024-.015.042.042,0,0,0,.008-.033h0a.747.747,0,0,0-.413-.1C2.188,2.761,2.107,2.851,2.1,2.858Zm.271-.069a.015.015,0,1,1-.015-.015A.015.015,0,0,1,2.372,2.789Zm.276.007a.015.015,0,1,1-.015-.015A.015.015,0,0,1,2.647,2.8Zm.164.075a.023.023,0,1,1,.023.025A.024.024,0,0,1,2.811,2.87ZM2.7,2.829l0-.011a.018.018,0,0,1,.022-.012l.058.017a.018.018,0,0,1,.01.009.017.017,0,0,1,0,.013l0,.011a.018.018,0,0,1-.017.013h0l-.058-.018A.018.018,0,0,1,2.7,2.829Zm-.051-.016a.015.015,0,1,1,.015.015A.015.015,0,0,1,2.645,2.813Zm-.029.02a.015.015,0,1,1,.015.015A.015.015,0,0,1,2.617,2.832Zm-.029-.02a.015.015,0,1,1,.015.015A.015.015,0,0,1,2.588,2.813ZM2.435,2.8a.02.02,0,0,1,.006-.015.02.02,0,0,1,.015-.006H2.53A.021.021,0,0,1,2.55,2.8v.014a.021.021,0,0,1-.006.015.021.021,0,0,1-.015.006H2.455a.021.021,0,0,1-.021-.021Zm-.065.009a.015.015,0,1,1,.015.015A.015.015,0,0,1,2.37,2.806Zm-.029.02a.015.015,0,1,1,.015.015A.015.015,0,0,1,2.341,2.826Zm-.029-.02a.015.015,0,1,1,.015.015A.015.015,0,0,1,2.312,2.806Zm-.13.021a.017.017,0,0,1,.01-.008L2.251,2.8a.018.018,0,0,1,.022.012l0,.011a.017.017,0,0,1,0,.013.017.017,0,0,1-.01.009l-.058.018h0a.018.018,0,0,1-.017-.013l0-.011A.018.018,0,0,1,2.182,2.827Zm-.06.043a.023.023,0,1,1,.022.025A.024.024,0,0,1,2.122,2.87Z"/><circle class="cls-6" cx="2.356" cy="2.789" r="0.008"/><path class="cls-6" d="M2.459,2.709a.779.779,0,0,1,.427.1.048.048,0,0,1,.008.028.025.025,0,0,1-.015.012.752.752,0,0,0-.418-.1c-.268,0-.352.084-.364.1a.026.026,0,0,1-.015-.012c0-.007,0-.023.008-.029S2.18,2.709,2.459,2.709Z"/><circle class="cls-6" cx="2.661" cy="2.813" r="0.008"/><circle class="cls-6" cx="2.632" cy="2.832" r="0.008"/><circle class="cls-6" cx="2.327" cy="2.806" r="0.008"/><circle class="cls-6" cx="2.603" cy="2.813" r="0.008"/><path class="cls-6" d="M2.455,2.784H2.53a.014.014,0,0,1,.014.014v.014l0,.01-.01,0H2.455v0a.014.014,0,0,1-.014-.014V2.8l0-.01Z"/><path class="cls-6" d="M2.148,2.927h0l0,0a.023.023,0,0,0-.009.03c.024.078.347.082.351.082s.327,0,.351-.082a.023.023,0,0,0-.009-.03l0,0h0s-.074-.074-.358-.074S2.149,2.925,2.148,2.927Zm.036.025c0-.045.158-.071.311-.071a1.087,1.087,0,0,1,.219.02h0c.055.012.092.029.092.051,0,.044-.158.071-.311.071S2.184,3,2.184,2.951Z"/><path class="cls-6" d="M2.706,2.82a.01.01,0,0,1,.01-.007h0l.058.018.006.005v.008l0,.011a.011.011,0,0,1-.013.007L2.71,2.844A.01.01,0,0,1,2.7,2.831Z"/><path class="cls-6" d="M2.034,2.721h0a.186.186,0,0,1,.051.011l0,0v0A.7.7,0,0,1,2.1,2.637a.712.712,0,0,1,.086.045l0,0V2.68A.707.707,0,0,1,2.2,2.586a.681.681,0,0,1,.079.059l0,0,0-.005a.393.393,0,0,1,.038-.1.449.449,0,0,1,.086.076l0,0,0,0c.022-.041.063-.105.079-.105s.048.064.064.1l0,.005,0,0a.438.438,0,0,1,.086-.076.4.4,0,0,1,.038.1v.005l0,0a.679.679,0,0,1,.079-.059.707.707,0,0,1,.012.094v.006l0,0a.692.692,0,0,1,.087-.045.735.735,0,0,1,.005.091v0l0,0a.188.188,0,0,1,.052-.011h0A.157.157,0,0,1,3,2.74l-.023.008a.252.252,0,0,0-.055.022.182.182,0,0,0-.033.035.446.446,0,0,0-.072-.037l.029-.057-.006,0-.029.057a.767.767,0,0,0-.1-.032l.039-.076-.006,0-.04.077a.9.9,0,0,0-.092-.018l.026-.085-.007,0-.026.086A1.069,1.069,0,0,0,2.5,2.7V2.584H2.489V2.7h-.03c-.028,0-.055,0-.079,0l-.027-.087-.007,0,.026.086a.822.822,0,0,0-.094.013L2.24,2.645l-.006,0,.037.071a.534.534,0,0,0-.1.029L2.148,2.7l-.006,0,.026.05a.25.25,0,0,0-.081.052.182.182,0,0,0-.032-.035A.252.252,0,0,0,2,2.748L1.976,2.74A.156.156,0,0,1,2.034,2.721Z"/><path class="cls-5" d="M2.023,2.715c-.023,0-.055.018-.056.024s0,.006.03.014a.261.261,0,0,1,.053.02.183.183,0,0,1,.032.035.05.05,0,0,0-.007.033.032.032,0,0,0,.019.016.052.052,0,0,0,.009.036.037.037,0,0,0,.031.018h0l0,.011a.031.031,0,0,0-.01.036c.026.083.344.087.358.087h0c.014,0,.332,0,.358-.087a.031.031,0,0,0-.009-.036l.005-.011h0a.036.036,0,0,0,.03-.018.052.052,0,0,0,.009-.036A.033.033,0,0,0,2.9,2.842a.051.051,0,0,0-.007-.033.182.182,0,0,1,.032-.035.262.262,0,0,1,.053-.02c.028-.009.031-.01.03-.014s-.028-.018-.05-.023l-.008,0H2.939a.175.175,0,0,0-.049.01v-.04a.14.14,0,0,0-.007-.053h0l-.007,0-.011,0c-.021.01-.053.028-.068.037a.289.289,0,0,0-.015-.094h0a.456.456,0,0,0-.081.057c-.01-.033-.03-.1-.042-.1h0c-.014,0-.069.056-.087.075,0-.011-.013-.03-.023-.05l0-.008-.015-.025,0,0-.005,0,0,0A.039.039,0,0,0,2.5,2.5H2.489a.065.065,0,0,0-.02.017h0l-.005,0h0l-.016.022,0,.007c-.014.021-.027.043-.032.053-.018-.018-.074-.075-.087-.075h0c-.012,0-.032.068-.042.1A.456.456,0,0,0,2.2,2.579h0a.291.291,0,0,0-.015.094l-.057-.031-.012-.006L2.1,2.63h0a.114.114,0,0,0-.006.045v.048a.175.175,0,0,0-.049-.01H2.023Zm-.047.024a.156.156,0,0,1,.058-.019h0a.186.186,0,0,1,.051.011l0,0v0A.7.7,0,0,1,2.1,2.637a.712.712,0,0,1,.086.045l0,0V2.68A.707.707,0,0,1,2.2,2.586a.681.681,0,0,1,.079.059l0,0,0-.005a.393.393,0,0,1,.038-.1.449.449,0,0,1,.086.076l0,0,0,0c.022-.041.063-.105.079-.105s.048.064.064.1l0,.005,0,0a.438.438,0,0,1,.086-.076.4.4,0,0,1,.038.1v.005l0,0a.679.679,0,0,1,.079-.059.707.707,0,0,1,.012.094v.006l0,0a.692.692,0,0,1,.087-.045.735.735,0,0,1,.005.091v0l0,0a.188.188,0,0,1,.052-.011h0A.157.157,0,0,1,3,2.74l-.023.008a.252.252,0,0,0-.055.022.182.182,0,0,0-.033.035l0,0,0,.006h0a.048.048,0,0,1,.008.028.025.025,0,0,1-.015.012h0l0,.006,0,0h0a.042.042,0,0,1-.008.033.029.029,0,0,1-.024.015h0l0,0h0l0,.01,0,0,0,.005h0l0,0a.023.023,0,0,1,.009.03c-.024.078-.347.082-.351.082s-.327,0-.351-.082a.023.023,0,0,1,.009-.03l0,0h0l-.006,0,0,0-.005-.014H2.134a.029.029,0,0,1-.025-.015A.042.042,0,0,1,2.1,2.858h0l-.006,0,0,0a.026.026,0,0,1-.015-.012c0-.007,0-.023.008-.029h0l-.005,0,0,0a.182.182,0,0,0-.032-.035A.252.252,0,0,0,2,2.748Z"/><path class="cls-5" d="M2.469,2.846c.266,0,.348.062.361.074l0,0,0,.005h0s-.074-.074-.358-.074-.321.072-.322.074h0l-.006,0,0,0C2.158,2.9,2.22,2.846,2.469,2.846Z"/><path class="cls-5" d="M2.167,2.752l0,0,.006,0,0,0a.534.534,0,0,1,.1-.029l0,0,.006,0v0a.822.822,0,0,1,.094-.013v0l.007,0h0c.025,0,.051,0,.079,0h.03v0H2.5v0a1.069,1.069,0,0,1,.111.009v0l.007,0v0a.9.9,0,0,1,.092.018h0l.006,0v0a.767.767,0,0,1,.1.032v0l.006,0,0,0a.446.446,0,0,1,.072.037l0,0,0,.006h0a.779.779,0,0,0-.427-.1c-.278,0-.366.1-.37.1h0l-.005,0,0,0A.25.25,0,0,1,2.167,2.752Z"/><path class="cls-5" d="M2.461,2.754a.752.752,0,0,1,.418.1h0l0,.006,0,0a.747.747,0,0,0-.413-.1c-.273,0-.354.089-.36.1h0l-.006,0,0,0C2.109,2.838,2.193,2.754,2.461,2.754Z"/><path class="cls-5" d="M2.811,2.87a.023.023,0,1,0,.023-.025A.024.024,0,0,0,2.811,2.87Zm.007,0a.016.016,0,1,1,.015.018A.017.017,0,0,1,2.818,2.87Z"/><path class="cls-5" d="M2.122,2.87a.023.023,0,1,0,.022-.025A.024.024,0,0,0,2.122,2.87Zm.007,0a.016.016,0,1,1,.015.018A.017.017,0,0,1,2.129,2.87Z"/><path class="cls-5" d="M2.7,2.829a.018.018,0,0,0,.012.022l.058.018h0a.018.018,0,0,0,.017-.013l0-.011a.017.017,0,0,0,0-.013.018.018,0,0,0-.01-.009l-.058-.017a.018.018,0,0,0-.022.012Zm.007,0,0-.011a.01.01,0,0,1,.01-.007h0l.058.018.006.005v.008l0,.011a.011.011,0,0,1-.013.007L2.71,2.844A.01.01,0,0,1,2.7,2.831Z"/><path class="cls-5" d="M2.441,2.783a.02.02,0,0,0-.006.015v.014a.021.021,0,0,0,.021.021H2.53a.021.021,0,0,0,.015-.006.021.021,0,0,0,.006-.015V2.8a.021.021,0,0,0-.021-.021H2.455A.02.02,0,0,0,2.441,2.783Zm0,.015,0-.01.01,0H2.53a.014.014,0,0,1,.014.014v.014l0,.01-.01,0H2.455v0a.014.014,0,0,1-.014-.014Z"/><path class="cls-5" d="M2.182,2.827a.018.018,0,0,0,0,.013l0,.011a.018.018,0,0,0,.017.013h0l.058-.018a.017.017,0,0,0,.01-.009.017.017,0,0,0,0-.013l0-.011A.018.018,0,0,0,2.251,2.8l-.058.018A.017.017,0,0,0,2.182,2.827Zm.006,0,.006-.005.058-.018h0a.011.011,0,0,1,.01.008l0,.011v.008l-.006.005L2.2,2.856a.011.011,0,0,1-.013-.007l0-.011Z"/><path class="cls-5" d="M2.645,2.813A.015.015,0,1,0,2.661,2.8.015.015,0,0,0,2.645,2.813Zm.007,0a.008.008,0,1,1,.008.008A.008.008,0,0,1,2.652,2.813Z"/><path class="cls-5" d="M2.588,2.813A.015.015,0,1,0,2.6,2.8.015.015,0,0,0,2.588,2.813Zm.007,0a.008.008,0,1,1,.008.008A.008.008,0,0,1,2.595,2.813Z"/><path class="cls-5" d="M2.647,2.8a.015.015,0,1,0-.015.015A.015.015,0,0,0,2.647,2.8Zm-.007,0a.008.008,0,1,1-.016,0,.008.008,0,1,1,.016,0Z"/><path class="cls-5" d="M2.617,2.832a.015.015,0,1,0,.015-.015A.015.015,0,0,0,2.617,2.832Zm.007,0a.008.008,0,1,1,.008.008A.008.008,0,0,1,2.624,2.832Z"/><path class="cls-5" d="M2.312,2.806a.015.015,0,1,0,.015-.015A.015.015,0,0,0,2.312,2.806Zm.007,0a.008.008,0,1,1,.008.008A.008.008,0,0,1,2.319,2.806Z"/><path class="cls-5" d="M2.37,2.806a.015.015,0,1,0,.015-.015A.015.015,0,0,0,2.37,2.806Zm.007,0a.008.008,0,1,1,.008.008A.008.008,0,0,1,2.377,2.806Z"/><path class="cls-5" d="M2.372,2.789a.015.015,0,1,0-.015.015A.015.015,0,0,0,2.372,2.789Zm-.007,0a.008.008,0,1,1-.016,0,.008.008,0,1,1,.016,0Z"/><path class="cls-5" d="M2.341,2.826a.015.015,0,1,0,.015-.015A.015.015,0,0,0,2.341,2.826Zm.007,0a.008.008,0,1,1,.016,0,.008.008,0,1,1-.016,0Z"/><polygon class="cls-5" points="2.489 2.706 2.489 2.703 2.489 2.584 2.496 2.584 2.496 2.703 2.496 2.706 2.489 2.706"/><polygon class="cls-5" points="2.607 2.715 2.608 2.712 2.634 2.626 2.641 2.628 2.615 2.713 2.613 2.717 2.607 2.715"/><polygon class="cls-5" points="2.706 2.732 2.707 2.731 2.746 2.654 2.753 2.657 2.714 2.733 2.712 2.735 2.706 2.732"/><polygon class="cls-5" points="2.808 2.767 2.81 2.765 2.839 2.707 2.845 2.711 2.816 2.767 2.815 2.77 2.808 2.767"/><polygon class="cls-5" points="2.373 2.708 2.372 2.706 2.346 2.62 2.353 2.618 2.379 2.705 2.38 2.707 2.373 2.708"/><polygon class="cls-5" points="2.273 2.724 2.271 2.72 2.234 2.648 2.24 2.645 2.278 2.718 2.279 2.721 2.273 2.724"/><polygon class="cls-5" points="2.169 2.756 2.167 2.752 2.141 2.702 2.148 2.699 2.173 2.749 2.175 2.752 2.169 2.756"/><path class="cls-5" d="M2.5,2.249c-.011,0-.02-.013-.023-.019H2.434V2.224h.044v0s.009.017.017.017.011-.016.011-.016v0h.042V2.23H2.513C2.512,2.236,2.507,2.249,2.5,2.249Z"/><path class="cls-5" d="M2.547,2.326l0-.006,0,0a.059.059,0,0,1-.008.017l0,0,0,.006,0,0a.046.046,0,0,1-.033.011.06.06,0,0,1-.038-.013h0l0-.006h0a.131.131,0,0,1-.016-.019L2.43,2.314l0,.008c0,.011-.008.028-.025.03h0V2.346h0c.01,0,.014-.013.018-.025s0-.014.01-.014.007,0,.012.011a.065.065,0,0,0,.054.034.036.036,0,0,0,.039-.029s0-.009.007-.009.008.005.011.01l.007.011a.079.079,0,0,0,.022.012l0,0,0,.007h0a.094.094,0,0,1-.027-.014Z"/><path class="cls-5" d="M2.529,2.347l0,0,0-.006,0,0a.113.113,0,0,1,.024.08.17.17,0,0,1-.037.1l0,0-.005,0,0,0a.164.164,0,0,0,.034-.1A.109.109,0,0,0,2.529,2.347Z"/><path class="cls-5" d="M2.452,2.341h0l0,.006h0a.1.1,0,0,0-.024.077.165.165,0,0,0,.035.1h0l-.005,0h0a.169.169,0,0,1-.038-.106A.109.109,0,0,1,2.452,2.341Z"/><path class="cls-1" d="M1.833,3.663v.512a.309.309,0,0,0,.066.119V3.663Z"/><path class="cls-2" d="M1.9,3.663v.631a.444.444,0,0,0,.075.071v-.7Z"/><path class="cls-1" d="M1.974,3.663v.7a.535.535,0,0,0,.075.047V3.663Z"/><path class="cls-2" d="M2.049,3.663v.748l.009,0h.067V3.663Z"/><path class="cls-1" d="M2.125,3.663v.752A.648.648,0,0,0,2.2,4.407V3.663Z"/><path class="cls-2" d="M2.2,3.663v.745a.421.421,0,0,0,.075-.019V3.663Z"/><path class="cls-1" d="M2.275,3.663v.725a.247.247,0,0,0,.064-.034l.011-.009V3.663Z"/><path class="cls-2" d="M2.35,3.663v.682a.491.491,0,0,0,.075-.074V3.663Z"/><path class="cls-1" d="M2.425,4.271a.336.336,0,0,0,.066-.119V3.663H2.425Z"/><rect class="cls-2" x="1.833" y="2.928" width="0.658" height="0.735"/><rect class="cls-7" x="2.491" y="2.928" width="0.658" height="0.735"/><path class="cls-7" d="M2.643,4.354a.4.4,0,0,1-.152-.2.4.4,0,0,1-.152.2.472.472,0,0,1-.281.062.959.959,0,0,0,.433.085.959.959,0,0,0,.433-.085A.471.471,0,0,1,2.643,4.354Z"/><path class="cls-2" d="M2.491,3.663v.489a.4.4,0,0,0,.152.2.471.471,0,0,0,.281.062.4.4,0,0,0,.225-.241V3.663Z"/><path class="cls-5" d="M2.084,4.421H2.056a.406.406,0,0,1-.227-.244V3.658H2.5v.493a.405.405,0,0,1-.153.206A.451.451,0,0,1,2.084,4.421Zm-.025-.009h.025a.441.441,0,0,0,.253-.062.4.4,0,0,0,.15-.2V3.667H1.838v.507A.4.4,0,0,0,2.059,4.412Z"/><path class="cls-5" d="M2.5,3.667H1.829V2.924H2.5Zm-.658-.009h.649V2.933H1.838Z"/><path class="cls-5" d="M3.153,3.667H2.487V2.924h.666ZM2.5,3.658h.649V2.933H2.5Z"/><path class="cls-5" d="M2.491,4.506a.976.976,0,0,1-.435-.086l0-.008h.026a.441.441,0,0,0,.253-.062.4.4,0,0,0,.15-.2H2.5a.4.4,0,0,0,.15.2.441.441,0,0,0,.253.062h.026l0,.008A.975.975,0,0,1,2.491,4.506Zm-.413-.085a.992.992,0,0,0,.413.076A.992.992,0,0,0,2.9,4.421H2.9a.451.451,0,0,1-.258-.063.432.432,0,0,1-.149-.192.433.433,0,0,1-.149.192.451.451,0,0,1-.258.063Z"/><path class="cls-5" d="M2.9,4.421h0a.451.451,0,0,1-.258-.063.407.407,0,0,1-.153-.2V3.658h.666v.516a.4.4,0,0,1-.227.245H2.9Zm-.4-.753v.484a.4.4,0,0,0,.15.2.441.441,0,0,0,.253.062h.025a.4.4,0,0,0,.221-.238V3.667Z"/><polygon class="cls-1" points="2.279 3.446 2.279 3.253 2.317 3.253 2.317 3.164 2.273 3.164 2.273 3.136 2.299 3.136 2.299 3.093 2.299 3.091 2.299 3.081 2.285 3.081 2.285 3.091 2.277 3.091 2.277 3.081 2.264 3.081 2.264 3.091 2.256 3.091 2.256 3.081 2.242 3.081 2.242 3.091 2.234 3.091 2.234 3.081 2.221 3.081 2.221 3.091 2.213 3.091 2.213 3.081 2.199 3.081 2.199 3.091 2.199 3.093 2.199 3.136 2.225 3.136 2.225 3.164 2.176 3.164 2.176 3.06 2.202 3.06 2.202 3.018 2.202 3.015 2.202 3.005 2.188 3.005 2.188 3.015 2.18 3.015 2.18 3.005 2.167 3.005 2.167 3.015 2.159 3.015 2.159 3.005 2.145 3.005 2.145 3.015 2.137 3.015 2.137 3.005 2.124 3.005 2.124 3.015 2.116 3.015 2.116 3.005 2.102 3.005 2.102 3.015 2.102 3.018 2.102 3.06 2.128 3.06 2.128 3.164 2.081 3.164 2.081 3.136 2.107 3.136 2.107 3.093 2.107 3.091 2.107 3.081 2.094 3.081 2.094 3.091 2.086 3.091 2.086 3.081 2.072 3.081 2.072 3.091 2.064 3.091 2.064 3.081 2.051 3.081 2.051 3.091 2.043 3.091 2.043 3.081 2.029 3.081 2.029 3.091 2.021 3.091 2.021 3.081 2.008 3.081 2.008 3.091 2.008 3.093 2.008 3.136 2.034 3.136 2.034 3.164 1.987 3.164 1.987 3.253 2.025 3.253 2.025 3.446 1.96 3.446 1.96 3.556 2.344 3.556 2.344 3.446 2.279 3.446"/><path class="cls-4" d="M2.18,3.478a.039.039,0,0,0-.069,0v.079H2.18Z"/><rect class="cls-4" x="2.055" y="3.305" width="0.053" height="0.065"/><rect class="cls-4" x="2.193" y="3.305" width="0.053" height="0.065"/><path class="cls-1" d="M2.92,3.108,2.954,3.1l.025-.009-.017-.011.006-.03-.032,0L2.93,3.026l-.022.013,0-.03-.022.015L2.865,2.99v.073c.012,0,.023,0,.033.008A.1.1,0,0,1,2.92,3.108Z"/><path class="cls-2" d="M2.834,3.112l0,0a.066.066,0,0,1-.039,0c-.014-.007-.031-.028-.045-.037a.01.01,0,0,0-.016.006.1.1,0,0,0,.009.023.061.061,0,0,0,.035.026.218.218,0,0,0,.059-.005A.009.009,0,0,0,2.834,3.112Z"/><path class="cls-11" d="M3.017,3.17a.128.128,0,0,0,.029-.052.346.346,0,0,0,.012-.069S3,3.081,2.99,3.1a.1.1,0,0,0,0,.052.36.36,0,0,0,0,.078.694.694,0,0,1,.017.073c0,.058-.027.071-.069.045a.147.147,0,0,1-.052-.093.24.24,0,0,0,.047-.1.152.152,0,0,0-.011-.052A.1.1,0,0,0,2.9,3.071c-.01-.008-.021,0-.033-.008a.036.036,0,0,1-.016-.009c-.019-.017-.058.028-.058.028a.148.148,0,0,1,.027.02l.012.007,0,0a.009.009,0,0,1,0,.013h0l-.02.01c0,.023,0,.051-.055.049a.1.1,0,0,1-.087-.043l-.01-.079L2.638,3.1l-.047-.014.018.043-.027.02h.055a.1.1,0,0,0,.024.053.246.246,0,0,0,.071.046l-.072.039-.042-.038.009.042L2.6,3.327h.039l.015.033.019-.044s.087-.034.1-.024a.71.71,0,0,1,.079.083.133.133,0,0,0-.061,0c-.025.008-.022.017-.02.031s.027.033.023.048-.041.007-.041.007-.01-.023-.025-.026a.108.108,0,0,0-.041.006.176.176,0,0,1,.039.02s-.038.023-.038.023a.17.17,0,0,1,.041.016.2.2,0,0,1,.012.034L2.768,3.5s.055.007.063,0,0-.069.006-.075a.023.023,0,0,1,.03.007c.008.011,0,.05.01.058s.052,0,.058,0,0,.03,0,.03l-.063.014.034.02,0,.05.036-.041.031.034V3.52a.115.115,0,0,0,.008-.037c0-.015-.025-.043-.027-.066s.032-.027.05-.04a.111.111,0,0,0,.037-.064c0-.019-.029-.034-.034-.11C3,3.17,3.017,3.17,3.017,3.17Z"/><circle class="cls-5" cx="2.854" cy="3.08" r="0.008"/><path class="cls-1" d="M3.1,4.014a.041.041,0,0,0-.031-.042.291.291,0,0,0-.045-.122.046.046,0,0,0,0-.054.036.036,0,0,0-.049,0,.236.236,0,0,0-.11-.051.038.038,0,0,0-.075,0,.236.236,0,0,0-.111.05.036.036,0,0,0-.049,0,.046.046,0,0,0,0,.053.291.291,0,0,0-.047.122.043.043,0,0,0,0,.083.293.293,0,0,0,.046.123.046.046,0,0,0,.005.053.036.036,0,0,0,.048.006.236.236,0,0,0,.111.051.038.038,0,0,0,.075,0,.236.236,0,0,0,.111-.051.036.036,0,0,0,.048-.005.046.046,0,0,0,0-.054.292.292,0,0,0,.046-.122A.041.041,0,0,0,3.1,4.014Zm-.029.026V4.024h.014A.027.027,0,0,1,3.069,4.04Zm-.1.174a.031.031,0,0,1,0-.024l.011.013Zm-.3-.01.011-.013a.03.03,0,0,1,0,.022Zm-.075-.218A.027.027,0,0,1,2.6,4H2.587Zm.086-.173a.031.031,0,0,1,0,.023l-.011-.013Zm.3.01-.01.011a.031.031,0,0,1,0-.02ZM3.052,4H3.037a.027.027,0,0,1,.014-.014ZM3.023,4H3a.037.037,0,0,0-.073,0h-.08L2.9,3.94a.036.036,0,0,0,.047-.006.046.046,0,0,0,.005-.052l.018-.019a.035.035,0,0,0,.038,0,.271.271,0,0,1,.041.11A.04.04,0,0,0,3.023,4Zm-.039.022a.024.024,0,0,1-.047,0ZM2.938,4a.024.024,0,0,1,.045,0Zm-.108.142a.029.029,0,0,1,0,.05Zm-.021-.261a.029.029,0,0,1,0-.05Zm.087.03A.03.03,0,0,1,2.9,3.884a.024.024,0,0,1,.026-.007Zm.047-.02a.03.03,0,0,1-.005.031.024.024,0,0,1-.028.006Zm.037-.041.011-.012L3,3.852A.023.023,0,0,1,2.98,3.852Zm-.023-.006-.019.021a.036.036,0,0,0-.045.007.046.046,0,0,0-.007.05l-.057.063V3.9a.043.043,0,0,0,0-.082V3.789a.04.04,0,0,0,.028-.029.219.219,0,0,1,.1.046A.046.046,0,0,0,2.956,3.846Zm-.127.038V3.832a.029.029,0,0,1,0,.052Zm0-.11V3.757h.015A.027.027,0,0,1,2.829,3.774Zm-.02,0A.027.027,0,0,1,2.8,3.758h.012Zm0,.015v.029a.044.044,0,0,0,0,.081v.088l-.056-.062a.046.046,0,0,0-.005-.052A.036.036,0,0,0,2.7,3.867l-.018-.019a.046.046,0,0,0,0-.043.22.22,0,0,1,.1-.045A.041.041,0,0,0,2.809,3.789Zm-.1.089a.024.024,0,0,1,.028.006.03.03,0,0,1,.005.031Zm.018.052A.023.023,0,0,1,2.7,3.923.03.03,0,0,1,2.7,3.894Zm-.07-.077a.023.023,0,0,1-.019,0l.009-.01Zm.01.011.019.021a.046.046,0,0,0,.007.05.036.036,0,0,0,.045.007L2.8,4H2.716a.037.037,0,0,0-.074,0H2.617a.04.04,0,0,0-.027-.031.27.27,0,0,1,.042-.11A.035.035,0,0,0,2.668,3.863ZM2.656,4A.024.024,0,0,1,2.7,4Zm.046.022a.024.024,0,0,1-.045,0Zm-.1,0a.027.027,0,0,1-.015.014V4.025Zm.014,0h.026a.037.037,0,0,0,.073,0H2.8l-.056.062a.036.036,0,0,0-.047.006.046.046,0,0,0-.006.052l-.018.019a.035.035,0,0,0-.039,0,.271.271,0,0,1-.041-.111A.041.041,0,0,0,2.616,4.025Zm.127.089a.03.03,0,0,1-.006.029.024.024,0,0,1-.026.007Zm-.047.02A.03.03,0,0,1,2.7,4.1.024.024,0,0,1,2.73,4.1Zm-.037.041-.012.013-.01-.013A.023.023,0,0,1,2.66,4.175Zm.023.006L2.7,4.16a.035.035,0,0,0,.045-.007.045.045,0,0,0,.007-.05l.057-.063v.087a.043.043,0,0,0,0,.082v.028a.04.04,0,0,0-.028.03.22.22,0,0,1-.1-.046A.046.046,0,0,0,2.684,4.181Zm.127-.038V4.2a.029.029,0,0,1,0-.052Zm0,.11v.019H2.8A.027.027,0,0,1,2.81,4.253Zm.02,0a.027.027,0,0,1,.013.017H2.831Zm0-.015V4.209a.044.044,0,0,0,0-.081V4.04l.056.062a.046.046,0,0,0,.006.052.036.036,0,0,0,.047.006l.018.019a.046.046,0,0,0,0,.043.22.22,0,0,1-.1.046A.041.041,0,0,0,2.831,4.238Zm.1-.089A.024.024,0,0,1,2.9,4.144.03.03,0,0,1,2.9,4.113ZM2.911,4.1a.024.024,0,0,1,.026.007.03.03,0,0,1,.006.029Zm.07.077a.023.023,0,0,1,.019,0l-.008.01Zm-.01-.011-.019-.021a.046.046,0,0,0-.007-.05A.036.036,0,0,0,2.9,4.087l-.057-.063h.079a.038.038,0,0,0,.074,0h.025a.041.041,0,0,0,.027.031.271.271,0,0,1-.041.11A.035.035,0,0,0,2.971,4.164Zm.065-.14h.016V4.04A.027.027,0,0,1,3.036,4.024ZM3.082,4H3.069V3.988A.027.027,0,0,1,3.082,4Zm-.07-.163L3,3.826l.01-.011A.031.031,0,0,1,3.013,3.838ZM3,3.8l-.009.011L2.979,3.8A.024.024,0,0,1,3,3.8Zm-.154-.061H2.829V3.722A.027.027,0,0,1,2.844,3.739Zm-.035-.015v.014H2.8A.027.027,0,0,1,2.809,3.723ZM2.661,3.8l-.011.011L2.64,3.8A.023.023,0,0,1,2.661,3.8Zm-.034.017.009.01-.008.01A.031.031,0,0,1,2.627,3.817Zm-.057.171V4H2.556A.026.026,0,0,1,2.57,3.988Zm-.013.038h.012v.013A.026.026,0,0,1,2.557,4.025Zm.069.165.009.011-.009.01A.03.03,0,0,1,2.627,4.191Zm.015.036.008-.009.009.009A.023.023,0,0,1,2.642,4.227ZM2.8,4.29H2.81V4.3A.027.027,0,0,1,2.8,4.29Zm.034.014V4.29h.012A.027.027,0,0,1,2.831,4.3Zm.149-.077.011-.01.01.01A.023.023,0,0,1,2.979,4.227Zm.034-.017L3,4.2l.008-.01A.03.03,0,0,1,3.013,4.21Z"/><circle class="cls-9" cx="2.821" cy="4.013" r="0.04"/><ellipse class="cls-2" cx="2.493" cy="4.344" rx="0.018" ry="0.047"/><path class="cls-12" d="M2.545,4.395a.144.144,0,0,0-.045.021V4.377H2.485v.04a.133.133,0,0,0-.047-.023.129.129,0,0,0-.062,0,.128.128,0,0,0,.053.032.111.111,0,0,0,.057.006v.027H2.5V4.432a.125.125,0,0,0,.054-.007.129.129,0,0,0,.052-.032A.128.128,0,0,0,2.545,4.395Z"/></g></g></svg>