<svg xmlns="http://www.w3.org/2000/svg" viewBox="0 0 8.919 6.443"><defs><style>.cls-1{fill:#e5e5e5;}.cls-2{fill:#c10517;}</style></defs><title>Греция_1</title><g id="Слой_2" data-name="Слой 2"><g id="flags"><rect class="cls-1" width="8.919" height="6.443"/><polygon class="cls-2" points="8.919 2.68 4.965 2.68 4.965 0 3.928 0 3.928 2.68 0 2.68 0 3.717 3.928 3.717 3.928 6.443 4.965 6.443 4.965 3.717 8.919 3.717 8.919 2.68"/><path class="cls-2" d="M2.595,1.338a1.867,1.867,0,0,1,.034-.212,4.594,4.594,0,0,1-.523.072A4.594,4.594,0,0,1,2.178.676a1.867,1.867,0,0,1-.212.034A1.867,1.867,0,0,1,1.754.676a4.581,4.581,0,0,1,.072.523A4.594,4.594,0,0,1,1.3,1.126a1.867,1.867,0,0,1,.034.212A1.867,1.867,0,0,1,1.3,1.55a4.581,4.581,0,0,1,.523-.072A4.581,4.581,0,0,1,1.754,2a1.867,1.867,0,0,1,.212-.034A1.867,1.867,0,0,1,2.178,2a4.594,4.594,0,0,1-.072-.523,4.581,4.581,0,0,1,.523.072A1.867,1.867,0,0,1,2.595,1.338Z"/><path class="cls-2" d="M2.595,5.106a1.867,1.867,0,0,1,.034-.212,4.581,4.581,0,0,1-.523.072,4.594,4.594,0,0,1,.072-.523,1.867,1.867,0,0,1-.212.034,1.867,1.867,0,0,1-.212-.034,4.581,4.581,0,0,1,.072.523A4.581,4.581,0,0,1,1.3,4.894a1.867,1.867,0,0,1,.034.212,1.867,1.867,0,0,1-.034.212,4.594,4.594,0,0,1,.523-.072,4.581,4.581,0,0,1-.072.523,1.867,1.867,0,0,1,.212-.034,1.867,1.867,0,0,1,.212.034,4.594,4.594,0,0,1-.072-.523,4.594,4.594,0,0,1,.523.072A1.867,1.867,0,0,1,2.595,5.106Z"/><path class="cls-2" d="M7.574,1.338a1.892,1.892,0,0,1,.034-.212,4.591,4.591,0,0,1-.523.072A4.581,4.581,0,0,1,7.157.676a1.867,1.867,0,0,1-.212.034A1.867,1.867,0,0,1,6.734.676a4.581,4.581,0,0,1,.072.523,4.594,4.594,0,0,1-.523-.072,1.883,1.883,0,0,1,.034.212,1.883,1.883,0,0,1-.034.212,4.581,4.581,0,0,1,.523-.072A4.581,4.581,0,0,1,6.734,2a1.867,1.867,0,0,1,.212-.034A1.867,1.867,0,0,1,7.157,2a4.581,4.581,0,0,1-.072-.523,4.577,4.577,0,0,1,.523.072A1.892,1.892,0,0,1,7.574,1.338Z"/><path class="cls-2" d="M7.574,5.106a1.892,1.892,0,0,1,.034-.212,4.577,4.577,0,0,1-.523.072,4.581,4.581,0,0,1,.072-.523,1.867,1.867,0,0,1-.212.034,1.867,1.867,0,0,1-.212-.034,4.581,4.581,0,0,1,.072.523,4.581,4.581,0,0,1-.523-.072,1.883,1.883,0,0,1,.034.212,1.883,1.883,0,0,1-.034.212,4.594,4.594,0,0,1,.523-.072,4.581,4.581,0,0,1-.072.523,1.867,1.867,0,0,1,.212-.034,1.867,1.867,0,0,1,.212.034,4.581,4.581,0,0,1-.072-.523,4.591,4.591,0,0,1,.523.072A1.892,1.892,0,0,1,7.574,5.106Z"/></g></g></svg>