<svg xmlns="http://www.w3.org/2000/svg" viewBox="0 0 8.919 6.443"><defs><style>.cls-1{fill:#f78b2b;}.cls-2{fill:#e5e5e5;}.cls-3{fill:#127f06;}.cls-4{fill:#151592;}</style></defs><title>Индия</title><g id="Слой_2" data-name="Слой 2"><g id="flags"><rect class="cls-1" width="8.919" height="2.148"/><rect class="cls-2" y="2.148" width="8.919" height="2.148"/><rect class="cls-3" y="4.295" width="8.919" height="2.148"/><path class="cls-4" d="M4.459,2.321a.9.9,0,1,0,.9.9A.9.9,0,0,0,4.459,2.321ZM5,3.812a.062.062,0,0,0-.1.076.8.8,0,0,1-.073.043.062.062,0,0,0-.114.048A.779.779,0,0,1,4.63,4a.062.062,0,0,0-.123.017l-.049,0H4.423A.062.062,0,0,0,4.3,4a.792.792,0,0,1-.082-.022A.062.062,0,0,0,4.1,3.936a.818.818,0,0,1-.074-.042.062.062,0,0,0-.1-.075.774.774,0,0,1-.061-.06.062.062,0,0,0-.076-.1.781.781,0,0,1-.043-.073A.062.062,0,0,0,3.7,3.475a.786.786,0,0,1-.023-.082.062.062,0,0,0-.017-.123q0-.024,0-.049V3.185a.062.062,0,0,0,.015-.123A.774.774,0,0,1,3.7,2.98a.062.062,0,0,0,.047-.115.826.826,0,0,1,.042-.074.062.062,0,0,0,.075-.1.812.812,0,0,1,.06-.061.062.062,0,0,0,.1-.076.8.8,0,0,1,.073-.043.062.062,0,0,0,.114-.048.81.81,0,0,1,.082-.023.062.062,0,0,0,.123-.017l.049,0H4.5a.062.062,0,0,0,.123.015A.834.834,0,0,1,4.7,2.46a.062.062,0,0,0,.115.047.8.8,0,0,1,.074.042.062.062,0,0,0,.1.075.818.818,0,0,1,.061.06.062.062,0,0,0,.076.1.818.818,0,0,1,.043.074.062.062,0,0,0,.048.114.8.8,0,0,1,.023.082.062.062,0,0,0,.017.123c0,.016,0,.032,0,.049v.037a.062.062,0,0,0-.015.123.846.846,0,0,1-.021.083.062.062,0,0,0-.047.115.817.817,0,0,1-.042.074.062.062,0,0,0-.075.1A.817.817,0,0,1,5,3.812Z"/><path class="cls-4" d="M4.676,3.377l.439.223L4.7,3.332,4.6,3.29l.006-.015.1.041.482.1-.468-.153L4.616,3.25l0-.016.107.014.492-.027L4.725,3.2l-.107.014,0-.016.107-.014.468-.153-.482.1-.1.041L4.6,3.153l.1-.042.413-.269-.439.223-.086.066-.01-.013.086-.066L5,2.686l-.367.329L4.563,3.1l-.013-.01L4.615,3l.223-.439-.269.413-.042.1-.015-.006.041-.1.1-.482L4.5,2.958l-.014.107-.016,0,.014-.107-.026-.492-.027.492.014.107-.016,0-.014-.107-.153-.469.1.482.041.1-.015.006-.042-.1L4.08,2.565,4.3,3l.066.086-.013.01L4.29,3.015l-.367-.329.329.367.086.066-.01.013-.086-.066L3.8,2.843l.413.269.1.042-.006.015-.1-.041-.482-.1.468.153.107.014,0,.016L4.193,3.2,3.7,3.222l.492.027L4.3,3.234l0,.016L4.2,3.265l-.468.153.482-.1.1-.041.006.015-.1.042L3.8,3.6l.439-.223.086-.066.01.013-.086.066-.329.367.367-.329.066-.086.013.01L4.3,3.438l-.223.439.269-.413.042-.1.015.006-.041.1-.1.482.153-.468.014-.107.016,0-.014.107.027.492.026-.492L4.472,3.38l.016,0,.014.107.153.468-.1-.482-.041-.1.015-.006.042.1.269.413-.223-.439-.066-.086.013-.01.066.086L5,3.757l-.329-.367L4.58,3.325l.01-.013Z"/></g></g></svg>