<svg xmlns="http://www.w3.org/2000/svg" viewBox="0 0 8.919 6.443"><defs><style>.cls-1{fill:#e0031e;}.cls-2{fill:#e5e5e5;}.cls-3{fill:#e70013;}</style></defs><title>Тунис</title><g id="Слой_2" data-name="Слой 2"><g id="flags"><rect class="cls-1" width="8.919" height="6.443"/><path class="cls-2" d="M4.459,1.475A1.747,1.747,0,1,0,6.206,3.222,1.749,1.749,0,0,0,4.459,1.475ZM3.142,3.222A1.316,1.316,0,0,1,5.21,2.14a1.14,1.14,0,1,0,0,2.163A1.316,1.316,0,0,1,3.142,3.222Z"/><polygon class="cls-3" points="4.392 2.541 4.778 2.966 5.294 2.712 5.009 3.211 5.409 3.623 4.847 3.506 4.579 4.014 4.516 3.443 3.95 3.345 4.474 3.109 4.392 2.541"/></g></g></svg>