<svg xmlns="http://www.w3.org/2000/svg" viewBox="0 0 8.919 6.443"><defs><style>.cls-1{fill:#d8091e;}.cls-2{fill:#e5e5e5;}</style></defs><title>Турция</title><g id="Слой_2" data-name="Слой 2"><g id="flags"><rect class="cls-1" width="8.919" height="6.443"/><path class="cls-2" d="M3.064,4.4a1.4,1.4,0,0,1-.731-1.174,1.4,1.4,0,0,1,.731-1.174,1.455,1.455,0,0,1,1.647.28,1.8,1.8,0,0,0-2.238-.587,1.547,1.547,0,0,0-.929,1.48A1.546,1.546,0,0,0,2.473,4.7a1.8,1.8,0,0,0,2.238-.587A1.455,1.455,0,0,1,3.064,4.4Z"/><polygon class="cls-2" points="5.182 2.459 5.563 2.962 6.153 2.736 5.791 3.254 6.189 3.744 5.585 3.561 5.241 4.091 5.229 3.459 4.619 3.296 5.215 3.089 5.182 2.459"/></g></g></svg>