<svg xmlns="http://www.w3.org/2000/svg" width="100" height="100" viewBox="0 0 32 32"><path d="M24.125 11.875a1.25 1.25 0 1 1 0 2.5 1.25 1.25 0 1 1 0-2.5zM27 2.5h-1.625V1.25a1.25 1.25 0 1 0-2.5 0V2.5h-5.688V1.25a1.25 1.25 0 1 0-2.5 0V2.5H9.062V1.25a1.25 1.25 0 1 0-2.5 0V2.5H5c-2.76.003-4.997 2.24-5 5V27c.003 2.76 2.24 4.997 5 5h9.563a1.25 1.25 0 1 0 0-2.5H5A2.5 2.5 0 0 1 2.5 27V7.5A2.5 2.5 0 0 1 5 5h1.563v1.25a1.25 1.25 0 1 0 2.5 0V5h5.625v1.25a1.25 1.25 0 1 0 2.5 0V5h5.688v1.25a1.25 1.25 0 1 0 2.5 0V5H27a2.5 2.5 0 0 1 2.5 2.5v7.125a1.25 1.25 0 1 0 2.5 0V7.5c-.003-2.76-2.24-4.997-5-5zm-2.562 14.375c-3.06 0-5.817 1.842-6.988 4.668s-.524 6.08 1.64 8.242 5.416 2.8 8.242 1.64S32 27.497 32 24.438c-.005-4.174-3.388-7.557-7.562-7.563zm0 12.625c-2.048 0-3.894-1.233-4.678-3.125s-.35-4.07 1.097-5.518 3.626-1.88 5.518-1.097S29.5 22.4 29.5 24.438a5.07 5.07 0 0 1-5.062 5.062zm1.812-6.312h-.562v-1.313a1.25 1.25 0 0 0-1.25-1.201 1.25 1.25 0 0 0-1.25 1.201v2.563a1.25 1.25 0 0 0 1.251 1.25h1.812a1.25 1.25 0 1 0-.001-2.5zm-7.562-11.313a1.25 1.25 0 1 1 0 2.5 1.25 1.25 0 1 1 0-2.5zm-5.438 5.438a1.25 1.25 0 1 1 0 2.5 1.25 1.25 0 1 1 0-2.5zm-5.438-5.438a1.25 1.25 0 0 1 .885 2.134 1.25 1.25 0 0 1-2.134-.884 1.25 1.25 0 0 1 1.249-1.25zm0 5.438a1.25 1.25 0 0 1 .885 2.134 1.25 1.25 0 0 1-2.134-.884 1.25 1.25 0 0 1 1.249-1.25zm0 5.437a1.25 1.25 0 0 1 .885 2.134A1.25 1.25 0 0 1 6.563 24a1.25 1.25 0 0 1 1.249-1.25zm5.438 0a1.25 1.25 0 1 1 0 2.5 1.25 1.25 0 1 1 0-2.5zm0-10.875a1.25 1.25 0 1 1 0 2.5 1.25 1.25 0 1 1 0-2.5z" fill="#fff" fill-rule="evenodd"/></svg>