<svg xmlns="http://www.w3.org/2000/svg" width="100" height="99.997" viewBox="0 0 36.001 36"><path d="M31.09 21.305l-3.05-2.32 3.05-2.32c.354-.278.498-.748.36-1.177a1.04 1.04 0 0 0-.99-.721h-9.34v-2.1h5.2a1.03 1.03 0 0 0 .62-.211l4.16-3.164c.26-.203.4-.514.4-.844s-.15-.64-.4-.844L26.93 4.43a1.03 1.03 0 0 0-.62-.211h-5.2V3.164a3.12 3.12 0 0 0-4.68-2.702 3.12 3.12 0 0 0-1.56 2.702V4.22H5.54a1.04 1.04 0 0 0-.99.721c-.14.43.01.903.37 1.177l3.04 2.32-3.04 2.32c-.36.274-.5.746-.37 1.177a1.04 1.04 0 0 0 .99.721h9.34v2.1h-5.2a1.03 1.03 0 0 0-.62.211L4.92 18.14c-.265.2-.42.512-.42.844s.155.644.42.843l4.15 3.164a1.03 1.03 0 0 0 .62.211h5.2v5.417a5.29 5.29 0 0 0-2.07 4.216v2.11c-.003.278.105.546.3.744s.46.3.74.31h8.3c.278-.001.544-.113.74-.31s.303-.466.3-.744v-2.11a5.29 5.29 0 0 0-2.07-4.216V23.2h9.34a1.04 1.04 0 0 0 .99-.721c.137-.428-.007-.896-.36-1.174zM16.96 3.164a1.04 1.04 0 0 1 1.56-.901 1.04 1.04 0 0 1 .52.901V4.22h-2.08V3.164zm-8.3 7.383l1.67-1.266c.26-.203.4-.514.4-.844s-.15-.64-.4-.844L8.65 6.328h17.3l2.77 2.1-2.77 2.11H8.65zm10.4 2.11v2.1h-2.08v-2.1h2.08zm2.08 21.235h-6.24v-1.055a3.12 3.12 0 0 1 4.68-2.702 3.12 3.12 0 0 1 1.56 2.702v1.055zm-4.16-6.222V23.2h2.08v4.466a5.11 5.11 0 0 0-2.08.003zm8.72-7.84l1.67 1.266h-17.3l-2.77-2.1 2.77-2.11h17.3l-1.67 1.266c-.26.203-.4.514-.4.844s.15.64.4.843z" fill="#fff" fill-rule="evenodd"/></svg>