<svg xmlns="http://www.w3.org/2000/svg" width="99.999" height="100" viewBox="0 0 30 30"><path d="M22.1 1.193c-.84-.42-1.862-.093-2.3.738L7.08 26.54a1.67 1.67 0 0 0 .75 2.263 1.73 1.73 0 0 0 2.3-.738l12.7-24.61a1.67 1.67 0 0 0-.75-2.262zm-9.13 8.1A6.48 6.48 0 0 0 1.932 4.575 6.48 6.48 0 0 0 6.48 15.674c3.55.026 6.45-2.828 6.48-6.377zM6.48 12.31c-1.658-.03-2.98-1.393-2.962-3.05s1.375-3 3.033-2.98S9.55 7.634 9.55 9.293a3.04 3.04 0 0 1-3.07 3.02zm17.04 2c-3.51.054-6.318 2.935-6.282 6.446s2.902 6.333 6.413 6.315S30 24.2 30 20.7c-.034-3.548-2.932-6.4-6.48-6.373zm0 9.4c-1.66-.024-2.988-1.385-2.972-3.045s1.37-2.995 3.03-2.986 3 1.357 3 3.017a3.05 3.05 0 0 1-3.06 3.019z" fill="#fff" fill-rule="evenodd"/></svg>